<?xml version="1.0" encoding="utf-8"?>
<!-- Generator: Adobe Illustrator 16.0.4, SVG Export Plug-In . SVG Version: 6.00 Build 0)  -->
<!DOCTYPE svg PUBLIC "-//W3C//DTD SVG 1.1//EN" "http://www.w3.org/Graphics/SVG/1.1/DTD/svg11.dtd" [
	<!ENTITY ns_flows "http://ns.adobe.com/Flows/1.0/">
	<!ENTITY ns_extend "http://ns.adobe.com/Extensibility/1.0/">
	<!ENTITY ns_ai "http://ns.adobe.com/AdobeIllustrator/10.0/">
	<!ENTITY ns_graphs "http://ns.adobe.com/Graphs/1.0/">
]>
<svg version="1.1" id="bullgit" xmlns:x="&ns_extend;" xmlns:i="&ns_ai;" xmlns:graph="&ns_graphs;"
	 xmlns="http://www.w3.org/2000/svg" xmlns:xlink="http://www.w3.org/1999/xlink" xmlns:a="http://ns.adobe.com/AdobeSVGViewerExtensions/3.0/"
	 x="0px" y="0px" width="750px" height="750px" viewBox="0 0 750 750" enable-background="new 0 0 750 750" xml:space="preserve">
<symbol  id="bullgit_1_" viewBox="-249.175 -278.279 498.351 556.559">
	<path fill="#231F20" d="M66.342,62.596c73.724-44.232,60.748-72.84,86.699-73.724c25.949-0.884,35.385,61.633,69.297,86.108
		c12.035,8.687,26.838,9.436,26.838,9.436s-16.627-29.803-15.389-50.548c1.652-27.683,10.356-75.438-32.385-101.32
		c-40.666-24.625-51.716-22.688-51.716-22.688s6.783-11.99,25.871-36.958c36.14-47.273,38.453-51.761,36.558-57.069
		c52.553-32.149,22.588-134.368-69.051-76.908c-23.281-12.879-49.109-13.464-89.168,10.782C5-220.697-9.713-195.539-63.645-187.569
		c-32.17,4.754-61.769,19.123-78.069,44.735c-16.507,25.935-17.862,45.396-17.862,45.396s-49.424-9.801-75.374-6.852
		s-11.577,21.016,5.013,42.17c25.494,32.507,79.947,57.674,79.947,57.674s-64.65,18.215-72.494,60.92
		c-8.214,44.717,15.99,84.657,54.053,105.799c46.187,25.652,81.471,36.262,111.975,62.408c24.073,20.633,33.99,39.654,40.962,53.598
		c8.469-12.262,24.402-49.678-42.705-112.863c-19.437-18.299-49.069-42.006-49.241-54.907c-0.138-10.247,8.308-19.772,37.719-25.284
		c16.729,4.664,27.744,5.783,44.354,5.383C9.225,89.775,46.393,74.566,66.342,62.596z"/>
	<path fill="#FFFFFF" d="M-110.312-15.23c36.545-9.302-1.381-19.718-16.002-19.718c-10.181-10.278-32.58-34.149-59.472-41.343
		s-38.774-2.189-38.774-2.189s14.692,21.933,33.535,37.219c18.842,15.286,55.935,32.808,55.935,32.808
		S-123.596-11.849-110.312-15.23z"/>
	<path fill="#FFFFFF" d="M1.06-30.393c-5.412-9.206-7.048-15.314-4.924-25.366C-0.739-70.553,7.58-81.384,26.301-83.996
		c11.015-1.537,18.201-0.999,25.635,3.726C38.678-64.047,19.945-43.438,1.06-30.393z"/>
	<path fill="#FFFFFF" d="M211.455-213.001c0.104-2.148,0.027-8.68-1.791-13.112c-1.576-3.834-4.146-7.207-7.406-9.764
		c-1.86-1.459-3.928-2.646-6.123-3.531c-0.906-0.364-1.828-0.679-2.766-0.942c0.115,0.032-4.603-0.917-2.281-0.564
		c-15.463-2.343-29.15,5.521-38.096,17.848c0.033-0.096,0.061-0.189,0.084-0.288c-1.992,3.687-3.732,7.249-4.992,11.25
		c-0.68,2.954-3.408,7.996-7.104,4.876c-4.495-3.796-3.454-14.47-2.268-19.604c5.557-22.56,27.32-37.003,49.736-38.514
		c16.963-1.145,34.856,8.129,40.545,24.722c5.83,17.008-2.615,35.735-17.051,45.427c-1.211,0.813-3.322,2.588-4.894,2.228
		c-1.531-0.354-2.279-2.277-1.451-3.595C206.166-197.616,211.162-206.88,211.455-213.001z"/>
	<path fill="#FFFFFF" d="M-15.93,260.416c-12.464-25.205-40.177-59.24-113.414-89.396c-18.82-7.75-36.916-17.943-51.76-31.957
		c-32.51-30.697-33.5-56.275-31.385-75.14c0.529-4.728,2.074-9.084,4.254-13.077c-0.707,2.418-1.207,4.881-1.451,7.348
		c-3.035,30.772,10.715,73.035,115.08,120.692c9.528,4.351,17.637,7.919,31.198,16.986
		c-35.636-27.183-103.612-62.071-95.302-116.687c3.295-21.654,49.434-40.131,69.172-48.438c4.066,11.742,7.031,22.924,7.361,27.697
		c0.559,8.051-1.268,15.748-9.18,19.506c-18.108,6.849-25.707,11.947-29.429,21.396c-12.539,31.85,49.293,61.355,70.392,86.742
		C-17.427,225.758-12.44,244.652-15.93,260.416z"/>
	<path fill="#FFFFFF" d="M235.135,72.361c-38.815-16.483-40.453-74.064-67.812-91.895c-11.646-7.589-16.808-7.516-33.804-1.048
		c0-6.094,6.619-12.267,18.425-13.418c55.508-5.414,61.227,47.013,61.227,47.013s2.295-25.458-5.963-55.274
		c11.24,9.174,20.758,35.093,19.07,57.742C225.279,28.865,220.365,49.85,235.135,72.361z"/>
	<path fill="#FFFFFF" d="M123.467-69.411c-6.711,10.677,7.578,25.702,7.578,25.702s-8.629,54.032-52.756,83.238
		C17.279,79.913-37.336,77.298-37.336,77.298s16.301-21.782,20.432-35.993c2.77-9.527,0.97-22.535-1.978-32.622
		c11.03-4.897,42.544-17.573,77.681-63.082c23.58-30.54,79.828-90.231,96.002-109.055c10.939,4.32,23.035,5.549,35.416,3.951
		C168.557-131.379,131.604-82.353,123.467-69.411z"/>
	<path fill="#FFFFFF" d="M175.496-165.658c-59.25-8.502-56.982-46.767-47.482-49.253c-0.647,0.17,0.086,6.269,0.185,6.904
		c0.354,2.327,0.973,4.616,2.19,6.647c2.039,3.397,5.277,5.609,9.002,6.806c4.55,1.461,10.441,2.426,12.412-3.194
		c1.604-4.568,0.209-10.084,4.97-13.074c6.354-3.992,15.479-4.771,22.573-2.604c7.416,2.267,15.273,6.924,16.047,15.392
		c0.271,2.956-0.938,7.474,0.707,10.112c2.742,4.396,5.718,5.846,9.375,6.444C204.809-180.69,201.486-161.929,175.496-165.658z"/>
	<path fill="#231F20" d="M63.791-7.336c-21.582,0-42.59,2.479-63.548,7.591C-20.344,5.275-41.693,12.189-58.83,25.08
		c-15.555,11.701-25.025,29.012-20.021,48.712c3.883,15.28,16.684,25.219,31.815,28.013c1.896,0.35,3.813,0.59,5.738,0.711
		c2.164,0.137,1.565,2.59,2.014,4.498c0.767,3.258,2.234,6.348,4.406,8.905c7.778,9.169,21.645,9.38,32.593,8.06
		c-0.307,9.451,7.105,17.395,16.577,17.164c-1.133,8.52,1.355,18.422,7.564,24.603c5.401,5.377,13.043,7.76,20.422,8.778
		c9.006,1.242,17.688-0.112,26.66-0.112c7.647,0,11.771,3.674,16.811,8.713c-0.682-4.581-0.967-9.492-3.559-13.479
		c-3.127-4.816-8.552-6.787-13.554-9.031c-3.446-1.547-13.334-5.674-9.271-10.852c2.238-2.854,6.332-3.855,9.502-5.287
		c3.51-1.582,6.996-3.221,10.395-5.031c6.271-3.34,12.623-7.338,16.984-13.068c1.967-2.584,3.451-5.535,4.137-8.721
		c0.486-2.264,7.135-4.637,9.289-6.239c11.736-8.726,16.062-23.54,10.896-37.272c13.985-2.662,26.213-14.629,28.532-28.843
		c1.812-11.106-1.125-25.432-8.334-34.238c-7.901-9.653-20.473-13.848-32.346-15.978C93.764-7.546,78.639-7.336,63.791-7.336z"/>
	<path fill="#FFFFFF" d="M-16,79.4c-12.861,5.656-18.917,16.703-18.917,16.703s-31.954,1.576-33.39-29.015
		c-1.861-39.737,76.743-54.072,96.42-57.102c19.676-3.03,46.686-1.908,46.686-1.908c56.416-0.705,60.443,15.894,62.562,27.071
		c2.114,11.178,0.903,19.381-8.015,27.916C117.674,74.232,101.819,68.09,86.11,66.4c-17.672-1.898-31.75,1.25-31.75,1.25
		s63.721-5.195,57.801,25.199c-1.973,10.125-8.291,18.946-29.605,14.012c-6.356-1.471-14.049-0.764-14.049-0.764
		s21.547,0.192,21.609,11.854c0.039,7.343-9.418,13.366-24.928,20.366c-15.513,7-17.345,13.24-17.183,16.675
		c0.16,3.435,3.217,6.809,13.521,12.333c0,0-29.619,5.566-35.666-10.926c-5.5-15,0.252-20.558,7.25-23.75
		c-11.58,5.129-22.812,6.199-24.75-3.5c-1.75-8.75,15.047-16.493,34.24-19.448c-23.998,3.118-31.604,5.635-41.578,7.171
		c-9.849,1.516-26.211,2.441-29.473-10.645C-33.641,85.4,16.609,71.9,16.609,71.9S-4.017,74.13-16,79.4z"/>
</symbol>
<circle id="Blue_Circle" fill="#1E93D1" cx="374.999" cy="357.557" r="200"/>
<use xlink:href="#bullgit_1_"  width="498.351" height="556.559" id="Bull" x="-249.175" y="-278.279" transform="matrix(1 0 0 -1 375 293.9023)" overflow="visible"/>
<g>
	<g>
		<path fill="#1E93D1" d="M194.97,703.62c-7,0-14.069-1.606-21.01-4.773c-2.281-1.008-4.278-2.197-5.925-3.534
			c-0.234-0.188-0.37-0.475-0.37-0.775V606.77c0-3.576-0.45-4.755-0.717-5.138c-0.724-1.103-2.003-1.626-3.929-1.626
			c-0.954,0-1.854,0.09-2.676,0.268c-0.525,0.111-0.966,0.166-1.35,0.166c-0.489,0-0.885-0.09-1.21-0.271
			c-0.467-0.264-0.874-0.625-1.211-1.077c-1.274-1.938-0.112-4.207,3.418-6.793c4.856-3.576,9.74-5.391,14.513-5.391
			c5.368,0,8.551,3.035,9.206,8.776c0.175,1.626,0.263,3.347,0.263,5.119v29.153c6.158-5.153,13.041-7.763,20.493-7.763
			c8.977,0,16.393,3.152,22.041,9.373c6.131,6.655,9.242,16.037,9.242,27.875c0,13.306-4.244,24.251-12.615,32.532
			C215.229,699.704,205.755,703.62,194.97,703.62z M183.972,686.874c3.747,2.975,8.264,4.482,13.436,4.482
			c6.379,0,11.417-2.299,15.403-7.023c4.229-5.011,6.373-12.024,6.373-20.848c0-9.302-1.89-16.364-5.617-20.994
			c-3.302-4.199-7.798-6.236-13.753-6.236c-5.801,0-11.128,2.205-15.841,6.557L183.972,686.874L183.972,686.874z"/>
		<path fill="#1E93D1" d="M270.068,703.62c-2.712,0-5.396-0.38-7.978-1.13c-2.634-0.766-4.954-2.023-6.896-3.74
			c-4.14-3.645-6.24-9.293-6.24-16.788v-37.66c0-2.343-0.174-4.236-0.517-5.633c-0.358-1.451-0.978-1.451-1.242-1.451
			c-0.861,0-1.337,0.106-1.585,0.196l-1.494,0.625c-0.036,0.015-0.072,0.027-0.11,0.038c-0.139,0.04-0.284,0.061-0.431,0.061
			c-0.549,0-1.086-0.271-1.643-0.828c-1.028-1.135-1.511-2.161-1.511-3.178c0-0.927,0.295-1.896,0.876-2.881
			c0.533-0.904,1.311-1.896,2.378-3.032c1.058-1.126,2.278-2.129,3.625-2.981c3.042-2.016,5.882-3.042,8.427-3.042
			c2.615,0,4.46,0.474,5.641,1.447c1.113,0.921,1.968,2.138,2.541,3.616c0.907,2.273,1.351,5.563,1.351,10.05v40.163
			c0,6.741,1.876,10.388,5.736,11.145c1.257,0.243,2.78,0.366,4.523,0.366c1.736,0,3.627-0.229,5.618-0.682
			c2.004-0.454,3.947-1.063,5.776-1.812c3.364-1.385,6.391-3.152,9.002-5.257v-36.932c0-4.587-0.938-6.156-1.725-6.667
			c-0.43-0.274-1.048-0.417-1.831-0.417c-0.815,0-1.449,0.113-1.883,0.338c-0.631,0.326-1.136,0.556-1.54,0.696
			c-0.272,0.096-0.543,0.146-0.801,0.146c-0.347,0-0.671-0.087-0.964-0.258c-0.331-0.191-0.682-0.474-1.039-0.833
			c-0.845-0.956-1.253-1.912-1.253-2.887c0-0.919,0.323-1.889,0.96-2.882c0.588-0.915,1.492-1.925,2.767-3.086
			c1.24-1.13,2.68-2.175,4.276-3.106c3.606-2.093,7.271-3.151,10.896-3.151c3.28,0,7.362,1.702,8.181,9.816
			c0.174,1.702,0.263,3.484,0.263,5.296v37.982c0,8.042,0.395,10.974,0.724,12.017c0.551,1.742,1.103,2.402,1.468,2.649
			c0.562,0.381,1.262,0.566,2.134,0.566c0.906,0,1.643-0.139,2.186-0.408l1.974-0.857c0.056-0.022,0.112-0.043,0.172-0.057
			c0.166-0.038,0.334-0.059,0.499-0.059c0.55,0,1.348,0.218,2.034,1.248c1.405,2.073,0.999,3.681,0.41,4.66
			c-0.709,1.182-1.804,2.317-3.252,3.373c-1.397,1.022-2.983,1.923-4.712,2.676c-3.736,1.642-7.016,2.475-9.743,2.475
			c-2.979,0-5.395-0.978-7.175-2.903c-1.5-1.618-2.458-4.018-2.857-7.146c-5.914,4.314-12.031,7.372-18.208,9.099
			C275.396,703.285,272.772,703.62,270.068,703.62z"/>
		<path fill="#1E93D1" d="M368.198,702.721c-0.08,0-0.161-0.01-0.241-0.028c-0.776-0.193-2.077-0.291-3.865-0.291h-20.466
			c-7.177,0-10.816-1.849-10.816-5.49c0-1.803,0.396-3.22,1.177-4.212c0.192-0.246,0.484-0.382,0.786-0.382
			c0.105,0,0.213,0.017,0.316,0.052c0.916,0.307,1.781,0.462,2.57,0.462c1.979,0,4.627-0.598,4.773-5.765V606.77
			c0-3.757-0.491-4.83-0.702-5.117c-0.8-1.11-2.088-1.646-3.943-1.646c-0.913,0-1.805,0.09-2.648,0.269
			c-0.535,0.11-0.983,0.165-1.378,0.165c-0.489,0-0.889-0.086-1.219-0.26c-0.525-0.278-0.944-0.669-1.249-1.158
			c-1.174-1.937-0.005-4.194,3.468-6.727c4.854-3.574,9.738-5.389,14.511-5.389c5.368,0,8.553,3.035,9.206,8.776
			c0.176,1.625,0.264,3.346,0.264,5.119v86.547c0.11,2.864,1.084,4.582,2.974,5.212c0.615,0.193,1.386,0.379,2.272,0.544
			c0.953,0.177,1.844,0.391,2.646,0.637c0.874,0.267,1.554,0.573,2.074,0.938c1.02,0.778,1.519,1.952,1.519,3.516
			c0,1.724-0.419,3.12-1.245,4.151C368.786,702.586,368.497,702.721,368.198,702.721z"/>
		<path fill="#1E93D1" d="M414.07,702.721c-0.08,0-0.161-0.01-0.241-0.028c-0.775-0.193-2.075-0.291-3.864-0.291h-20.467
			c-7.177,0-10.815-1.849-10.815-5.49c0-1.805,0.396-3.222,1.178-4.213c0.191-0.245,0.483-0.381,0.784-0.381
			c0.106,0,0.214,0.017,0.317,0.052c0.915,0.307,1.779,0.462,2.569,0.462c1.979,0,4.628-0.598,4.773-5.765V606.77
			c0-3.757-0.492-4.83-0.703-5.117c-0.799-1.11-2.086-1.646-3.941-1.646c-0.913,0-1.805,0.09-2.649,0.269
			c-0.534,0.11-0.983,0.165-1.377,0.165c-0.49,0-0.89-0.086-1.22-0.26c-0.526-0.279-0.945-0.67-1.25-1.16
			c-1.173-1.935-0.004-4.193,3.469-6.725c4.854-3.574,9.738-5.389,14.512-5.389c5.367,0,8.552,3.035,9.205,8.776
			c0.177,1.632,0.265,3.352,0.265,5.119v86.547c0.109,2.864,1.083,4.582,2.973,5.212c0.617,0.193,1.388,0.379,2.273,0.544
			c0.952,0.177,1.843,0.391,2.645,0.637c0.872,0.266,1.552,0.572,2.075,0.937c1.02,0.78,1.519,1.954,1.519,3.517
			c0,1.723-0.42,3.119-1.247,4.151C414.658,702.586,414.369,702.721,414.07,702.721z"/>
		<path fill="#231F20" d="M453.336,735.315c-5.048,0-9.531-0.407-13.327-1.209c-3.831-0.812-7.285-2.092-10.267-3.802
			c-6.593-3.811-9.935-9.369-9.935-16.521c0-6.068,3.041-11.556,9.04-16.311c1.435-1.118,2.952-2.149,4.532-3.077
			c-1.854-1.992-2.794-4.528-2.794-7.559c0-4.897,2.203-9.125,6.555-12.586c-6.744-3.032-11.281-8.1-13.501-15.084
			c-0.756-2.49-1.138-5.286-1.138-8.322c0-3.054,0.483-5.972,1.437-8.674c0.952-2.701,2.278-5.148,3.94-7.275
			c1.655-2.119,3.612-3.998,5.817-5.587c2.189-1.575,4.564-2.907,7.061-3.96c4.885-2.094,10.091-3.155,15.466-3.155
			c8.197,0,14.972,1.941,20.161,5.775c0.307-1.579,0.46-3.201,0.46-4.841c0-2.046-0.437-3.71-1.297-4.946
			c-0.26-0.372-0.234-0.872,0.059-1.219c1.859-2.192,4.62-3.304,8.204-3.304c2.133,0,3.871,0.605,5.17,1.804
			c2.334,2.007,3.529,4.108,3.529,6.222c0,1.939-0.306,3.666-0.909,5.13c-0.589,1.423-1.363,2.779-2.307,4.035
			c-1.478,2.077-3.391,4.01-5.684,5.736c1.521,3.162,2.291,6.799,2.291,10.825c0,4.355-0.978,8.46-2.902,12.198
			c-1.914,3.72-4.516,6.925-7.733,9.525c-6.568,5.3-14.768,7.986-24.366,7.986c-1.194,0-2.643-0.092-4.307-0.271
			c-1.206,1.299-1.815,2.541-1.815,3.696c0,1.251,0.33,2.15,1.009,2.747c0.784,0.69,1.844,1.235,3.148,1.62
			c2.104,0.566,4.499,0.857,7.097,0.857h5.518c14.235,0,23.776,3.519,28.358,10.457c1.729,2.638,2.604,5.876,2.604,9.629
			c0,3.692-0.633,6.991-1.882,9.806c-1.241,2.79-2.926,5.294-5.009,7.443c-2.066,2.132-4.495,3.992-7.219,5.531
			c-2.701,1.523-5.593,2.78-8.594,3.738C463.971,734.326,458.425,735.315,453.336,735.315z M443.334,699.462
			c-5.046,3.53-7.604,7.526-7.604,11.884c0,3.794,2.198,6.622,6.722,8.646c3.752,1.731,8.446,2.607,13.964,2.607
			c5.026,0,9.739-0.841,14.009-2.499c5.397-2.119,8.023-5.444,8.023-10.167c0-6.277-5.15-9.33-15.745-9.33l-5.698,0.064
			C451.361,700.668,446.768,700.263,443.334,699.462z M453.336,633.047c-6.824,0-11.112,2.682-13.11,8.194
			c-0.684,1.89-1.029,4.277-1.029,7.101c0,2.821,0.421,5.381,1.251,7.607c0.822,2.207,1.955,4.039,3.362,5.447
			c1.409,1.408,3.048,2.465,4.869,3.138c1.843,0.683,3.852,1.028,5.974,1.028c2.131,0,4.164-0.308,6.045-0.913
			c1.854-0.6,3.478-1.485,4.821-2.634c2.916-2.477,4.333-5.92,4.333-10.529c0-5.139-1.333-9.466-3.962-12.86
			C462.906,634.875,458.796,633.047,453.336,633.047z"/>
		<path fill="#231F20" d="M537.254,702.721c-0.077,0-0.154-0.009-0.229-0.026c-0.82-0.194-2.124-0.293-3.875-0.293h-20.468
			c-7.22,0-10.88-1.849-10.88-5.49c0-1.764,0.419-3.183,1.245-4.218c0.193-0.242,0.482-0.376,0.781-0.376
			c0.105,0,0.213,0.017,0.317,0.052c0.915,0.307,1.759,0.462,2.506,0.462c1.486,0,2.587-0.383,3.36-1.171
			c1.022-1.04,1.521-2.852,1.478-5.383v-43.003c0-3.448-0.58-4.989-1.066-5.677c-0.633-0.892-1.857-1.344-3.644-1.344
			c-1.477,0-2.825,0.181-4.013,0.536c-0.058,0.018-0.115,0.029-0.176,0.036c-0.086,0.009-0.171,0.014-0.253,0.014
			c-0.828,0-1.932-0.44-2.492-2.547c-0.38-1.459-0.151-2.768,0.674-3.896c0.711-0.973,1.761-1.947,3.209-2.981
			c1.398-0.999,2.958-1.885,4.632-2.633c3.604-1.715,6.705-2.589,9.196-2.589c2.562,0,4.441,0.383,5.746,1.169
			c1.287,0.778,2.285,1.841,2.97,3.154c1.027,2.06,1.523,5.186,1.523,9.57v51.262c0.11,2.9,1.078,4.615,2.956,5.206
			c0.604,0.202,1.355,0.386,2.254,0.55c0.977,0.176,1.87,0.392,2.655,0.639c0.852,0.268,1.519,0.573,2.036,0.936
			c1.02,0.779,1.519,1.953,1.519,3.516c0,1.765-0.396,3.159-1.179,4.147C537.846,702.584,537.556,702.721,537.254,702.721z
			 M516.596,612.26c-1.565,0-3.03-0.247-4.354-0.734c-1.343-0.495-2.527-1.227-3.521-2.172c-2.079-1.984-3.133-4.668-3.133-7.975
			c0-3.189,1.233-5.922,3.666-8.119c2.306-2.168,5.127-3.272,8.369-3.272c3.254,0,5.909,1.005,7.893,2.985
			c1.982,1.982,2.987,4.682,2.987,8.021c0,3.183-1.186,5.911-3.523,8.106C522.694,611.201,519.876,612.26,516.596,612.26z"/>
		<path fill="#231F20" d="M570.972,703.62c-3.446,0-6.303-0.199-8.484-0.592c-2.287-0.411-4.269-1.254-5.889-2.503
			c-3.323-2.585-5.008-7.275-5.008-13.944v-49.492h-5.352c-1.668,0-2.915-0.575-3.708-1.711c-1.147-1.479-1.721-2.771-1.721-3.908
			c0-2.015,0.627-3.184,1.861-3.476c6.521-1.108,10.986-5.837,13.712-14.468c0.789-2.619,1.425-5.781,1.886-9.388
			c0.058-0.438,0.394-0.787,0.828-0.858c2.123-0.354,3.698-0.525,4.815-0.525c1.383,0,2.573,0.68,3.538,2.021
			c0.895,1.239,1.336,2.693,1.312,4.319c-0.021,1.419-0.054,2.751-0.098,3.997c-0.043,1.239-0.085,2.585-0.127,4.036l-0.229,7.953
			h21.171c0.36,0,0.693,0.194,0.87,0.509c0.64,1.134,0.964,2.357,0.964,3.636v1.988c0,2.168-1.139,3.938-3.382,5.257
			c-2.07,1.219-4.39,1.837-6.891,1.837c-2.385,0-4.042-0.031-5.068-0.098c-1.015-0.065-1.995-0.14-2.944-0.228l-2.867-0.39
			c-0.625-0.054-1.3-0.108-2.01-0.166l-0.063,20.221l-0.063,16.876c0,9,0.614,11.557,0.981,12.277
			c0.593,1.168,1.247,1.86,1.946,2.057c0.89,0.254,2.07,0.382,3.514,0.382c1.475,0,2.826-0.113,4.021-0.337
			c1.202-0.224,2.352-0.523,3.418-0.893c1.075-0.372,2.124-0.792,3.116-1.247l3.168-1.356c0.26-0.096,0.467-0.132,0.677-0.132
			c1.425,0,2.42,1.621,3.044,2.841c0.324,0.594,0.495,1.305,0.495,2.091c0,0.792-0.289,1.729-0.884,2.869
			c-0.578,1.108-1.633,2.309-3.221,3.666c-1.531,1.311-3.337,2.487-5.366,3.502C578.544,702.482,574.516,703.62,570.972,703.62z"/>
	</g>
</g>
<path id="Eyelid_x5F_alt" display="none" fill="#231F20" d="M370.235,278.67v63.26c0-6.02,1.938-11.03,5.818-17.629
	c18.892,13.04,37.62,33.65,50.881,49.87c-5.061,3.22-10.011,4.5-16.141,4.5h59.44v-100L370.235,278.67L370.235,278.67z"/>
<ellipse id="Eyelid" transform="matrix(0.7071 0.7071 -0.7071 0.7071 345.0761 -219.0874)" fill="#231F20" cx="437" cy="307" rx="100" ry="50"/>
<animate
	xlink:href="#Eyelid"
	attributeName="cx"
	from="442"
	to="402"
	dur=".08s"
	begin="5s; xEyelidOpen.end + 5s"
	fill="freeze"
	id="xEyelidClose" />
<animate
	xlink:href="#Eyelid"
	attributeName="cy"
	from="307"
	to="347"
	dur=".08s"
	begin="5s; yEyelidOpen.end + 5s"
	fill="freeze"
	id="yEyelidClose" />
<animate
	xlink:href="#Eyelid"
	attributeName="cx"
	from="402"
	to="442"
	dur=".08s"
	begin="xEyelidClose.end"
	fill="freeze"
	id="xEyelidOpen" />
<animate
	xlink:href="#Eyelid"
	attributeName="cy"
	from="347"
	to="307"
	dur=".08s"
	begin="yEyelidClose.end"
	fill="freeze"
	id="yEyelidOpen" />
<g id="Extras">
	<path id="Nose" fill="#FFFFFF" d="M498.466,363.315c-6.711-10.677,7.578-25.702,7.578-25.702s-8.629-54.032-52.756-83.239
		c-61.01-40.382-115.625-37.768-115.625-37.768s16.301,21.783,20.432,35.993c2.77,9.527,0.971,22.535-1.978,32.622
		c11.03,4.898,42.544,17.574,77.681,63.082c23.58,30.54,79.828,90.232,96.002,109.055c10.939-4.32,23.035-5.55,35.416-3.951
		C543.556,425.283,506.603,376.257,498.466,363.315z"/>
	<path id="Shit_Stroke" fill="#231F20" d="M439.038,301.079c-21.582,0-42.59-2.479-63.548-7.591
		c-20.587-5.021-41.938-11.934-59.073-24.825c-15.555-11.7-25.025-29.012-20.021-48.712c3.882-15.281,16.683-25.219,31.815-28.012
		c1.896-0.35,3.814-0.591,5.738-0.712c2.164-0.137,1.564-2.589,2.014-4.497c0.766-3.258,2.234-6.348,4.406-8.906
		c7.779-9.169,21.645-9.38,32.593-8.06c-0.307-9.45,7.105-17.394,16.577-17.164c-1.133-8.519,1.354-18.421,7.563-24.602
		c5.402-5.377,13.044-7.76,20.423-8.778c9.006-1.243,17.688,0.112,26.659,0.112c7.648,0,11.771-3.674,16.812-8.713
		c-0.682,4.581-0.967,9.492-3.559,13.48c-3.128,4.816-8.552,6.787-13.554,9.031c-3.446,1.547-13.334,5.673-9.271,10.851
		c2.237,2.854,6.332,3.856,9.502,5.287c3.51,1.583,6.996,3.221,10.395,5.031c6.271,3.341,12.623,7.339,16.984,13.069
		c1.967,2.584,3.451,5.535,4.137,8.721c0.486,2.263,7.135,4.637,9.289,6.239c11.736,8.725,16.062,23.54,10.896,37.272
		c13.985,2.662,26.213,14.629,28.532,28.843c1.812,11.106-1.125,25.432-8.334,34.237c-7.901,9.654-20.473,13.849-32.346,15.979
		C469.01,301.289,453.885,301.079,439.038,301.079z"/>
	<path id="Shit" fill="#FFFFFF" d="M358.752,214.665c-12.861-5.656-18.917-16.704-18.917-16.704s-31.954-1.575-33.389,29.015
		c-1.862,39.738,76.741,54.073,96.419,57.103c19.676,3.029,46.686,1.908,46.686,1.908c56.416,0.705,60.443-15.894,62.562-27.071
		c2.114-11.178,0.903-19.381-8.015-27.915c-11.672-11.167-27.526-5.024-43.235-3.335c-17.672,1.899-31.75-1.25-31.75-1.25
		s63.721,5.196,57.801-25.198c-1.973-10.126-8.291-18.947-29.605-14.013c-6.356,1.472-14.049,0.765-14.049,0.765
		s21.547-0.193,21.609-11.855c0.039-7.343-9.418-13.366-24.928-20.367c-15.513-7-17.345-13.24-17.183-16.674
		c0.16-3.435,3.217-6.809,13.521-12.333c0,0-29.619-5.567-35.666,10.925c-5.5,15,0.252,20.558,7.25,23.75
		c-11.58-5.128-22.812-6.198-24.75,3.5c-1.75,8.75,15.047,16.494,34.239,19.449c-23.998-3.119-31.604-5.635-41.578-7.171
		c-9.849-1.516-26.211-2.442-29.473,10.645c-5.188,20.828,45.062,34.328,45.062,34.328S370.736,219.935,358.752,214.665z"/>
</g>
</svg>
