<svg width="2513" height="1885" viewBox="0 0 2513 1885" xmlns="http://www.w3.org/2000/svg"><title>Dribbble</title><g fill="none" fill-rule="evenodd"><path fill="#FFF" d="M0 0h2513v1885H0z"/><path d="M880.586 543.122C772.97 590.922 589.54 1075.745 681.2 1175.21c54.114 58.72 489.264 132.364 586.103 71.98 82.716-51.576 305.43-519.442 257.57-606.488-54.147-98.477-557.055-136.325-644.287-97.58z" fill="#47C4FF"/><path d="M895.45 1358.597c80.292 99.33 639.727 155.405 718.2 31.45 46.33-73.178 1.33-549.752-89.118-634.257-77.257-72.18-629.955-174.173-707.716-99.594-87.973 84.372 13.554 621.887 78.635 702.4z" fill="#0092D8"/><path d="M1395.547 1762.166c25.824 31.948 205.76 49.985 231 10.116 14.9-23.537.427-176.82-28.664-204-24.85-23.217-202.617-56.022-227.628-32.034-28.295 27.137 4.36 200.022 25.292 225.918z" fill="#47C3FF"/><path d="M1457.03 1036.14s102.626-24.938 137.35-86.298c13.845-24.463 5.604-96.425 12.066-152.184 4.62-39.864 25.985-71.452 25.985-71.452l-46.4 14.847M1570.252 753.116s-10.926 12.255-17.17 22.27c-7.058 11.328-18.096 36.19-18.096 36.19M1526.634 828.28s-32.737 54.042-58.92 63.1c-23.986 8.3-33.713-26.29-43.165-11.134-8.9 14.27 4.366 26.747 6.495 51.5 2.6 30.234-11.9 33.66-6.496 59.854 5.403 26.193 31.552 43.614 31.552 43.614" stroke="#000" stroke-width="14" stroke-linecap="round" stroke-linejoin="round"/><path d="M1588.813 807.865c2.94-28.245 30.626-69.596 30.626-69.596s-41.763 17.63-53.828 41.757c-12.065 24.127-44.546 96.507-83.524 120.634-33.87 20.965-42.69-25.982-51.97-9.28-2.842 5.115 17.68 20.702 20.416 38.975 2.988 19.953-14.277 38.027-12.064 57.533 2.38 20.978 12.064 35.262 12.064 35.262s49.134-9.26 73.19-22.27c25.13-13.59 41.607-20.154 58.593-70.525 16.986-50.37 2.32-82.376 6.496-122.49z" stroke="#FFF" stroke-width="11" fill="#FFF"/><path d="M1433.83 989.744c-4.085-18.112 11.136-55.677 11.136-55.677s51.08-1.444 71.575-12.064c21.888-11.34 55.568-53.82 55.568-53.82s-13.663 73.368-9.28 77.02c4.898 4.08 37.122-53.822 37.122-53.822s0 74.237-53.827 98.364c-53.827 24.127-90.95 32.478-90.95 32.478s-18.313-19.04-21.344-32.478z" stroke="#979797" fill="#323232"/><path d="M921.548 951.478c3.327-23.442 16.245-78.386 42.393-123.41 18.26-31.44 49.724-56.068 60.293-70.118 25.398-33.76 62.69-21.188 67.83-23.373 19.782-8.414 198.41 3.802 259.067 23.373 54.276 17.514 85.728 87.882 85.728 87.882s35.013 64.94 42.393 105.646c3.603 19.872-27.318 42.803-21.667 55.16 13.397 29.294 49.773 63.914 72.54 95.36 42.415 58.59 81.96 56.096 70.654 111.256-4.625 22.565-36.805 67.09-70.655 90.686-4.684 3.266-21.87 13.464-44.906 23.22-38.707 16.394-93.926 31.537-134.086 10.437-64.06-33.657-76.906-62.65-137.542-107.515-47.766-35.34-131.446-15.145-189.355-57.03-55.582-40.2-102.685-143.042-102.685-197.267" fill="#323232"/><path d="M1397.636 1090.89c-4.64-4.64-65.154-89.998-96.517-124.345-25.803-28.256-85.382-85.37-85.382-85.37s84.542 9.086 125.287 9.278c24.836.117 71.46-8.35 71.46-8.35l25.057 67.74s-18.32 26.38-14.85 38.045c7.667 25.763 48.26 74.236 48.26 74.236l71.46 93.723s-21.002-5.04-31.555-4.64c-13.885.528-41.762 7.424-41.762 7.424l-46.402-42.685s12.064 12.064-25.057-25.054z" stroke="#FFF" stroke-width="11" stroke-linecap="round" stroke-linejoin="round" fill="#FFF"/><path d="M1231.957 1032.43c37.817 0 70.403-4.822 70.403-4.822s-60.69-93.317-94.514-93.54c-34.64-.23-31.826 35.68-27.968 49.18 3.857 13.5 14.26 49.182 52.08 49.182z" fill="#FFF"/><path d="M1494.152 1256.066c43.823 0 64.964-47.56 64.964-69.596 0-22.038-27.842-25.055-71.46-19.487-43.618 5.567-66.82 32.478-62.18 64.028 4.64 31.552 24.854 25.056 68.676 25.056z" stroke="#979797" fill="#D8D8D8"/><g stroke="#000" stroke-linecap="round" stroke-linejoin="round"><path d="M1036.626 742.91s-29.698 6.494-64.036 50.108c-34.337 43.614-45.474 90.94-45.474 90.94M924.332 902.516l-5.568 31.55" stroke-width="11"/><path d="M916.908 954.482c0 7.423-20.417 40.83 31.553 144.76 12.755 25.506 25.058 52.893 65.892 79.804 40.834 26.91 69.604 25.983 69.604 25.983M1103.445 1209.668c0 1.398 23.447 2.18 47.33 7.424 23.692 5.2 42.69 12.063 51.043 17.63 44.49 29.658 101.287 104.952 155.912 108.57 24.876 1.65 92.37-11.327 140.135-41.756 42.907-27.335 67.747-72.38 67.747-72.38M1411.556 846.84s42.69 87.227 42.69 108.57c0 21.343-26.76 25.124-20.417 39.902 15.006 34.953 79.81 111.354 115.077 152.184 8.513 9.855 18.933 19.326 22.273 25.982 10.497 20.92 0 31.55 0 31.55" stroke-width="14"/></g><g><path d="M1569.477 1314.666c-10.27 4.697-33.41 9.725-55.212 5.975-22.672-3.9-44.075-16.935-57.59-30.79-13.743-14.088-22.372-51.015-19.516-58.828 2.855-7.813 13.506-9.842 16.658-7.813 4.082 2.626 4.517 11.366 9.043 19.3 4.975 8.72 14.157 16.8 21.42 22.52 21.07 16.6 57.742 12.268 68.062-3.71 1.317-2.038 7.465-12.392 7.14-25.243-.33-13.004-7.14-28.494-7.14-28.494s5.918-9.57 12.85-5.056c20.468 13.328 32.843 43.26 32.843 51.933 0 6.882 2.703 45.908-28.558 60.206z" fill="#FFE600"/><path d="M1455.174 1218.948s-39.906-15.775-6.496 54.75c4.294 9.062 22.023 24.357 39.906 31.55 19.903 8.004 39.906 7.423 39.906 7.423M1545.195 1311.743s5.7-.648 11.136-2.784c3.227-1.268 7.426-2.785 7.426-2.785M1542.41 1202.245s4.342-8.22 12.993-5.568c4.184 1.282 11.542 8.172 15.777 13.92 12.993 17.63 15.777 37.117 15.777 37.117s2.045 17.192 0 25.055c-1.977 7.602-12.065 21.342-12.065 21.342" stroke="#000" stroke-width="14" stroke-linecap="round"/><path d="M1455.174 1218.948s16.705 56.605 64.964 48.253c48.258-8.35 22.273-64.955 22.273-64.955" stroke="#000" stroke-width="14"/></g><g><path d="M1046.836 929.427s-76.1 86.3-122.502 103.003c-28.968 10.427-102.073 14.555-140.135 11.135-22.91-2.058-22.274-11.135-22.274-11.135s45.188-71.355 85.38-103.003c34.052-26.813 148.487-72.38 148.487-72.38" stroke="#000" stroke-width="14" stroke-linecap="round" stroke-linejoin="round" fill="#3D3D3D"/><path d="M1044.997 886.254c8.31 3.52 0 18.713 0 18.713S976.682 942.8 960 954.09c-23.04 15.59-19.606 39.664-39.77 48.34-26.84 11.552-127.104 38.986-133.342 31.19-6.238-7.798 48.68-65.293 76.42-89.667 15.148-13.312 118.526-57.7 118.526-57.7s49.38-5.836 63.163 0z" fill="#FFF"/></g><g stroke="#000" stroke-width="14" stroke-linecap="round" stroke-linejoin="round"><path d="M1196.25 937.78s-6.497 16.702 0 37.117c6.496 20.415 14.762 31.763 27.84 41.757 9.207 7.035 22.003 8.653 43.62 6.496 16.158-1.612 18.56-2.784 18.56-2.784M1210.17 927.57s16.705 0 27.842 7.425c26.177 17.45 62.18 70.524 62.18 70.524"/></g><g><path d="M1011.568 923.86S819.463 884.884 786.98 813.432c-32.48-71.452 12.994-145.688 12.994-145.688" stroke="#000" stroke-width="14" stroke-linecap="round" stroke-linejoin="round"/><path d="M816.68 646.402s27.19-28.096 45.473-39.438c24.098-14.95 81.668-39.438 81.668-39.438" stroke="#000" stroke-width="11" stroke-linecap="round" stroke-linejoin="round"/><path d="M965.166 554.535s83.145-38.154 117.862-69.597c24.368-22.07 59.395-90.94 59.395-90.94s9.28 54.75 0 80.733c-9.28 25.984-4.868 42.584-38.05 79.805-47.255 53.006-113.773 96.69-120.646 119.705-8.525 28.547-17.583 21.084 46.402 60.317 25.727 15.775-11.137 191.158-11.137 191.158" stroke="#000" stroke-width="14" stroke-linecap="round" stroke-linejoin="round"/><path d="M981.87 652.434c30.584-32.93 106.412-84.95 124.36-116.458 20.507-36.004 35.265-125.274 35.265-125.274s-21.48 59.803-81.668 103.93c-71.96 52.758-167.648 76.362-216.235 128.058-31.42 33.43-72.865 91.78-52.9 152.184 19.967 60.403 65.51 69.69 104.87 85.372 26.27 10.466 80 30.9 109.51 31.55 18.715.413 9.28-16.703 9.28-16.703s24.884-101.306 12.065-140.12c-1.676-5.076-2.068-9.203-7.424-13.92-7.92-6.973-22.44-14.13-33.41-18.56-18.392-7.423-28.854-42.99-3.712-70.06z" fill="#FFF"/><path d="M838.024 851.48c32.755 21.377 193.078 73.378 193.078 73.378s54.227-32.42 29.786-71.848c-11.635-18.77-130.03-34.394-156.05-54.64-28.74-22.362-36.742-55.716-34.355-71.492 7.976-52.722 144.492-150.396 144.492-150.396s-135.02 55.07-178.795 95.633c-34.69 32.142-49.2 93.992-44.558 118.12 4.64 24.125 17.754 42.545 46.402 61.244z" fill="#323232"/></g><g transform="translate(493 72)"><path d="M369.288 238.348v-11.33c0-1.355-1.1-2.454-2.455-2.454-1.366 0-2.455 1.1-2.455 2.455v11.328h-11.33c-1.355 0-2.454 1.1-2.454 2.455 0 1.366 1.098 2.455 2.454 2.455h11.33v11.33c0 1.355 1.1 2.455 2.455 2.455 1.365 0 2.455-1.1 2.455-2.455v-11.33h11.33c1.355 0 2.454-1.1 2.454-2.455 0-1.365-1.1-2.455-2.455-2.455h-11.33zM865.23 121.988v-8.73c0-1.056-.847-1.904-1.892-1.904-1.054 0-1.894.852-1.894 1.904v8.73h-8.73c-1.056 0-1.904.848-1.904 1.894 0 1.053.852 1.893 1.904 1.893h8.73v8.73c0 1.056.848 1.904 1.894 1.904 1.053 0 1.893-.853 1.893-1.905v-8.73h8.73c1.057 0 1.905-.848 1.905-1.893 0-1.054-.852-1.894-1.904-1.894h-8.73zM749.927 326.363v-11.977c0-1.432-1.162-2.594-2.595-2.594-1.444 0-2.596 1.16-2.596 2.594v11.977H732.76c-1.433 0-2.595 1.162-2.595 2.596 0 1.442 1.16 2.594 2.594 2.594h11.976v11.977c0 1.434 1.162 2.596 2.596 2.596 1.443 0 2.595-1.162 2.595-2.595v-11.976h11.977c1.433 0 2.595-1.162 2.595-2.595 0-1.445-1.163-2.597-2.596-2.597h-11.977z" fill="#0092D8"/><path d="M308.404 439.347v-8.73c0-1.056-.848-1.903-1.894-1.903-1.054 0-1.894.852-1.894 1.903v8.73h-8.73c-1.056 0-1.904.848-1.904 1.894 0 1.054.853 1.895 1.904 1.895h8.73v8.73c0 1.055.848 1.903 1.894 1.903 1.053 0 1.894-.852 1.894-1.904v-8.73h8.73c1.055 0 1.903-.847 1.903-1.893 0-1.052-.852-1.893-1.904-1.893h-8.73z" fill="#FFE600"/><ellipse stroke="#47C3FF" stroke-width="11" cx="472.166" cy="58.461" rx="21.345" ry="21.343"/><ellipse stroke="#FF006F" stroke-width="6" cx="214.633" cy="599.921" rx="12.529" ry="12.527"/><ellipse stroke="#FFE600" stroke-width="6" cx="1067.508" cy="416.186" rx="12.529" ry="12.527"/><path d="M564.547 300.552l6.81-11.795c.814-1.41.33-3.215-1.08-4.03-1.41-.814-3.217-.332-4.032 1.08l-6.81 11.794-11.794-6.81c-1.41-.813-3.215-.33-4.03 1.082-.813 1.408-.33 3.216 1.08 4.03l11.795 6.81-6.81 11.794c-.815 1.41-.33 3.216 1.08 4.03 1.41.814 3.217.333 4.03-1.078l6.81-11.795 11.795 6.81c1.41.814 3.216.33 4.03-1.08.814-1.41.333-3.217-1.08-4.032l-11.793-6.808z" fill="#FFE600"/><path d="M948.312 442.656l3.715-6.435c.44-.76.176-1.744-.593-2.188-.774-.447-1.75-.184-2.192.58l-3.715 6.436-6.435-3.715c-.76-.44-1.745-.176-2.19.593-.446.774-.183 1.75.582 2.192l6.435 3.715-3.716 6.435c-.44.76-.176 1.745.593 2.19.774.446 1.75.183 2.192-.582l3.714-6.435 6.435 3.717c.76.44 1.744.176 2.188-.594.447-.774.184-1.75-.58-2.192l-6.436-3.714z" fill="#47C3FF"/><path d="M139.408 236.153l4.15-7.19c.502-.87.207-1.97-.654-2.467-.867-.5-1.965-.2-2.465.667l-4.152 7.19-7.19-4.152c-.868-.5-1.97-.206-2.467.656-.5.867-.197 1.965.67 2.465l7.188 4.15-4.15 7.19c-.503.87-.208 1.97.653 2.47.87.5 1.966.197 2.466-.67l4.15-7.188 7.19 4.15c.87.503 1.97.208 2.468-.654.5-.867.2-1.965-.667-2.464l-7.19-4.15z" fill="#FFE600"/><path d="M176.956 741.525v-14.567c0-1.743-1.414-3.156-3.157-3.156-1.74 0-3.157 1.413-3.157 3.156v14.567h-14.567c-1.743 0-3.156 1.413-3.156 3.156 0 1.74 1.413 3.157 3.156 3.157h14.567v14.567c0 1.743 1.413 3.156 3.156 3.156 1.74 0 3.156-1.413 3.156-3.156v-14.567h14.566c1.743 0 3.156-1.413 3.156-3.156 0-1.74-1.413-3.155-3.156-3.155h-14.566z" fill="#0092D8"/><g fill="#FF006F"><path d="M859.784 446.912l5.895-10.21c.704-1.222.286-2.785-.937-3.49-1.23-.71-2.784-.288-3.49.934l-5.895 10.21-10.21-5.895c-1.222-.704-2.785-.285-3.49.937-.71 1.23-.288 2.785.934 3.49l10.21 5.896-5.894 10.21c-.706 1.222-.287 2.784.935 3.49 1.23.71 2.785.287 3.49-.934l5.896-10.212 10.21 5.895c1.22.705 2.784.287 3.49-.936.71-1.23.287-2.785-.935-3.49l-10.21-5.895zM295.613 19.025l5.697-3.29c.674-.388.907-1.26.514-1.94-.396-.686-1.26-.917-1.938-.526l-5.697 3.288-3.29-5.697c-.39-.673-1.26-.906-1.94-.513-.687.396-.917 1.26-.527 1.938l3.29 5.697-5.697 3.29c-.674.388-.908 1.26-.514 1.94.396.686 1.26.917 1.938.526l5.697-3.29 3.29 5.698c.388.674 1.26.907 1.94.514.686-.396.916-1.26.525-1.938l-3.29-5.697zM148.988 452.943l5.04-8.728c.602-1.044.244-2.38-.8-2.983-1.053-.607-2.38-.246-2.984.8l-5.04 8.726-8.727-5.04c-1.044-.6-2.38-.243-2.983.8-.607 1.053-.246 2.382.8 2.985l8.726 5.04-5.04 8.727c-.6 1.044-.243 2.38.8 2.983 1.053.607 2.382.245 2.985-.8l5.04-8.727 8.727 5.04c1.044.602 2.38.244 2.983-.8.607-1.053.245-2.38-.8-2.984l-8.727-5.04z"/></g><g fill="#F8E81C"><g transform="translate(97.597 515.877)"><ellipse cx="20.455" cy="2.51" rx="2.394" ry="2.383"/><ellipse cx="20.455" cy="38.467" rx="2.394" ry="2.383"/><ellipse cx="38.517" cy="20.489" rx="2.394" ry="2.383"/><ellipse cx="2.394" cy="20.055" rx="2.394" ry="2.383"/></g><g transform="rotate(-45 692.47 161.012)"><ellipse cx="20.611" cy="2.671" rx="2.394" ry="2.511"/><ellipse cx="20.611" cy="38.629" rx="2.394" ry="2.511"/><ellipse cx="38.673" cy="20.65" rx="2.394" ry="2.511"/><ellipse cx="2.55" cy="20.217" rx="2.394" ry="2.511"/></g><g><g transform="rotate(-22 1396.394 28.257)"><ellipse cx="20.72" cy="2.773" rx="2.394" ry="2.455"/><ellipse cx="20.72" cy="38.73" rx="2.394" ry="2.455"/><ellipse cx="38.782" cy="20.751" rx="2.394" ry="2.455"/><ellipse cx="2.659" cy="20.318" rx="2.394" ry="2.455"/></g><g transform="rotate(-67 459.347 205.163)"><ellipse cx="20.662" cy="2.81" rx="2.394" ry="2.566"/><ellipse cx="20.662" cy="38.768" rx="2.394" ry="2.566"/><ellipse cx="38.723" cy="20.789" rx="2.394" ry="2.566"/><ellipse cx="2.6" cy="20.356" rx="2.394" ry="2.566"/></g></g></g><g fill="#F8E81C"><g transform="translate(246.084 1000.267)"><ellipse cx="20.455" cy="2.51" rx="2.394" ry="2.383"/><ellipse cx="20.455" cy="38.467" rx="2.394" ry="2.383"/><ellipse cx="38.517" cy="20.489" rx="2.394" ry="2.383"/><ellipse cx="2.394" cy="20.055" rx="2.394" ry="2.383"/></g><g transform="rotate(-45 1351.426 223.967)"><ellipse cx="20.611" cy="2.671" rx="2.394" ry="2.511"/><ellipse cx="20.611" cy="38.629" rx="2.394" ry="2.511"/><ellipse cx="38.673" cy="20.65" rx="2.394" ry="2.511"/><ellipse cx="2.55" cy="20.217" rx="2.394" ry="2.511"/></g><g><g transform="rotate(-22 2716.624 -111.5)"><ellipse cx="20.72" cy="2.773" rx="2.394" ry="2.455"/><ellipse cx="20.72" cy="38.73" rx="2.394" ry="2.455"/><ellipse cx="38.782" cy="20.751" rx="2.394" ry="2.455"/><ellipse cx="2.659" cy="20.318" rx="2.394" ry="2.455"/></g><g transform="rotate(-67 899.508 335.188)"><ellipse cx="20.662" cy="2.81" rx="2.394" ry="2.566"/><ellipse cx="20.662" cy="38.768" rx="2.394" ry="2.566"/><ellipse cx="38.723" cy="20.789" rx="2.394" ry="2.566"/><ellipse cx="2.6" cy="20.356" rx="2.394" ry="2.566"/></g></g></g><g fill="#F8E81C"><g transform="translate(881.796 300.592)"><ellipse cx="20.455" cy="2.51" rx="2.394" ry="2.383"/><ellipse cx="20.455" cy="38.467" rx="2.394" ry="2.383"/><ellipse cx="38.517" cy="20.489" rx="2.394" ry="2.383"/><ellipse cx="2.394" cy="20.055" rx="2.394" ry="2.383"/></g><g transform="rotate(-45 824.7 -893.242)"><ellipse cx="20.611" cy="2.671" rx="2.394" ry="2.511"/><ellipse cx="20.611" cy="38.629" rx="2.394" ry="2.511"/><ellipse cx="38.673" cy="20.65" rx="2.394" ry="2.511"/><ellipse cx="2.55" cy="20.217" rx="2.394" ry="2.511"/></g><g><g transform="rotate(-22 1234.72 -2096.563)"><ellipse cx="20.72" cy="2.773" rx="2.394" ry="2.455"/><ellipse cx="20.72" cy="38.73" rx="2.394" ry="2.455"/><ellipse cx="38.782" cy="20.751" rx="2.394" ry="2.455"/><ellipse cx="2.659" cy="20.318" rx="2.394" ry="2.455"/></g><g transform="rotate(-67 688.817 -494.877)"><ellipse cx="20.662" cy="2.81" rx="2.394" ry="2.566"/><ellipse cx="20.662" cy="38.768" rx="2.394" ry="2.566"/><ellipse cx="38.723" cy="20.789" rx="2.394" ry="2.566"/><ellipse cx="2.6" cy="20.356" rx="2.394" ry="2.566"/></g></g></g><g fill="#FF006F"><g transform="translate(18.713 692.187)"><ellipse cx="20.455" cy="2.51" rx="2.394" ry="2.383"/><ellipse cx="20.455" cy="38.467" rx="2.394" ry="2.383"/><ellipse cx="38.517" cy="20.489" rx="2.394" ry="2.383"/><ellipse cx="2.394" cy="20.055" rx="2.394" ry="2.383"/></g><g transform="rotate(-45 865.855 344.39)"><ellipse cx="20.611" cy="2.671" rx="2.394" ry="2.511"/><ellipse cx="20.611" cy="38.629" rx="2.394" ry="2.511"/><ellipse cx="38.673" cy="20.65" rx="2.394" ry="2.511"/><ellipse cx="2.55" cy="20.217" rx="2.394" ry="2.511"/></g><g><g transform="rotate(-22 1810.472 319.324)"><ellipse cx="20.72" cy="2.773" rx="2.394" ry="2.455"/><ellipse cx="20.72" cy="38.73" rx="2.394" ry="2.455"/><ellipse cx="38.782" cy="20.751" rx="2.394" ry="2.455"/><ellipse cx="2.659" cy="20.318" rx="2.394" ry="2.455"/></g><g transform="rotate(-67 553.093 352.91)"><ellipse cx="20.662" cy="2.81" rx="2.394" ry="2.566"/><ellipse cx="20.662" cy="38.768" rx="2.394" ry="2.566"/><ellipse cx="38.723" cy="20.789" rx="2.394" ry="2.566"/><ellipse cx="2.6" cy="20.356" rx="2.394" ry="2.566"/></g></g></g><g fill="#FF006F"><g transform="translate(991.85 219.924)"><ellipse cx="34.413" cy="4.281" rx="4.027" ry="4.065"/><ellipse cx="34.413" cy="65.621" rx="4.027" ry="4.065"/><ellipse cx="64.8" cy="34.951" rx="4.027" ry="4.065"/><ellipse cx="4.027" cy="34.212" rx="4.027" ry="4.065"/></g><g transform="rotate(-45 796.65 -1051.68)"><ellipse cx="34.676" cy="4.557" rx="4.027" ry="4.283"/><ellipse cx="34.676" cy="65.897" rx="4.027" ry="4.283"/><ellipse cx="65.062" cy="35.227" rx="4.027" ry="4.283"/><ellipse cx="4.289" cy="34.488" rx="4.027" ry="4.283"/></g><g><g transform="rotate(-22 1096.31 -2404.915)"><ellipse cx="34.859" cy="4.73" rx="4.027" ry="4.187"/><ellipse cx="34.859" cy="66.069" rx="4.027" ry="4.187"/><ellipse cx="65.245" cy="35.4" rx="4.027" ry="4.187"/><ellipse cx="4.473" cy="34.661" rx="4.027" ry="4.187"/></g><g transform="rotate(-67 697.13 -603.56)"><ellipse cx="34.76" cy="4.793" rx="4.027" ry="4.378"/><ellipse cx="34.76" cy="66.133" rx="4.027" ry="4.378"/><ellipse cx="65.146" cy="35.463" rx="4.027" ry="4.378"/><ellipse cx="4.374" cy="34.724" rx="4.027" ry="4.378"/></g></g></g><g fill="#0092D8"><g transform="translate(267.953 322.613)"><ellipse cx="12.995" cy="1.594" rx="1.521" ry="1.514"/><ellipse cx="12.995" cy="24.438" rx="1.521" ry="1.514"/><ellipse cx="24.47" cy="13.016" rx="1.521" ry="1.514"/><ellipse cx="1.521" cy="12.741" rx="1.521" ry="1.514"/></g><g transform="rotate(-45 536.717 -148.873)"><ellipse cx="13.094" cy="1.697" rx="1.521" ry="1.595"/><ellipse cx="13.094" cy="24.541" rx="1.521" ry="1.595"/><ellipse cx="24.569" cy="13.119" rx="1.521" ry="1.595"/><ellipse cx="1.62" cy="12.844" rx="1.521" ry="1.595"/></g><g><g transform="rotate(-22 976.925 -514.37)"><ellipse cx="13.164" cy="1.761" rx="1.521" ry="1.559"/><ellipse cx="13.164" cy="24.605" rx="1.521" ry="1.559"/><ellipse cx="24.638" cy="13.183" rx="1.521" ry="1.559"/><ellipse cx="1.689" cy="12.908" rx="1.521" ry="1.559"/></g><g transform="rotate(-67 390.927 -27.8)"><ellipse cx="13.126" cy="1.785" rx="1.521" ry="1.63"/><ellipse cx="13.126" cy="24.629" rx="1.521" ry="1.63"/><ellipse cx="24.601" cy="13.207" rx="1.521" ry="1.63"/><ellipse cx="1.652" cy="12.932" rx="1.521" ry="1.63"/></g></g></g><g fill="#0092D8"><g transform="translate(670.89 158.12)"><ellipse cx="23.206" cy="2.847" rx="2.716" ry="2.703"/><ellipse cx="23.206" cy="43.64" rx="2.716" ry="2.703"/><ellipse cx="43.696" cy="23.243" rx="2.716" ry="2.703"/><ellipse cx="2.716" cy="22.752" rx="2.716" ry="2.703"/></g><g transform="rotate(-45 550.083 -707.084)"><ellipse cx="23.383" cy="3.031" rx="2.716" ry="2.848"/><ellipse cx="23.383" cy="43.823" rx="2.716" ry="2.848"/><ellipse cx="43.873" cy="23.427" rx="2.716" ry="2.848"/><ellipse cx="2.892" cy="22.935" rx="2.716" ry="2.848"/></g><g><g transform="rotate(-22 765.56 -1622.417)"><ellipse cx="23.506" cy="3.145" rx="2.716" ry="2.785"/><ellipse cx="23.506" cy="43.938" rx="2.716" ry="2.785"/><ellipse cx="43.996" cy="23.542" rx="2.716" ry="2.785"/><ellipse cx="3.016" cy="23.05" rx="2.716" ry="2.785"/></g><g transform="rotate(-67 478.54 -403.974)"><ellipse cx="23.44" cy="3.188" rx="2.716" ry="2.911"/><ellipse cx="23.44" cy="43.98" rx="2.716" ry="2.911"/><ellipse cx="43.93" cy="23.584" rx="2.716" ry="2.911"/><ellipse cx="2.949" cy="23.092" rx="2.716" ry="2.911"/></g></g></g></g><g><path d="M1464.397 737.997c-6.448-24.26-25.87-26.026-40.24-62.278-9.155-23.09-32.397-30.343-51.552-52.893-6.813-8.02-49.714-50.16-68.214-51.215-14.423-.823-27.985 4.836-32.575 0-3.435-3.62-1.18-5.528 0-10.225 2.108-8.386 6.08-20.123 5.75-26.956-.976-20.167-10.54-32.533-10.54-32.533s-72.998 53.54-95.813 80.87c-16.267 19.485-48.992 29.645-66.11 55.77-16.042 24.483-35.492 51.842-42.158 73.434-5.99 19.408 0 34.393 0 34.393s11.14 26.936 34.493 51.124c24.482 25.36 61.808 48.093 88.147 51.124 16.732 1.927 32.7 7.95 55.57 12.085 34.707 6.273 78.88 9.724 114.975 0 30.46-8.206 63.232-22.527 82.398-39.04 15.103-13.013 20.12-29.745 20.12-29.745s13.42-25.048 5.75-53.913z" fill="#9A662F"/><path d="M1373.533 623.72c-19.69-21.088-39.902-46.99-50.938-51.18-44.073-16.73-44.633 5.65-55.57-3.717-5.036-4.31 13.524-34.515 11.497-45.547-2.113-11.495-11.498-23.238-11.498-23.238s-15.225 44.336-24.91 55.772c-12.352 14.582-49.823 65.067-74.734 133.852-6.41 17.7-10.54 52.053 0 91.094 10.54 39.04 22.38 76.885 32.576 80.85 61.008 23.724 165.755 7.436 165.755 7.436s40.48-6.58 68.985-31.604c15.44-13.555 22.734-39.95 28.744-56.7 4.994-13.924 2.16-48.713-9.582-63.19-10.977-13.532-30.843-18.007-28.744-27.886 1.73-8.148-24.152-36.57-51.58-65.943z" fill="#815423"/><g stroke="#000" stroke-linecap="round" stroke-linejoin="round"><path d="M1252.843 474.876c0 14.83-9.994 36.754-57.79 62.67-23.115 12.535-30.925 23.25-30.925 23.25M1151.712 575.15c-10.595 13.497-5.56 49.834 13.484 70.383 24.52 26.455 75.126 47.244 111.726 47.244 36.6 0 54.9-8.678 71.273-25.068 6.785-6.794 12.52-15.428 15.41-26.034 2.89-10.606 0-19.283-2.89-32.78-3.083-14.405-14.424-32.86-42.378-45.317-20.966-9.345-53.936-5.786-53.936-5.786h-8.87" stroke-width="14"/><path d="M1249.953 600.217s43.342-2.892 30.82 5.785c-12.52 8.678-30.2-.038-34.672-7.713-6.74-11.57 0-24.105 6.743-36.64 5.025-9.342 19.263-28.924 14.447-49.172-2.67-11.223-14.447-41.46-14.447-41.46M1098.74 690.848c12.52 22.176 34.084 41.42 54.898 54.958 22.226 14.455 41.416 24.104 67.42 30.853 19.52 5.065 48.8 10.178 77.053 9.64 30.607-.58 60.063-7.366 76.09-16.39 30.82-17.355 33.71-29.89 39.49-42.423 3.24-7.03 9.75-38.904 0-62.67-10.617-25.88-30.998-35.856-30.998-35.856" stroke-width="14"/><path d="M1144.97 592.504s-19.263 6.75-28.894 13.498c-9.632 6.75-18.3 18.32-18.3 18.32" stroke-width="11"/><path d="M1142.728 594.505s-17.02 4.748-26.652 11.497c-9.632 6.75-17.372 17.39-17.372 17.39M1089.142 638.71c-2.398 4.204-3.12 8.27-2.924 17.91.196 9.642 3.888 18.874 3.888 18.874" stroke-width="14"/><path d="M1086.218 655.174s-15.534 6.988-24.08 21.212c-8.46 14.084-12.52 25.565-12.52 47.244 0 23.14 13.106 40.66 22.153 53.993 7.506 11.063 24.174 27.07 32.748 33.746 8.668 6.748 23.115 17.354 45.268 26.996 22.152 9.64 53.936 17.355 53.936 17.355M1220.954 858.613s15.515 4.34 18.405 2.893M1257.66 864.398s6.74 1.928 22.15 1.928c34.674 0 60.456-6.197 67.42-7.713 12.854-2.797 29.73-6.5 48.576-16.266 10.237-5.305 25.973-15.935 36.183-27.12 8.585-9.41 12.257-19.157 15.41-26.998 5.696-14.174 8.884-31.596 7.704-44.352-1.77-19.134-9.73-34.17-18.3-43.388-6.574-7.07-14.447-10.606-14.447-10.606" stroke-width="14"/></g></g><g stroke-linecap="round" stroke="#FFF" stroke-width="11"><path d="M965.166 1038.925s7.123 29.334 32.054 63.113c24.93 33.78 41.85 46.223 41.85 46.223M1050.644 1158.04l14.246 8.89M1079.137 1173.15s2.67 3.557 24.93 8.89c22.26 5.333 57.877 8.89 57.877 8.89M1177.97 1194.485s16.734 2.964 37.398 13.333c15.473 7.765 33.436 26.674 65 53.335 12.82 10.83 36.505 32 44.52 37.334 18.835 12.537 31.003 13.776 43.628 14.223 20.287.72 35.616-5.333 35.616-5.333"/><g><path d="M1254.716 509.993s-42.413 35.078-54.754 45.47c-13.31 11.208-34.646 35.136-39.906 41.757M1135.926 610.212s-8.352 8.35-19.488 20.415c-11.137 12.063-18.56 27.838-18.56 27.838M1080.244 679.808s-6.497 6.496-12.993 24.127c-6.495 17.63-3.71 32.478-3.71 32.478"/></g></g><g><path d="M888.605 1595.964c11.44-10.673 24.212-16.01 38.32-16.01 15.557 0 28.216 5.376 37.977 16.125 10.676 11.586 16.014 27.748 16.014 48.484 0 23.327-7.32 42.233-21.962 56.718-13.803 13.493-30.123 20.24-48.96 20.24-12.276 0-24.516-2.782-36.717-8.348-3.966-1.753-7.36-3.773-10.18-6.06V1550.68c0-5.26-.534-8.65-1.602-10.176-1.602-2.44-4.423-3.66-8.465-3.66-1.83 0-3.546.172-5.147.515-1.602.342-2.707.342-3.317 0-.61-.344-1.144-.82-1.602-1.43-1.6-2.44.305-5.64 5.72-9.606 8.388-6.175 16.662-9.262 24.822-9.262 8.693 0 13.574 4.688 14.64 14.065.306 2.82.46 5.794.46 8.92v55.917zm0 18.182v80.16c7.168 5.947 15.747 8.92 25.737 8.92 11.82 0 21.43-4.384 28.826-13.15 7.855-9.3 11.782-22.07 11.782-38.308 0-17.077-3.47-29.922-10.41-38.537-6.176-7.85-14.813-11.777-25.908-11.777-11.096 0-21.105 4.23-30.027 12.693zm130.66 3.43c0-4.345-.325-7.832-.973-10.462-.648-2.63-1.964-3.946-3.946-3.946-1.45 0-2.593.153-3.432.458l-2.745 1.143c-.535.152-1.183-.153-1.946-.915-1.45-1.6-2.173-3.07-2.173-4.403 0-1.334.44-2.744 1.316-4.23.877-1.488 2.212-3.184 4.004-5.09 1.792-1.905 3.832-3.583 6.12-5.03 5.185-3.432 9.875-5.147 14.07-5.147 4.193 0 7.168.724 8.92 2.173 1.755 1.448 3.09 3.354 4.005 5.717 1.525 3.812 2.288 9.568 2.288 17.267v71.584c0 12.884 3.89 20.088 11.667 21.613 2.364.456 5.167.685 8.408.685 3.24 0 6.71-.42 10.41-1.258 3.698-.84 7.225-1.944 10.58-3.316 6.482-2.667 12.2-6.06 17.158-10.176v-66.667c0-7.243-1.296-11.702-3.89-13.38-1.066-.685-2.477-1.03-4.23-1.03-1.755 0-3.147.268-4.176.802-1.03.533-1.87.914-2.517 1.142-.648.23-1.2.21-1.66-.057-.456-.267-.952-.667-1.486-1.2-1.143-1.296-1.715-2.592-1.715-3.888 0-1.296.476-2.688 1.43-4.174.953-1.487 2.497-3.202 4.632-5.146s4.576-3.716 7.32-5.317c6.178-3.583 12.355-5.375 18.532-5.375 7.473 0 11.744 5.298 12.81 15.895.306 2.973.46 6.06.46 9.262v67.696c0 11.74.456 19.06 1.372 21.956.915 2.897 2.02 4.784 3.317 5.66 1.296.877 2.898 1.315 4.804 1.315 1.906 0 3.47-.306 4.69-.915l3.43-1.487c.992-.23 1.87.23 2.632 1.372 1.6 2.363 1.83 4.498.686 6.404-1.144 1.906-2.917 3.735-5.32 5.49-2.4 1.752-5.09 3.277-8.064 4.573-13.192 5.794-22.572 5.68-28.14-.343-2.897-3.126-4.536-8.08-4.918-14.866-11.21 8.615-22.687 14.56-34.43 17.84-4.27 1.142-8.75 1.714-13.44 1.714-4.69 0-9.266-.648-13.728-1.944-4.46-1.296-8.33-3.392-11.61-6.29-7.016-6.174-10.524-15.703-10.524-28.587v-67.123zm173.554 101.773c-11.668 0-17.502-2.67-17.502-8.005 0-2.82.572-4.955 1.716-6.404 1.83.61 3.546.916 5.147.916 6.636 0 10.067-4.002 10.296-12.007v-143.17c0-5.335-.534-8.728-1.6-10.176-1.755-2.44-4.577-3.66-8.466-3.66-1.754 0-3.45.172-5.09.515-1.64.342-2.784.342-3.432 0-.648-.344-1.163-.82-1.544-1.43-1.525-2.516.38-5.718 5.72-9.606 8.388-6.175 16.662-9.262 24.82-9.262 8.695 0 13.575 4.688 14.643 14.065.305 2.82.458 5.794.458 8.92v154.26c.228 5.946 2.402 9.605 6.52 10.977 1.22.38 2.65.724 4.29 1.03 1.64.304 3.145.666 4.518 1.086 1.372.42 2.44.895 3.202 1.43 1.297.99 1.945 2.59 1.945 4.802 0 2.668-.61 4.765-1.83 6.29-1.525-.382-3.966-.573-7.32-.573h-36.49zm88.335 0c-11.668 0-17.5-2.67-17.5-8.005 0-2.82.57-4.955 1.714-6.404 1.83.61 3.546.916 5.147.916 6.634 0 10.066-4.002 10.295-12.007v-143.17c0-5.335-.534-8.728-1.602-10.176-1.754-2.44-4.575-3.66-8.464-3.66-1.754 0-3.45.172-5.09.515-1.64.342-2.784.342-3.432 0-.648-.344-1.163-.82-1.544-1.43-1.526-2.516.38-5.718 5.72-9.606 8.387-6.175 16.66-9.262 24.82-9.262 8.695 0 13.575 4.688 14.643 14.065.305 2.82.457 5.794.457 8.92v154.26c.23 5.946 2.403 9.605 6.52 10.977 1.22.38 2.65.724 4.29 1.03 1.64.304 3.146.666 4.518 1.086 1.373.42 2.44.895 3.203 1.43 1.298.99 1.946 2.59 1.946 4.802 0 2.668-.61 4.765-1.83 6.29-1.526-.382-3.966-.573-7.32-.573h-36.49z" fill="#0092D8"/><g fill="#000"><path d="M1626.806 1641.362l-.114 30.074c0 12.58.648 20.145 1.944 22.7 1.297 2.553 2.822 4.078 4.576 4.573 1.754.495 4.003.742 6.75.742 2.744 0 5.242-.21 7.49-.63 2.25-.418 4.367-.97 6.35-1.657 1.982-.686 3.89-1.448 5.72-2.287l5.604-2.4c1.297-.46 2.745.876 4.347 4 .457.84.686 1.812.686 2.917 0 1.106-.458 2.535-1.373 4.288-.916 1.754-2.69 3.755-5.32 6.004-2.63 2.25-5.7 4.25-9.208 6.003-7.627 3.888-14.47 5.832-20.533 5.832-6.063 0-11-.343-14.814-1.03-3.813-.685-7.054-2.057-9.723-4.116-5.49-4.27-8.236-12.083-8.236-23.442v-89.994h-11.324c-2.364 0-4.08-.763-5.147-2.287-1.83-2.364-2.746-4.346-2.746-5.947 0-2.668.648-4.154 1.945-4.46 12.125-2.058 20.704-11.053 25.737-26.986 1.448-4.803 2.592-10.482 3.43-17.04 3.66-.608 6.426-.913 8.294-.913 1.868 0 3.49.953 4.86 2.858 1.374 1.906 2.04 4.117 2.003 6.633-.038 2.516-.095 4.88-.17 7.09-.078 2.21-.154 4.612-.23 7.204l-.458 16.01h39.578c.99 1.752 1.487 3.62 1.487 5.602v3.545c0 3.2-1.716 5.812-5.148 7.832-3.432 2.02-7.225 3.03-11.38 3.03-4.158 0-7.132-.057-8.924-.17-1.792-.115-3.527-.25-5.204-.4l-5.034-.687c-1.754-.153-3.623-.305-5.606-.458v1.258l-.114 36.707zM1518.567 1719.35c-11.744 0-17.616-2.67-17.616-8.005 0-2.745.61-4.88 1.83-6.404 1.83.61 3.51.916 5.034.916 7.092 0 10.562-4.498 10.41-13.493v-76.616c0-5.336-.744-9.053-2.23-11.15-1.488-2.096-4.138-3.144-7.95-3.144-2.823 0-5.377.343-7.665 1.03-1.374.152-2.365-.915-2.975-3.202-.534-2.058-.23-3.868.915-5.43 1.144-1.564 2.917-3.203 5.32-4.918 2.4-1.716 5.05-3.22 7.95-4.517 6.252-2.973 11.476-4.46 15.67-4.46 4.194 0 7.302.61 9.323 1.83 2.02 1.22 3.565 2.86 4.633 4.917 1.677 3.354 2.516 8.767 2.516 16.238v91.367c.23 6.022 2.402 9.68 6.52 10.977 1.144.38 2.555.724 4.233 1.03 1.677.304 3.183.666 4.518 1.086 1.334.42 2.383.895 3.146 1.43 1.295.99 1.943 2.59 1.943 4.802 0 2.744-.572 4.84-1.716 6.29-1.6-.382-4.04-.573-7.32-.573h-36.49zM1393.512 1673.723c-2.897 2.897-4.346 5.718-4.346 8.462 0 2.745.8 4.822 2.402 6.232 1.6 1.41 3.698 2.497 6.29 3.26 3.967 1.067 8.35 1.6 13.156 1.6h9.837c24.862 0 41.22 5.947 49.074 17.84 2.897 4.42 4.346 9.814 4.346 16.18 0 6.365-1.067 11.95-3.203 16.752-2.135 4.802-4.994 9.052-8.58 12.75-3.583 3.697-7.74 6.88-12.467 9.548-4.728 2.668-9.723 4.84-14.985 6.518-10.295 3.43-19.903 5.146-28.826 5.146-8.923 0-16.72-.705-23.393-2.116-6.673-1.41-12.602-3.602-17.787-6.575-11.21-6.48-16.815-15.78-16.815-27.9 0-10.292 5.147-19.517 15.442-27.674 3.127-2.44 6.444-4.612 9.952-6.518-4.12-3.43-6.178-8.042-6.178-13.836 0-9.072 4.5-16.696 13.498-22.87-13.193-5.032-21.848-14.028-25.966-26.988-1.297-4.27-1.945-9.033-1.945-14.293s.82-10.215 2.458-14.865c1.64-4.65 3.89-8.805 6.75-12.464 2.86-3.66 6.195-6.86 10.008-9.605 3.813-2.744 7.893-5.03 12.24-6.86 8.54-3.66 17.5-5.49 26.88-5.49 15.48 0 27.835 3.888 37.063 11.664.99-3.813 1.486-7.74 1.486-11.78 0-4.04-.877-7.318-2.63-9.833 2.973-3.507 7.396-5.26 13.268-5.26 3.355 0 6.024.914 8.007 2.744 3.814 3.28 5.72 6.538 5.72 9.778s-.495 6.06-1.487 8.462c-.99 2.4-2.287 4.67-3.89 6.804-2.82 3.964-6.48 7.547-10.98 10.75 3.05 5.716 4.575 12.33 4.575 19.84 0 7.508-1.658 14.483-4.976 20.925-3.317 6.44-7.76 11.91-13.326 16.41-11.44 9.223-25.546 13.835-42.323 13.835-2.288 0-5.07-.19-8.35-.572zm-5.49 40.252c-9.99 6.785-14.985 14.484-14.985 23.1 0 7.47 4.347 13.15 13.04 17.037 6.94 3.202 15.48 4.803 25.623 4.803 9.227 0 17.768-1.525 25.623-4.574 10.295-4.04 15.442-10.634 15.442-19.782 0-12.274-9.95-18.41-29.855-18.41l-10.18.114c-10.372 0-18.608-.762-24.708-2.287zm9.265-58.662c3.508 1.296 7.264 1.944 11.267 1.944 4.004 0 7.78-.572 11.325-1.716 3.545-1.142 6.614-2.82 9.207-5.03 5.567-4.727 8.35-11.435 8.35-20.126 0-9.605-2.478-17.61-7.435-24.014-5.643-7.09-13.574-10.634-23.793-10.634-12.888 0-21.24 5.26-25.052 15.78-1.296 3.583-1.944 8.005-1.944 13.265s.782 9.988 2.345 14.18c1.562 4.193 3.697 7.643 6.405 10.35 2.707 2.706 5.814 4.707 9.322 6.003zM1525.544 1558.686c-2.592 0-4.975-.4-7.15-1.2-2.172-.8-4.06-1.964-5.66-3.49-3.356-3.2-5.034-7.508-5.034-12.92 0-5.184 1.983-9.568 5.948-13.15 3.813-3.584 8.39-5.375 13.727-5.375 5.338 0 9.608 1.602 12.81 4.803 3.204 3.202 4.805 7.548 4.805 13.037 0 5.183-1.906 9.567-5.72 13.15-3.736 3.43-8.31 5.146-13.726 5.146z"/></g></g></g></svg>