<svg xmlns="http://www.w3.org/2000/svg" viewBox="0 0 1158.446 1713.013">
  <g fill="none" fill-rule="evenodd">
    <path fill="#47c4ff" d="M368.873 460.983c-107.616 47.8-291.046 532.623-199.386 632.088 54.114 58.72 489.264 132.37 586.103 71.98 82.716-51.57 305.43-519.44 257.57-606.48-54.147-98.47-557.055-136.32-644.287-97.58z" />
    <path fill="#0092d8" d="M383.737 1276.458c80.292 99.33 639.727 155.405 718.2 31.45 46.33-73.178 1.33-549.752-89.118-634.257-77.26-72.18-629.96-174.17-707.72-99.59-87.98 84.37 13.55 621.89 78.63 702.4z" />
    <path fill="#47c3ff" d="M883.834 1680.027c25.824 31.948 205.76 49.985 231 10.116 14.9-23.537.427-176.82-28.664-204-24.85-23.217-202.617-56.022-227.628-32.034-28.295 27.13 4.36 200.02 25.292 225.91z" />
    <path stroke="#000" stroke-width="14" d="M945.317 954s102.626-24.937 137.35-86.297c13.845-24.463 5.604-96.425 12.066-152.184 4.62-39.87 25.985-71.46 25.985-71.46l-46.4 14.84m-15.77 12.062s-10.92 12.255-17.17 22.27c-7.06 11.33-18.09 36.19-18.09 36.19m-8.35 16.704s-32.73 54.042-58.92 63.1c-23.98 8.3-33.71-26.29-43.16-11.134-8.9 14.27 4.37 26.75 6.5 51.5 2.6 30.236-11.9 33.66-6.49 59.856 5.4 26.194 31.55 43.615 31.55 43.615" stroke-linecap="round" stroke-linejoin="round" />
    <path fill="#fff" stroke="#fff" stroke-width="11" d="M1077.1 725.726c2.94-28.245 30.626-69.596 30.626-69.596s-41.77 17.63-53.83 41.75c-12.07 24.12-44.55 96.5-83.53 120.63-33.87 20.96-42.69-25.99-51.97-9.28-2.84 5.11 17.68 20.7 20.41 38.97 2.99 19.95-14.28 38.02-12.07 57.53 2.38 20.98 12.06 35.26 12.06 35.26s49.13-9.26 73.19-22.27c25.13-13.59 41.6-20.16 58.59-70.53 16.98-50.37 2.32-82.38 6.49-122.49z" />
    <path fill="#323232" stroke="#979797" d="M922.117 907.605c-4.085-18.112 11.136-55.677 11.136-55.677s51.08-1.444 71.575-12.064c21.89-11.34 55.57-53.82 55.57-53.82s-13.66 73.368-9.28 77.02c4.9 4.08 37.12-53.822 37.12-53.822s0 74.24-53.82 98.37c-53.82 24.13-90.95 32.48-90.95 32.48s-18.31-19.04-21.34-32.48z" />
    <path fill="#323232" d="M409.835 869.34c3.327-23.443 16.245-78.387 42.393-123.41 18.26-31.44 49.73-56.07 60.3-70.12 25.4-33.76 62.69-21.187 67.83-23.372 19.78-8.414 198.41 3.802 259.07 23.373 54.28 17.52 85.73 87.89 85.73 87.89s35.01 64.94 42.39 105.65c3.61 19.87-27.32 42.807-21.66 55.16 13.4 29.298 49.78 63.918 72.54 95.36 42.42 58.59 81.96 56.1 70.66 111.26-4.62 22.565-36.8 67.09-70.65 90.686-4.68 3.268-21.87 13.466-44.9 23.22-38.71 16.396-93.93 31.54-134.09 10.44-64.06-33.66-76.9-62.65-137.54-107.516-47.76-35.34-131.44-15.148-189.35-57.03-55.58-40.2-102.68-143.045-102.68-197.27" />
    <path fill="#fff" stroke="#fff" stroke-width="11" d="M885.923 1008.75c-4.64-4.64-65.154-89.997-96.517-124.344-25.81-28.256-85.39-85.37-85.39-85.37s84.54 9.086 125.28 9.278c24.83.117 71.46-8.35 71.46-8.35l25.05 67.74s-18.32 26.38-14.85 38.045c7.66 25.76 48.26 74.23 48.26 74.23l71.46 93.72s-21-5.04-31.56-4.64c-13.89.53-41.77 7.42-41.77 7.42l-46.4-42.68-25.06-25.05z" stroke-linecap="round" stroke-linejoin="round" />
    <path fill="#fff" d="M720.244 950.29c37.817 0 70.403-4.82 70.403-4.82s-60.69-93.318-94.514-93.54c-34.64-.23-31.826 35.68-27.968 49.18 3.857 13.5 14.26 49.18 52.08 49.18z" />
    <path fill="#d8d8d8" stroke="#979797" d="M982.44 1173.927c43.822 0 64.963-47.56 64.963-69.596s-27.842-25.05-71.46-19.48c-43.618 5.57-66.82 32.48-62.18 64.03 4.64 31.56 24.854 25.06 68.676 25.06z" />
    <g stroke="#000" stroke-linecap="round" stroke-linejoin="round">
      <path stroke-width="11" d="M524.913 660.77s-29.698 6.495-64.036 50.11c-34.337 43.613-45.474 90.94-45.474 90.94m-2.784 18.557l-5.57 31.55" />
      <path stroke-width="14" d="M405.195 872.343c0 7.423-20.417 40.83 31.553 144.76 12.76 25.506 25.06 52.893 65.9 79.804 40.84 26.91 69.61 25.983 69.61 25.983m19.49 4.63c0 1.4 23.45 2.18 47.33 7.42 23.7 5.2 42.69 12.06 51.05 17.63 44.49 29.66 101.29 104.95 155.91 108.57 24.88 1.65 92.37-11.33 140.14-41.76 42.91-27.34 67.75-72.38 67.75-72.38m-154.06-382.31s42.69 87.22 42.69 108.57c0 21.34-26.76 25.12-20.41 39.9 15 34.95 79.81 111.35 115.07 152.18 8.52 9.85 18.94 19.32 22.28 25.98 10.5 20.92 0 31.55 0 31.55" />
    </g>
    <path fill="#ffe600" d="M1057.764 1232.527c-10.27 4.697-33.41 9.725-55.212 5.975-22.672-3.9-44.075-16.93-57.59-30.79-13.743-14.08-22.372-51.01-19.516-58.82 2.85-7.81 13.5-9.84 16.65-7.81 4.08 2.63 4.51 11.37 9.04 19.3 4.97 8.72 14.15 16.8 21.42 22.52 21.07 16.6 57.74 12.27 68.06-3.71 1.32-2.03 7.46-12.39 7.14-25.24-.33-13-7.14-28.49-7.14-28.49s5.92-9.57 12.85-5.05c20.47 13.33 32.84 43.26 32.84 51.94 0 6.89 2.7 45.91-28.56 60.21z" />
    <path stroke="#000" stroke-width="14" d="M943.46 1136.81s-39.905-15.776-6.495 54.75c4.294 9.06 22.023 24.356 39.906 31.55 19.91 8.003 39.91 7.422 39.91 7.422m16.71-.92s5.7-.65 11.14-2.78c3.23-1.27 7.43-2.78 7.43-2.78m-21.34-103.93s4.35-8.22 13-5.56c4.19 1.29 11.54 8.18 15.78 13.92 13 17.63 15.78 37.12 15.78 37.12s2.05 17.2 0 25.06c-1.97 7.6-12.06 21.34-12.06 21.34" stroke-linecap="round" />
    <path stroke="#000" stroke-width="14" d="M943.46 1136.81s16.706 56.604 64.965 48.252c48.258-8.35 22.273-64.95 22.273-64.95" />
    <path fill="#3d3d3d" stroke="#000" stroke-width="14" d="M535.123 847.288s-76.1 86.3-122.502 103.003c-28.96 10.43-102.07 14.56-140.13 11.14-22.91-2.06-22.28-11.13-22.28-11.13s45.19-71.35 85.38-103c34.05-26.81 148.48-72.38 148.48-72.38" stroke-linecap="round" stroke-linejoin="round" />
    <path fill="#fff" d="M533.284 804.115c8.31 3.52 0 18.713 0 18.713s-68.315 37.833-84.997 49.123c-23.04 15.59-19.606 39.67-39.77 48.34-26.84 11.56-127.104 38.99-133.342 31.19-6.238-7.79 48.68-65.29 76.42-89.66 15.148-13.31 118.526-57.7 118.526-57.7s49.38-5.83 63.17 0z" />
    <path stroke="#000" stroke-width="14" d="M684.537 855.64s-6.497 16.703 0 37.118c6.496 20.415 14.762 31.763 27.84 41.757 9.207 7.035 22.003 8.653 43.62 6.496 16.158-1.61 18.56-2.78 18.56-2.78m-76.1-92.79s16.705 0 27.842 7.43c26.17 17.45 62.18 70.526 62.18 70.526m-288.63-81.66s-192.1-38.99-224.59-110.44c-32.48-71.45 12.992-145.686 12.992-145.686" stroke-linecap="round" stroke-linejoin="round" />
    <path stroke="#000" stroke-width="11" d="M304.967 564.263s27.19-28.096 45.473-39.438c24.098-14.95 81.668-39.438 81.668-39.438" stroke-linecap="round" stroke-linejoin="round" />
    <path stroke="#000" stroke-width="14" d="M453.453 472.396s83.145-38.154 117.862-69.597c24.368-22.07 59.395-90.94 59.395-90.94s9.28 54.75 0 80.73c-9.28 25.99-4.868 42.59-38.05 79.81-47.255 53.01-113.773 96.69-120.646 119.71-8.525 28.55-17.583 21.09 46.402 60.32 25.72 15.78-11.14 191.16-11.14 191.16" stroke-linecap="round" stroke-linejoin="round" />
    <path fill="#fff" d="M470.157 570.295c30.584-32.93 106.412-84.95 124.36-116.458 20.507-36.004 35.265-125.274 35.265-125.274s-21.48 59.803-81.668 103.93c-71.96 52.758-167.648 76.362-216.235 128.058-31.42 33.43-72.87 91.78-52.9 152.19 19.96 60.41 65.51 69.69 104.87 85.37 26.27 10.47 80 30.9 109.51 31.55 18.71.42 9.28-16.7 9.28-16.7s24.88-101.3 12.06-140.12c-1.68-5.07-2.07-9.2-7.43-13.92-7.92-6.97-22.44-14.13-33.41-18.56-18.398-7.42-28.86-42.99-3.718-70.06z" />
    <path fill="#323232" d="M326.31 769.34c32.756 21.378 193.08 73.38 193.08 73.38s54.226-32.42 29.785-71.85c-11.635-18.77-130.03-34.393-156.05-54.64-28.74-22.36-36.742-55.715-34.355-71.49 7.976-52.723 144.492-150.397 144.492-150.397s-135.02 55.07-178.795 95.633c-34.69 32.142-49.2 93.992-44.558 118.12 4.64 24.125 17.75 42.545 46.4 61.244z" />
    <g transform="translate(-18.713 -10.14)">
      <path fill="#0092d8" d="M369.288 238.348v-11.33c0-1.355-1.1-2.454-2.455-2.454-1.366 0-2.455 1.1-2.455 2.455v11.32h-11.33c-1.355 0-2.454 1.1-2.454 2.45 0 1.36 1.098 2.45 2.454 2.45h11.33v11.33c0 1.35 1.1 2.45 2.455 2.45 1.365 0 2.455-1.1 2.455-2.46v-11.33h11.33c1.355 0 2.454-1.1 2.454-2.46 0-1.37-1.1-2.46-2.455-2.46h-11.33zm495.942-116.36v-8.73c0-1.056-.847-1.904-1.892-1.904-1.054 0-1.894.852-1.894 1.904v8.73h-8.73c-1.056 0-1.904.848-1.904 1.894 0 1.053.852 1.893 1.904 1.893h8.73v8.73c0 1.056.848 1.904 1.894 1.904 1.053 0 1.893-.86 1.893-1.91v-8.73h8.73c1.06 0 1.91-.85 1.91-1.9 0-1.06-.85-1.9-1.9-1.9h-8.73zM749.927 326.363v-11.977c0-1.432-1.162-2.594-2.595-2.594-1.444 0-2.596 1.16-2.596 2.594v11.977H732.76c-1.433 0-2.595 1.162-2.595 2.596 0 1.44 1.16 2.59 2.594 2.59h11.97v11.97c0 1.43 1.16 2.59 2.59 2.59 1.44 0 2.59-1.16 2.59-2.6v-11.97h11.98c1.43 0 2.59-1.16 2.59-2.6 0-1.45-1.17-2.6-2.6-2.6H749.9z" />
      <path fill="#ffe600" d="M308.404 439.347v-8.73c0-1.056-.848-1.903-1.894-1.903-1.054 0-1.894.852-1.894 1.903v8.73h-8.73c-1.056 0-1.904.848-1.904 1.894 0 1.06.853 1.9 1.904 1.9h8.73v8.73c0 1.06.848 1.91 1.894 1.91 1.053 0 1.894-.85 1.894-1.9v-8.73h8.73c1.055 0 1.903-.84 1.903-1.89 0-1.05-.852-1.89-1.904-1.89h-8.73z" />
      <ellipse cx="472.166" cy="58.461" stroke="#47c3ff" stroke-width="11" rx="21.345" ry="21.343" />
      <ellipse cx="214.633" cy="599.921" stroke="#ff006f" stroke-width="6" rx="12.529" ry="12.527" />
      <ellipse cx="1067.508" cy="416.186" stroke="#ffe600" stroke-width="6" rx="12.529" ry="12.527" />
      <path fill="#ffe600" d="M564.547 300.552l6.81-11.795c.814-1.41.33-3.215-1.08-4.03-1.41-.814-3.217-.332-4.032 1.08l-6.81 11.794-11.794-6.81c-1.41-.81-3.21-.33-4.03 1.09-.81 1.41-.33 3.22 1.08 4.03l11.8 6.81-6.81 11.8c-.81 1.41-.33 3.22 1.08 4.03 1.41.82 3.22.34 4.03-1.08l6.81-11.79 11.8 6.81c1.41.82 3.22.33 4.03-1.08.82-1.41.34-3.21-1.08-4.03l-11.79-6.8z" />
      <path fill="#47c3ff" d="M948.312 442.656l3.715-6.435c.44-.76.176-1.74-.593-2.18-.774-.44-1.75-.18-2.192.58l-3.715 6.44-6.435-3.71c-.76-.44-1.745-.17-2.19.6-.446.78-.183 1.75.582 2.2l6.435 3.72-3.72 6.44c-.44.76-.18 1.75.59 2.19.77.45 1.75.19 2.19-.58l3.71-6.43 6.43 3.72c.76.44 1.74.18 2.19-.59.44-.77.18-1.75-.58-2.19l-6.44-3.71z" />
      <path fill="#ffe600" d="M139.408 236.153l4.15-7.19c.502-.87.207-1.97-.654-2.467-.867-.5-1.965-.2-2.465.667l-4.16 7.19-7.19-4.152c-.87-.5-1.97-.2-2.47.66-.5.87-.2 1.97.67 2.47l7.18 4.15-4.15 7.19c-.51.87-.21 1.97.65 2.47.87.5 1.96.2 2.46-.67l4.15-7.19 7.19 4.15c.87.51 1.97.21 2.47-.65.5-.86.2-1.96-.67-2.46l-7.19-4.15z" />
      <path fill="#0092d8" d="M176.956 741.525v-14.567c0-1.743-1.414-3.156-3.157-3.156-1.74 0-3.16 1.413-3.16 3.156v14.567h-14.57c-1.75 0-3.16 1.413-3.16 3.156 0 1.74 1.41 3.16 3.15 3.16h14.56v14.57c0 1.75 1.41 3.16 3.15 3.16s3.15-1.41 3.15-3.15v-14.57h14.57c1.74 0 3.15-1.41 3.15-3.15s-1.42-3.15-3.16-3.15h-14.56z" />
      <path fill="#ff006f" d="M859.784 446.912l5.895-10.21c.7-1.222.28-2.785-.94-3.49-1.23-.71-2.79-.288-3.49.934l-5.9 10.21-10.21-5.895c-1.22-.7-2.79-.28-3.49.94-.71 1.23-.29 2.79.93 3.49l10.21 5.9L846.9 459c-.705 1.22-.286 2.784.936 3.49 1.23.71 2.785.287 3.49-.934l5.896-10.21 10.21 5.894c1.22.704 2.784.286 3.49-.937.71-1.23.287-2.784-.935-3.49l-10.21-5.894zM295.614 19.025l5.696-3.29c.674-.388.907-1.26.514-1.94-.396-.686-1.26-.917-1.938-.526l-5.697 3.28-3.29-5.7c-.39-.68-1.26-.91-1.94-.52-.69.39-.92 1.26-.53 1.94l3.29 5.69-5.7 3.29c-.68.39-.91 1.26-.52 1.94.39.68 1.26.91 1.94.52l5.69-3.29 3.29 5.69c.39.67 1.26.91 1.94.51.68-.4.91-1.26.52-1.94L295.59 19zM148.987 452.943l5.04-8.728c.602-1.044.244-2.38-.8-2.983-1.053-.607-2.38-.246-2.984.8l-5.04 8.726-8.727-5.04c-1.044-.6-2.38-.243-2.983.8-.607 1.053-.246 2.382.8 2.985l8.726 5.04-5.04 8.727c-.6 1.044-.25 2.38.8 2.983 1.05.607 2.38.245 2.98-.8l5.04-8.727 8.72 5.04c1.04.602 2.38.244 2.98-.8.6-1.053.24-2.38-.8-2.984l-8.73-5.04z" />
      <g fill="#f8e81c">
        <g transform="translate(97.597 515.877)">
          <ellipse cx="20.455" cy="2.51" rx="2.394" ry="2.383" />
          <ellipse cx="20.455" cy="38.467" rx="2.394" ry="2.383" />
          <ellipse cx="38.517" cy="20.489" rx="2.394" ry="2.383" />
          <ellipse cx="2.394" cy="20.055" rx="2.394" ry="2.383" />
        </g>
        <g transform="rotate(-45 692.47 161.012)">
          <ellipse cx="20.611" cy="2.671" rx="2.394" ry="2.511" />
          <ellipse cx="20.611" cy="38.629" rx="2.394" ry="2.511" />
          <ellipse cx="38.673" cy="20.65" rx="2.394" ry="2.511" />
          <ellipse cx="2.55" cy="20.217" rx="2.394" ry="2.511" />
        </g>
        <g transform="rotate(-22 1396.394 28.257)">
          <ellipse cx="20.72" cy="2.773" rx="2.394" ry="2.455" />
          <ellipse cx="20.72" cy="38.73" rx="2.394" ry="2.455" />
          <ellipse cx="38.782" cy="20.751" rx="2.394" ry="2.455" />
          <ellipse cx="2.659" cy="20.318" rx="2.394" ry="2.455" />
        </g>
        <g transform="rotate(-67 459.347 205.163)">
          <ellipse cx="20.662" cy="2.81" rx="2.394" ry="2.566" />
          <ellipse cx="20.662" cy="38.768" rx="2.394" ry="2.566" />
          <ellipse cx="38.723" cy="20.789" rx="2.394" ry="2.566" />
          <ellipse cx="2.6" cy="20.356" rx="2.394" ry="2.566" />
        </g>
      </g>
      <g fill="#f8e81c">
        <g transform="translate(246.084 1000.267)">
          <ellipse cx="20.455" cy="2.51" rx="2.394" ry="2.383" />
          <ellipse cx="20.455" cy="38.467" rx="2.394" ry="2.383" />
          <ellipse cx="38.517" cy="20.489" rx="2.394" ry="2.383" />
          <ellipse cx="2.394" cy="20.055" rx="2.394" ry="2.383" />
        </g>
        <g transform="rotate(-45 1351.426 223.967)">
          <ellipse cx="20.611" cy="2.671" rx="2.394" ry="2.511" />
          <ellipse cx="20.611" cy="38.629" rx="2.394" ry="2.511" />
          <ellipse cx="38.673" cy="20.65" rx="2.394" ry="2.511" />
          <ellipse cx="2.55" cy="20.217" rx="2.394" ry="2.511" />
        </g>
        <g transform="rotate(-22 2716.624 -111.5)">
          <ellipse cx="20.72" cy="2.773" rx="2.394" ry="2.455" />
          <ellipse cx="20.72" cy="38.73" rx="2.394" ry="2.455" />
          <ellipse cx="38.782" cy="20.751" rx="2.394" ry="2.455" />
          <ellipse cx="2.659" cy="20.318" rx="2.394" ry="2.455" />
        </g>
        <g transform="rotate(-67 899.508 335.188)">
          <ellipse cx="20.662" cy="2.81" rx="2.394" ry="2.566" />
          <ellipse cx="20.662" cy="38.768" rx="2.394" ry="2.566" />
          <ellipse cx="38.723" cy="20.789" rx="2.394" ry="2.566" />
          <ellipse cx="2.6" cy="20.356" rx="2.394" ry="2.566" />
        </g>
      </g>
      <g fill="#f8e81c">
        <g transform="translate(881.796 300.592)">
          <ellipse cx="20.455" cy="2.51" rx="2.394" ry="2.383" />
          <ellipse cx="20.455" cy="38.467" rx="2.394" ry="2.383" />
          <ellipse cx="38.517" cy="20.489" rx="2.394" ry="2.383" />
          <ellipse cx="2.394" cy="20.055" rx="2.394" ry="2.383" />
        </g>
        <g transform="rotate(-45 824.7 -893.242)">
          <ellipse cx="20.611" cy="2.671" rx="2.394" ry="2.511" />
          <ellipse cx="20.611" cy="38.629" rx="2.394" ry="2.511" />
          <ellipse cx="38.673" cy="20.65" rx="2.394" ry="2.511" />
          <ellipse cx="2.55" cy="20.217" rx="2.394" ry="2.511" />
        </g>
        <g transform="rotate(-22 1234.72 -2096.563)">
          <ellipse cx="20.72" cy="2.773" rx="2.394" ry="2.455" />
          <ellipse cx="20.72" cy="38.73" rx="2.394" ry="2.455" />
          <ellipse cx="38.782" cy="20.751" rx="2.394" ry="2.455" />
          <ellipse cx="2.659" cy="20.318" rx="2.394" ry="2.455" />
        </g>
        <g transform="rotate(-67 688.817 -494.877)">
          <ellipse cx="20.662" cy="2.81" rx="2.394" ry="2.566" />
          <ellipse cx="20.662" cy="38.768" rx="2.394" ry="2.566" />
          <ellipse cx="38.723" cy="20.789" rx="2.394" ry="2.566" />
          <ellipse cx="2.6" cy="20.356" rx="2.394" ry="2.566" />
        </g>
      </g>
      <g fill="#ff006f">
        <g transform="translate(18.713 692.187)">
          <ellipse cx="20.455" cy="2.51" rx="2.394" ry="2.383" />
          <ellipse cx="20.455" cy="38.467" rx="2.394" ry="2.383" />
          <ellipse cx="38.517" cy="20.489" rx="2.394" ry="2.383" />
          <ellipse cx="2.394" cy="20.055" rx="2.394" ry="2.383" />
        </g>
        <g transform="rotate(-45 865.855 344.39)">
          <ellipse cx="20.611" cy="2.671" rx="2.394" ry="2.511" />
          <ellipse cx="20.611" cy="38.629" rx="2.394" ry="2.511" />
          <ellipse cx="38.673" cy="20.65" rx="2.394" ry="2.511" />
          <ellipse cx="2.55" cy="20.217" rx="2.394" ry="2.511" />
        </g>
        <g transform="rotate(-22 1810.472 319.324)">
          <ellipse cx="20.72" cy="2.773" rx="2.394" ry="2.455" />
          <ellipse cx="20.72" cy="38.73" rx="2.394" ry="2.455" />
          <ellipse cx="38.782" cy="20.751" rx="2.394" ry="2.455" />
          <ellipse cx="2.659" cy="20.318" rx="2.394" ry="2.455" />
        </g>
        <g transform="rotate(-67 553.093 352.91)">
          <ellipse cx="20.662" cy="2.81" rx="2.394" ry="2.566" />
          <ellipse cx="20.662" cy="38.768" rx="2.394" ry="2.566" />
          <ellipse cx="38.723" cy="20.789" rx="2.394" ry="2.566" />
          <ellipse cx="2.6" cy="20.356" rx="2.394" ry="2.566" />
        </g>
      </g>
      <g fill="#ff006f">
        <g transform="translate(991.85 219.924)">
          <ellipse cx="34.413" cy="4.281" rx="4.027" ry="4.065" />
          <ellipse cx="34.413" cy="65.621" rx="4.027" ry="4.065" />
          <ellipse cx="64.8" cy="34.951" rx="4.027" ry="4.065" />
          <ellipse cx="4.027" cy="34.212" rx="4.027" ry="4.065" />
        </g>
        <g transform="rotate(-45 796.65 -1051.68)">
          <ellipse cx="34.676" cy="4.557" rx="4.027" ry="4.283" />
          <ellipse cx="34.676" cy="65.897" rx="4.027" ry="4.283" />
          <ellipse cx="65.062" cy="35.227" rx="4.027" ry="4.283" />
          <ellipse cx="4.289" cy="34.488" rx="4.027" ry="4.283" />
        </g>
        <g transform="rotate(-22 1096.31 -2404.915)">
          <ellipse cx="34.859" cy="4.73" rx="4.027" ry="4.187" />
          <ellipse cx="34.859" cy="66.069" rx="4.027" ry="4.187" />
          <ellipse cx="65.245" cy="35.4" rx="4.027" ry="4.187" />
          <ellipse cx="4.473" cy="34.661" rx="4.027" ry="4.187" />
        </g>
        <g transform="rotate(-67 697.13 -603.56)">
          <ellipse cx="34.76" cy="4.793" rx="4.027" ry="4.378" />
          <ellipse cx="34.76" cy="66.133" rx="4.027" ry="4.378" />
          <ellipse cx="65.146" cy="35.463" rx="4.027" ry="4.378" />
          <ellipse cx="4.374" cy="34.724" rx="4.027" ry="4.378" />
        </g>
      </g>
      <g fill="#0092d8">
        <g transform="translate(267.953 322.613)">
          <ellipse cx="12.995" cy="1.594" rx="1.521" ry="1.514" />
          <ellipse cx="12.995" cy="24.438" rx="1.521" ry="1.514" />
          <ellipse cx="24.47" cy="13.016" rx="1.521" ry="1.514" />
          <ellipse cx="1.521" cy="12.741" rx="1.521" ry="1.514" />
        </g>
        <g transform="rotate(-45 536.717 -148.873)">
          <ellipse cx="13.094" cy="1.697" rx="1.521" ry="1.595" />
          <ellipse cx="13.094" cy="24.541" rx="1.521" ry="1.595" />
          <ellipse cx="24.569" cy="13.119" rx="1.521" ry="1.595" />
          <ellipse cx="1.62" cy="12.844" rx="1.521" ry="1.595" />
        </g>
        <g transform="rotate(-22 976.925 -514.37)">
          <ellipse cx="13.164" cy="1.761" rx="1.521" ry="1.559" />
          <ellipse cx="13.164" cy="24.605" rx="1.521" ry="1.559" />
          <ellipse cx="24.638" cy="13.183" rx="1.521" ry="1.559" />
          <ellipse cx="1.689" cy="12.908" rx="1.521" ry="1.559" />
        </g>
        <g transform="rotate(-67 390.927 -27.8)">
          <ellipse cx="13.126" cy="1.785" rx="1.521" ry="1.63" />
          <ellipse cx="13.126" cy="24.629" rx="1.521" ry="1.63" />
          <ellipse cx="24.601" cy="13.207" rx="1.521" ry="1.63" />
          <ellipse cx="1.652" cy="12.932" rx="1.521" ry="1.63" />
        </g>
      </g>
      <g fill="#0092d8">
        <g transform="translate(670.89 158.12)">
          <ellipse cx="23.206" cy="2.847" rx="2.716" ry="2.703" />
          <ellipse cx="23.206" cy="43.64" rx="2.716" ry="2.703" />
          <ellipse cx="43.696" cy="23.243" rx="2.716" ry="2.703" />
          <ellipse cx="2.716" cy="22.752" rx="2.716" ry="2.703" />
        </g>
        <g transform="rotate(-45 550.083 -707.084)">
          <ellipse cx="23.383" cy="3.031" rx="2.716" ry="2.848" />
          <ellipse cx="23.383" cy="43.823" rx="2.716" ry="2.848" />
          <ellipse cx="43.873" cy="23.427" rx="2.716" ry="2.848" />
          <ellipse cx="2.892" cy="22.935" rx="2.716" ry="2.848" />
        </g>
        <g transform="rotate(-22 765.56 -1622.417)">
          <ellipse cx="23.506" cy="3.145" rx="2.716" ry="2.785" />
          <ellipse cx="23.506" cy="43.938" rx="2.716" ry="2.785" />
          <ellipse cx="43.996" cy="23.542" rx="2.716" ry="2.785" />
          <ellipse cx="3.016" cy="23.05" rx="2.716" ry="2.785" />
        </g>
        <g transform="rotate(-67 478.54 -403.974)">
          <ellipse cx="23.44" cy="3.188" rx="2.716" ry="2.911" />
          <ellipse cx="23.44" cy="43.98" rx="2.716" ry="2.911" />
          <ellipse cx="43.93" cy="23.584" rx="2.716" ry="2.911" />
          <ellipse cx="2.949" cy="23.092" rx="2.716" ry="2.911" />
        </g>
      </g>
    </g>
    <path fill="#9a662f" d="M952.684 655.858c-6.448-24.26-25.87-26.026-40.24-62.278-9.155-23.09-32.397-30.35-51.552-52.9-6.813-8.02-49.714-50.16-68.214-51.22-14.42-.83-27.98 4.83-32.57 0-3.43-3.62-1.18-5.53 0-10.23 2.11-8.39 6.08-20.13 5.75-26.96-.97-20.17-10.54-32.54-10.54-32.54s-73 53.54-95.81 80.87c-16.26 19.48-48.99 29.64-66.11 55.77-16.04 24.48-35.49 51.84-42.16 73.43-5.99 19.41 0 34.39 0 34.39s11.14 26.94 34.5 51.13c24.48 25.36 61.81 48.09 88.15 51.12 16.73 1.93 32.7 7.95 55.57 12.08 34.71 6.27 78.88 9.72 114.98 0 30.46-8.21 63.24-22.53 82.4-39.04 15.11-13.02 20.12-29.75 20.12-29.75s13.42-25.05 5.75-53.92z" />
    <path fill="#815423" d="M861.82 541.58c-19.69-21.087-39.902-46.99-50.938-51.18-44.073-16.73-44.633 5.65-55.57-3.716-5.036-4.31 13.524-34.515 11.497-45.547-2.12-11.495-11.5-23.238-11.5-23.238s-15.23 44.33-24.91 55.77c-12.35 14.58-49.83 65.06-74.74 133.85-6.41 17.7-10.54 52.05 0 91.09 10.54 39.04 22.38 76.88 32.57 80.85 61.01 23.72 165.753 7.43 165.753 7.43s40.48-6.58 68.99-31.606c15.44-13.556 22.74-39.95 28.75-56.7 5-13.925 2.16-48.714-9.58-63.19-10.98-13.533-30.84-18.008-28.74-27.887 1.73-8.148-24.15-36.57-51.58-65.943z" />
    <g stroke="#000" stroke-linecap="round" stroke-linejoin="round">
      <path stroke-width="14" d="M741.13 392.737c0 14.83-9.994 36.754-57.79 62.67-23.115 12.535-30.925 23.25-30.925 23.25M640 493.01c-10.596 13.498-5.56 49.835 13.483 70.384 24.52 26.455 75.126 47.244 111.726 47.244 36.6 0 54.9-8.678 71.27-25.068 6.78-6.8 12.52-15.43 15.41-26.04 2.89-10.61 0-19.29-2.89-32.78-3.09-14.41-14.43-32.86-42.38-45.32-20.97-9.35-53.94-5.79-53.94-5.79h-8.87" />
      <path stroke-width="14" d="M738.24 518.078s43.342-2.892 30.82 5.785c-12.52 8.678-30.2-.038-34.672-7.713-6.74-11.57 0-24.11 6.75-36.64 5.03-9.35 19.27-28.93 14.45-49.18-2.67-11.23-14.44-41.46-14.44-41.46M587.038 608.7c12.52 22.17 34.09 41.42 54.9 54.96 22.23 14.45 41.42 24.1 67.42 30.85 19.52 5.06 48.8 10.17 77.06 9.64 30.61-.58 60.07-7.37 76.09-16.39 30.82-17.36 33.71-29.89 39.49-42.43 3.24-7.03 9.75-38.91 0-62.67-10.61-25.88-30.99-35.86-30.99-35.86" />
      <path stroke-width="11" d="M633.257 510.365s-19.263 6.75-28.894 13.498c-9.632 6.75-18.3 18.32-18.3 18.32" />
      <path stroke-width="14" d="M631.015 512.366s-17.02 4.748-26.652 11.497c-9.632 6.75-17.372 17.39-17.372 17.39m-9.56 15.318c-2.4 4.21-3.12 8.27-2.92 17.91.2 9.65 3.89 18.88 3.89 18.88" />
      <path stroke-width="14" d="M574.505 573.035s-15.534 6.988-24.08 21.212c-8.46 14.084-12.52 25.565-12.52 47.244 0 23.14 13.106 40.66 22.153 54 7.51 11.07 24.18 27.07 32.75 33.75 8.67 6.74 23.12 17.35 45.27 26.99 22.15 9.64 53.94 17.35 53.94 17.35m17.23 2.89s15.52 4.34 18.41 2.89m18.3 2.89s6.74 1.93 22.15 1.93c34.68 0 60.46-6.2 67.42-7.72 12.86-2.8 29.73-6.5 48.58-16.27 10.24-5.31 25.98-15.94 36.19-27.12 8.59-9.41 12.26-19.16 15.41-27 5.7-14.18 8.88-31.6 7.7-44.35-1.77-19.14-9.73-34.17-18.3-43.39-6.57-7.07-14.44-10.61-14.44-10.61" />
    </g>
    <path stroke="#fff" stroke-width="11" d="M453.453 956.786s7.123 29.334 32.054 63.113c24.93 33.78 41.85 46.22 41.85 46.22m11.574 9.78l14.25 8.89m14.25 6.22s2.67 3.56 24.93 8.89c22.26 5.34 57.88 8.89 57.88 8.89m16.03 3.56s16.737 2.97 37.4 13.34c15.475 7.77 33.438 26.68 65 53.34 12.82 10.83 36.507 32 44.52 37.34 18.837 12.54 31.005 13.78 43.63 14.23 20.287.72 35.616-5.33 35.616-5.33M743.01 427.86s-42.413 35.074-54.754 45.47c-13.31 11.204-34.646 35.132-39.906 41.753m-24.13 12.993s-8.353 8.35-19.49 20.41c-11.136 12.06-18.56 27.84-18.56 27.84m-17.633 21.34s-6.495 6.49-12.99 24.12c-6.49 17.63-3.71 32.48-3.71 32.48" stroke-linecap="round" />
    <path fill="#0092d8" d="M376.892 1513.825c11.44-10.673 24.212-16.01 38.32-16.01 15.557 0 28.216 5.376 37.977 16.125 10.67 11.58 16.01 27.74 16.01 48.48 0 23.32-7.32 42.23-21.96 56.72-13.81 13.49-30.13 20.24-48.96 20.24-12.28 0-24.52-2.78-36.72-8.35-3.97-1.76-7.36-3.78-10.18-6.06v-156.43c0-5.26-.54-8.65-1.6-10.18-1.6-2.44-4.43-3.66-8.47-3.66-1.83 0-3.55.17-5.15.51-1.607.34-2.71.34-3.32 0-.61-.35-1.146-.82-1.6-1.43-1.6-2.44.303-5.64 5.72-9.61 8.39-6.18 16.66-9.26 24.82-9.26 8.693 0 13.574 4.69 14.64 14.06.306 2.82.46 5.79.46 8.92v55.91zm0 18.182v80.16c7.168 5.947 15.747 8.92 25.737 8.92 11.82 0 21.43-4.384 28.82-13.15 7.85-9.3 11.78-22.07 11.78-38.308 0-17.08-3.47-29.93-10.41-38.54-6.18-7.85-14.82-11.77-25.91-11.77s-21.11 4.23-30.03 12.7zm130.66 3.43c0-4.345-.325-7.832-.973-10.462-.65-2.63-1.97-3.946-3.95-3.946-1.45 0-2.6.15-3.43.45l-2.75 1.14c-.54.15-1.19-.16-1.95-.92-1.45-1.6-2.18-3.07-2.18-4.41 0-1.34.44-2.75 1.31-4.23.87-1.49 2.21-3.19 4-5.09 1.79-1.91 3.83-3.59 6.12-5.03 5.18-3.43 9.87-5.15 14.07-5.15 4.19 0 7.16.72 8.92 2.17 1.75 1.45 3.09 3.35 4 5.71 1.52 3.81 2.29 9.57 2.29 17.27v71.58c0 12.88 3.89 20.08 11.66 21.61 2.36.45 5.16.68 8.4.68s6.71-.42 10.41-1.26c3.7-.84 7.22-1.94 10.58-3.32 6.48-2.67 12.2-6.06 17.16-10.18v-66.67c0-7.24-1.3-11.7-3.89-13.38-1.07-.69-2.48-1.03-4.23-1.03-1.76 0-3.15.27-4.18.8-1.03.53-1.87.91-2.52 1.14-.65.23-1.2.21-1.66-.06-.46-.27-.96-.67-1.49-1.2-1.14-1.3-1.72-2.6-1.72-3.89 0-1.3.47-2.69 1.43-4.18.95-1.49 2.5-3.2 4.63-5.15 2.13-1.95 4.57-3.72 7.32-5.32 6.18-3.59 12.35-5.38 18.53-5.38 7.47 0 11.74 5.29 12.81 15.89.31 2.97.46 6.06.46 9.26v67.7c0 11.74.46 19.06 1.37 21.95.91 2.9 2.02 4.785 3.31 5.66 1.29.88 2.9 1.32 4.8 1.32s3.47-.308 4.69-.917l3.43-1.487c.99-.23 1.87.23 2.63 1.37 1.6 2.36 1.83 4.5.68 6.4-1.14 1.905-2.92 3.734-5.32 5.49-2.4 1.75-5.09 3.276-8.06 4.57-13.19 5.796-22.57 5.68-28.14-.34-2.89-3.126-4.53-8.08-4.91-14.866-11.21 8.615-22.69 14.56-34.43 17.84-4.27 1.14-8.75 1.714-13.44 1.714-4.69 0-9.27-.65-13.73-1.95-4.46-1.295-8.33-3.39-11.61-6.29-7.02-6.173-10.52-15.7-10.52-28.59v-67.11zm173.554 101.773c-11.67 0-17.51-2.67-17.51-8.01 0-2.82.57-4.96 1.71-6.41 1.83.61 3.54.91 5.14.91 6.63 0 10.06-4 10.29-12.01v-143.17c0-5.34-.54-8.73-1.6-10.18-1.76-2.44-4.58-3.66-8.47-3.66-1.76 0-3.45.17-5.09.51-1.64.34-2.79.34-3.44 0-.65-.35-1.16-.82-1.55-1.43-1.53-2.52.38-5.72 5.72-9.61 8.38-6.18 16.66-9.27 24.82-9.27 8.69 0 13.57 4.69 14.64 14.06.3 2.82.45 5.79.45 8.92v154.26c.23 5.94 2.4 9.6 6.52 10.97 1.22.38 2.65.72 4.29 1.03 1.64.3 3.15.66 4.52 1.08 1.37.42 2.44.89 3.2 1.43 1.3.99 1.95 2.59 1.95 4.8 0 2.67-.61 4.76-1.83 6.29-1.53-.38-3.97-.58-7.32-.58h-36.49zm88.33 0c-11.67 0-17.5-2.67-17.5-8.01 0-2.82.57-4.96 1.71-6.41 1.83.61 3.54.91 5.14.91 6.63 0 10.06-4 10.29-12.01v-143.17c0-5.34-.54-8.73-1.61-10.18-1.76-2.44-4.58-3.66-8.47-3.66-1.76 0-3.45.17-5.09.51-1.64.34-2.79.34-3.43 0-.65-.35-1.17-.82-1.55-1.43-1.53-2.52.38-5.72 5.72-9.61 8.38-6.18 16.66-9.27 24.82-9.27 8.69 0 13.57 4.69 14.64 14.06.3 2.82.45 5.79.45 8.92v154.26c.23 5.94 2.4 9.6 6.52 10.97 1.22.38 2.65.72 4.29 1.03 1.64.3 3.14.66 4.52 1.08 1.37.42 2.44.89 3.2 1.43 1.29.99 1.94 2.59 1.94 4.8 0 2.67-.61 4.76-1.83 6.29-1.53-.38-3.97-.58-7.32-.58h-36.49z" />
    <path fill="#000" d="M1115.093 1559.223l-.114 30.074c0 12.58.64 20.145 1.94 22.7 1.29 2.553 2.82 4.078 4.57 4.573 1.75.49 4 .74 6.75.74 2.74 0 5.24-.21 7.49-.63 2.25-.42 4.36-.97 6.35-1.66 1.98-.69 3.89-1.45 5.72-2.29l5.6-2.4c1.294-.46 2.742.87 4.344 4 .457.84.686 1.81.686 2.91s-.46 2.53-1.38 4.29c-.92 1.75-2.69 3.75-5.32 6-2.63 2.25-5.7 4.25-9.21 6-7.63 3.88-14.47 5.83-20.54 5.83-6.07 0-11-.34-14.82-1.03-3.82-.69-7.06-2.06-9.73-4.12-5.49-4.27-8.24-12.09-8.24-23.44v-90h-11.32c-2.36 0-4.08-.76-5.15-2.29-1.83-2.37-2.75-4.35-2.75-5.95 0-2.67.65-4.16 1.94-4.46 12.12-2.06 20.7-11.05 25.74-26.99 1.44-4.81 2.59-10.49 3.43-17.04 3.66-.61 6.42-.92 8.29-.92 1.87 0 3.49.95 4.86 2.86 1.37 1.9 2.04 4.11 2 6.63-.04 2.51-.1 4.88-.17 7.09-.08 2.21-.15 4.61-.23 7.2l-.46 16.01h39.57c.99 1.75 1.49 3.62 1.49 5.6v3.54c0 3.2-1.72 5.81-5.15 7.83-3.43 2.02-7.23 3.03-11.38 3.03-4.16 0-7.13-.06-8.92-.17-1.79-.12-3.53-.25-5.21-.4l-5.04-.69c-1.756-.15-3.625-.308-5.61-.46v1.26l-.114 36.71zm-108.24 77.988c-11.743 0-17.615-2.67-17.615-8 0-2.74.61-4.88 1.83-6.4 1.83.61 3.51.92 5.04.92 7.09 0 10.56-4.5 10.41-13.49v-76.61c0-5.33-.74-9.05-2.23-11.15-1.49-2.09-4.14-3.14-7.95-3.14-2.82 0-5.37.35-7.66 1.03-1.37.15-2.36-.91-2.97-3.2-.53-2.05-.23-3.86.92-5.43 1.15-1.56 2.92-3.2 5.32-4.91 2.4-1.72 5.05-3.22 7.95-4.52 6.26-2.97 11.48-4.46 15.67-4.46 4.2 0 7.31.61 9.33 1.83 2.02 1.22 3.57 2.86 4.64 4.92 1.68 3.36 2.52 8.77 2.52 16.24v91.37c.23 6.02 2.41 9.68 6.52 10.98 1.15.38 2.56.73 4.24 1.03 1.68.31 3.19.67 4.52 1.09 1.34.42 2.39.9 3.15 1.43 1.3.99 1.94 2.59 1.94 4.8 0 2.75-.57 4.84-1.71 6.29-1.6-.38-4.04-.57-7.32-.57h-36.49zM881.8 1591.59c-2.898 2.897-4.347 5.718-4.347 8.462 0 2.744.8 4.82 2.402 6.23 1.6 1.41 3.698 2.497 6.29 3.26 3.967 1.067 8.35 1.6 13.156 1.6h9.84c24.87 0 41.22 5.947 49.08 17.84 2.9 4.42 4.35 9.814 4.35 16.18 0 6.365-1.06 11.95-3.2 16.75-2.13 4.8-4.99 9.05-8.58 12.75-3.58 3.69-7.74 6.88-12.46 9.54-4.72 2.67-9.72 4.84-14.98 6.52-10.29 3.43-19.9 5.14-28.82 5.14-8.92 0-16.72-.71-23.39-2.12-6.67-1.41-12.6-3.6-17.79-6.58-11.21-6.48-16.81-15.78-16.81-27.9 0-10.3 5.15-19.52 15.45-27.68 3.13-2.44 6.45-4.61 9.95-6.52-4.12-3.43-6.18-8.04-6.18-13.84 0-9.07 4.5-16.7 13.5-22.87-13.19-5.03-21.85-14.03-25.97-26.99-1.29-4.27-1.94-9.03-1.94-14.29s.82-10.22 2.46-14.87c1.64-4.65 3.89-8.81 6.75-12.47s6.2-6.86 10.01-9.61c3.81-2.75 7.89-5.03 12.24-6.86 8.54-3.66 17.5-5.49 26.88-5.49 15.48 0 27.84 3.88 37.06 11.66.99-3.81 1.49-7.74 1.49-11.78 0-4.04-.87-7.32-2.63-9.83 2.98-3.51 7.4-5.26 13.27-5.26 3.36 0 6.03.91 8.01 2.74 3.82 3.28 5.72 6.53 5.72 9.77 0 3.24-.49 6.06-1.48 8.46-.99 2.4-2.28 4.67-3.89 6.807-2.82 3.96-6.48 7.55-10.98 10.75 3.05 5.72 4.58 12.33 4.58 19.84s-1.65 14.48-4.97 20.93c-3.32 6.44-7.76 11.91-13.33 16.41-11.44 9.23-25.54 13.84-42.32 13.84-2.29 0-5.07-.19-8.35-.58zm-5.49 40.252c-9.99 6.784-14.986 14.483-14.986 23.1 0 7.47 4.347 13.15 13.04 17.036 6.94 3.202 15.48 4.803 25.623 4.803 9.227 0 17.768-1.52 25.623-4.57 10.295-4.04 15.442-10.63 15.442-19.78 0-12.27-9.95-18.41-29.855-18.41l-10.18.12c-10.372 0-18.608-.76-24.708-2.28zm9.264-58.663c3.508 1.29 7.264 1.94 11.267 1.94 4.01 0 7.78-.57 11.33-1.72 3.54-1.14 6.61-2.82 9.2-5.03 5.56-4.72 8.35-11.43 8.35-20.12 0-9.6-2.48-17.61-7.44-24.01-5.65-7.09-13.58-10.63-23.8-10.63-12.89 0-21.24 5.26-25.05 15.78-1.3 3.59-1.95 8.01-1.95 13.27s.78 9.99 2.34 14.18c1.56 4.2 3.7 7.65 6.4 10.35 2.7 2.71 5.81 4.71 9.32 6.01zm128.257-96.63c-2.59 0-4.97-.4-7.15-1.2-2.17-.8-4.06-1.97-5.66-3.49-3.35-3.2-5.03-7.51-5.03-12.92 0-5.19 1.99-9.57 5.95-13.15 3.82-3.59 8.39-5.38 13.73-5.38s9.61 1.61 12.81 4.81c3.21 3.2 4.81 7.55 4.81 13.04 0 5.19-1.904 9.57-5.72 13.15-3.734 3.43-8.31 5.15-13.724 5.15z" />
  </g>
</svg>
