<svg xmlns="http://www.w3.org/2000/svg" width="500" height="721">
  <g fill="#FFF" fill-rule="evenodd">
    <path d="M69.97 688.62c-7 0-14.07-1.606-21.01-4.773-2.28-1.008-4.278-2.198-5.925-3.534-.234-.19-.37-.475-.37-.776V591.77c0-3.577-.45-4.755-.717-5.138-.724-1.103-2.003-1.626-3.93-1.626-.953 0-1.853.09-2.675.267-.525.112-.966.166-1.35.166-.49 0-.885-.09-1.21-.272-.467-.264-.874-.625-1.21-1.077-1.275-1.937-.113-4.206 3.417-6.792 4.856-3.576 9.74-5.39 14.513-5.39 5.368 0 8.55 3.034 9.206 8.776.174 1.626.262 3.346.262 5.12v29.152c6.158-5.153 13.04-7.763 20.493-7.763 8.977 0 16.393 3.153 22.04 9.373 6.132 6.656 9.243 16.037 9.243 27.875 0 13.307-4.244 24.252-12.615 32.534-7.904 7.73-17.378 11.646-28.163 11.646zm-10.998-16.746c3.747 2.975 8.264 4.482 13.436 4.482 6.38 0 11.417-2.298 15.403-7.023 4.23-5.01 6.374-12.024 6.374-20.848 0-9.3-1.89-16.364-5.617-20.994-3.302-4.198-7.798-6.235-13.753-6.235-5.8 0-11.128 2.205-15.84 6.557v44.062h-.002zM145.068 688.62c-2.712 0-5.396-.38-7.978-1.13-2.634-.765-4.954-2.023-6.896-3.74-4.14-3.645-6.24-9.293-6.24-16.788v-37.66c0-2.343-.174-4.237-.517-5.633-.358-1.452-.978-1.452-1.242-1.452-.86 0-1.337.106-1.585.196l-1.494.625c-.036.014-.072.026-.11.037-.14.04-.284.06-.43.06-.55 0-1.087-.27-1.644-.827-1.028-1.135-1.51-2.162-1.51-3.178 0-.927.294-1.896.875-2.88.533-.905 1.31-1.897 2.378-3.033 1.058-1.127 2.278-2.13 3.625-2.983 3.042-2.015 5.882-3.042 8.427-3.042 2.615 0 4.46.474 5.64 1.447 1.114.92 1.97 2.138 2.542 3.617.906 2.272 1.35 5.562 1.35 10.048v40.164c0 6.74 1.876 10.387 5.736 11.144 1.257.243 2.78.366 4.523.366 1.735 0 3.626-.23 5.617-.68 2.004-.455 3.947-1.065 5.776-1.813 3.364-1.386 6.39-3.153 9.002-5.258v-36.93c0-4.588-.938-6.158-1.725-6.668-.43-.275-1.048-.417-1.83-.417-.816 0-1.45.113-1.884.338-.63.326-1.136.555-1.54.696-.272.097-.543.147-.8.147-.348 0-.672-.087-.965-.257-.33-.192-.68-.474-1.038-.833-.845-.956-1.253-1.912-1.253-2.887 0-.92.322-1.89.96-2.882.587-.915 1.49-1.925 2.766-3.086 1.24-1.13 2.68-2.175 4.276-3.106 3.606-2.093 7.27-3.152 10.896-3.152 3.28 0 7.363 1.703 8.18 9.817.175 1.703.264 3.485.264 5.297v37.982c0 8.04.394 10.973.723 12.016.55 1.742 1.103 2.402 1.468 2.65.563.38 1.262.565 2.134.565.906 0 1.642-.137 2.185-.407l1.974-.857c.056-.023.112-.043.172-.057.166-.04.334-.06.5-.06.55 0 1.347.218 2.033 1.25 1.406 2.072 1 3.68.41 4.66-.708 1.18-1.802 2.316-3.25 3.372-1.398 1.022-2.984 1.923-4.713 2.676-3.736 1.64-7.015 2.474-9.743 2.474-2.98 0-5.394-.977-7.174-2.903-1.5-1.62-2.46-4.02-2.858-7.147-5.914 4.315-12.03 7.373-18.208 9.1-2.478.662-5.102.997-7.806.997zM243.198 687.72c-.08 0-.16-.01-.24-.028-.777-.193-2.078-.29-3.866-.29h-20.466c-7.177 0-10.816-1.85-10.816-5.49 0-1.804.396-3.22 1.176-4.213.193-.247.485-.383.786-.383.106 0 .213.017.317.052.915.306 1.78.46 2.57.46 1.978 0 4.626-.597 4.773-5.764V591.77c0-3.757-.492-4.83-.703-5.118-.8-1.11-2.087-1.646-3.943-1.646-.913 0-1.805.09-2.648.268-.536.11-.985.165-1.38.165-.488 0-.888-.086-1.218-.26-.525-.28-.944-.67-1.25-1.16-1.173-1.935-.004-4.193 3.47-6.725 4.853-3.574 9.737-5.39 14.51-5.39 5.368 0 8.552 3.036 9.206 8.778.175 1.625.263 3.345.263 5.12v86.546c.112 2.863 1.085 4.58 2.975 5.21.615.194 1.386.38 2.272.544.953.177 1.844.39 2.646.637.874.268 1.554.574 2.074.94 1.02.777 1.52 1.95 1.52 3.514 0 1.724-.42 3.12-1.247 4.152-.194.24-.483.375-.782.375zM289.07 687.72c-.08 0-.16-.01-.24-.028-.776-.193-2.076-.29-3.865-.29h-20.467c-7.177 0-10.815-1.85-10.815-5.49 0-1.806.396-3.223 1.177-4.214.192-.245.484-.38.785-.38.106 0 .213.016.317.05.915.308 1.78.463 2.57.463 1.978 0 4.627-.597 4.773-5.764V591.77c0-3.757-.492-4.83-.703-5.118-.8-1.11-2.086-1.646-3.942-1.646-.913 0-1.805.09-2.65.268-.533.11-.983.165-1.376.165-.49 0-.89-.086-1.22-.26-.526-.28-.945-.67-1.25-1.16-1.173-1.935-.004-4.194 3.47-6.725 4.853-3.574 9.737-5.39 14.51-5.39 5.368 0 8.552 3.036 9.206 8.778.176 1.63.264 3.35.264 5.12v86.546c.11 2.863 1.083 4.58 2.973 5.21.617.194 1.388.38 2.273.544.953.177 1.843.39 2.645.637.872.267 1.552.573 2.075.938 1.02.78 1.52 1.954 1.52 3.516 0 1.723-.42 3.12-1.248 4.152-.194.24-.483.375-.782.375zM328.336 720.315c-5.048 0-9.53-.407-13.327-1.21-3.832-.81-7.286-2.09-10.268-3.8-6.593-3.81-9.934-9.37-9.934-16.52 0-6.07 3.04-11.557 9.04-16.31 1.434-1.12 2.952-2.15 4.532-3.08-1.855-1.99-2.794-4.527-2.794-7.557 0-4.898 2.203-9.125 6.555-12.586-6.744-3.032-11.28-8.1-13.5-15.084-.756-2.49-1.138-5.286-1.138-8.322 0-3.054.483-5.972 1.436-8.674.953-2.7 2.28-5.15 3.94-7.276 1.656-2.12 3.613-3.998 5.818-5.586 2.19-1.576 4.565-2.908 7.06-3.96 4.886-2.094 10.092-3.156 15.467-3.156 8.197 0 14.97 1.942 20.16 5.776.307-1.58.46-3.2.46-4.84 0-2.047-.436-3.71-1.296-4.947-.26-.372-.235-.872.058-1.22 1.86-2.19 4.62-3.303 8.205-3.303 2.132 0 3.87.606 5.17 1.804 2.333 2.007 3.53 4.108 3.53 6.222 0 1.94-.307 3.666-.91 5.13-.59 1.422-1.364 2.78-2.307 4.035-1.478 2.078-3.39 4.01-5.684 5.737 1.52 3.162 2.29 6.8 2.29 10.825 0 4.356-.977 8.46-2.902 12.198-1.914 3.72-4.516 6.925-7.733 9.526-6.57 5.3-14.768 7.986-24.367 7.986-1.194 0-2.642-.092-4.306-.27-1.206 1.298-1.816 2.54-1.816 3.696 0 1.25.33 2.15 1.01 2.747.783.69 1.843 1.235 3.148 1.62 2.104.566 4.5.857 7.096.857h5.518c14.235 0 23.776 3.52 28.358 10.457 1.73 2.637 2.604 5.875 2.604 9.628 0 3.693-.633 6.992-1.882 9.806-1.24 2.79-2.926 5.294-5.01 7.443-2.065 2.132-4.494 3.993-7.218 5.532-2.7 1.522-5.592 2.78-8.593 3.737-5.836 1.95-11.382 2.938-16.47 2.938zm-10.002-35.853c-5.046 3.53-7.604 7.526-7.604 11.884 0 3.794 2.2 6.622 6.722 8.646 3.752 1.732 8.446 2.608 13.964 2.608 5.026 0 9.74-.84 14.01-2.5 5.396-2.118 8.022-5.444 8.022-10.166 0-6.278-5.15-9.33-15.745-9.33l-5.698.064c-5.644 0-10.237-.405-13.67-1.206zm10.002-66.415c-6.824 0-11.112 2.68-13.11 8.194-.684 1.89-1.03 4.28-1.03 7.102 0 2.82.42 5.38 1.25 7.607.824 2.206 1.956 4.038 3.364 5.446 1.41 1.41 3.047 2.465 4.87 3.138 1.84.683 3.85 1.028 5.972 1.028 2.13 0 4.164-.307 6.045-.913 1.855-.6 3.478-1.486 4.822-2.634 2.915-2.477 4.332-5.92 4.332-10.53 0-5.138-1.333-9.465-3.962-12.86-2.984-3.75-7.094-5.58-12.554-5.58zM412.254 687.72c-.077 0-.154-.008-.23-.026-.82-.194-2.124-.293-3.875-.293H387.68c-7.22 0-10.88-1.847-10.88-5.49 0-1.763.42-3.182 1.245-4.217.193-.242.482-.376.78-.376.107 0 .214.017.318.052.915.306 1.76.46 2.506.46 1.488 0 2.588-.382 3.362-1.17 1.022-1.04 1.52-2.85 1.477-5.383v-43.003c0-3.448-.58-4.99-1.067-5.676-.633-.892-1.858-1.344-3.644-1.344-1.477 0-2.826.18-4.013.536-.058.018-.116.03-.176.036-.085.01-.17.014-.252.014-.828 0-1.932-.44-2.492-2.547-.38-1.46-.152-2.768.673-3.896.71-.973 1.76-1.948 3.208-2.982 1.4-1 2.958-1.885 4.632-2.633 3.604-1.715 6.705-2.59 9.197-2.59 2.562 0 4.44.384 5.746 1.17 1.287.78 2.285 1.84 2.97 3.155 1.027 2.06 1.523 5.185 1.523 9.57v51.262c.11 2.9 1.078 4.614 2.956 5.205.604.202 1.355.385 2.254.55.976.175 1.87.39 2.655.638.853.268 1.52.573 2.037.936 1.02.778 1.52 1.952 1.52 3.514 0 1.765-.397 3.16-1.18 4.148-.19.242-.48.38-.783.38zm-20.658-90.46c-1.566 0-3.03-.247-4.355-.735-1.342-.495-2.526-1.226-3.52-2.172-2.08-1.984-3.133-4.667-3.133-7.974 0-3.19 1.233-5.923 3.666-8.12 2.306-2.168 5.127-3.273 8.37-3.273 3.253 0 5.908 1.005 7.892 2.986 1.982 1.982 2.987 4.68 2.987 8.02 0 3.184-1.186 5.912-3.523 8.108-2.286 2.1-5.104 3.16-8.384 3.16zM445.972 688.62c-3.447 0-6.303-.2-8.485-.592-2.287-.41-4.268-1.254-5.888-2.503-3.325-2.585-5.01-7.275-5.01-13.944v-49.49h-5.35c-1.67 0-2.916-.576-3.71-1.712-1.146-1.48-1.72-2.77-1.72-3.908 0-2.015.627-3.184 1.862-3.476 6.52-1.108 10.986-5.837 13.712-14.468.79-2.62 1.425-5.78 1.886-9.387.057-.44.393-.788.828-.86 2.123-.354 3.698-.525 4.815-.525 1.383 0 2.573.68 3.538 2.02.896 1.24 1.337 2.694 1.313 4.32-.022 1.42-.054 2.75-.098 3.997-.043 1.24-.085 2.585-.127 4.036l-.228 7.953h21.17c.36 0 .694.195.87.51.64 1.134.964 2.357.964 3.636v1.988c0 2.168-1.138 3.937-3.38 5.257-2.072 1.22-4.39 1.838-6.892 1.838-2.385 0-4.042-.032-5.068-.098-1.015-.065-1.996-.14-2.945-.227l-2.868-.39c-.625-.054-1.3-.11-2.01-.166l-.063 20.22-.065 16.877c0 9 .615 11.556.982 12.277.593 1.17 1.247 1.86 1.946 2.058.89.253 2.07.38 3.514.38 1.474 0 2.826-.112 4.02-.336 1.202-.223 2.352-.523 3.418-.892 1.075-.372 2.124-.792 3.117-1.247l3.167-1.357c.26-.095.466-.13.676-.13 1.425 0 2.42 1.62 3.044 2.84.324.593.495 1.304.495 2.09 0 .792-.29 1.73-.883 2.87-.58 1.108-1.633 2.308-3.22 3.665-1.532 1.312-3.338 2.49-5.367 3.503-4.39 2.24-8.42 3.377-11.963 3.377z"/>
    <g>
      <path d="M370.04 183.015c26.83 20.163 48.422 46.917 62.374 77.857 10.476-19.41 21.644-43.658 39.924-56.852 12.035-8.686 26.838-9.435 26.838-9.435s-16.627 29.803-15.39 50.548c1.653 27.682 10.358 75.438-32.384 101.32-.487.295-.97.586-1.448.873-.535 25.223-5.74 49.297-14.784 71.392 26.937 35.535 28.657 39.657 26.945 44.45 52.553 32.15 22.588 134.368-69.05 76.908-21.85 12.087-45.944 13.346-81.94-6.59C291.858 539.665 271.32 543 250 543c-97.098 0-178.034-69.193-196.192-160.96-13.514 1.524-28.112 2.46-38.758 1.25-25.95-2.95-11.578-21.016 5.013-42.17 8.582-10.943 20.445-21.054 32.41-29.653 2.406-15.2 6.526-29.83 12.155-43.69-16.505-9.906-33.35-24.76-37.113-45.25-8.213-44.718 15.99-84.658 54.054-105.8 46.185-25.652 81.47-36.26 111.973-62.407 24.073-20.634 33.99-39.655 40.962-53.6 8.47 12.264 24.402 49.68-42.706 112.865-19.436 18.3-49.07 42.006-49.243 54.907-.024 1.792.215 3.562.782 5.293C174.21 154.285 210.786 143 250 143c.385 0 .77 0 1.156.003 3.008-3.252 7.305-5.262 12.137-5.145-1.133-8.52 1.355-18.42 7.564-24.602 5.402-5.377 13.043-7.76 20.422-8.778 9.005-1.243 17.687.112 26.66.112 7.647 0 11.77-3.674 16.81-8.713-.682 4.58-.967 9.492-3.56 13.48-3.126 4.816-8.55 6.787-13.552 9.03-3.447 1.548-13.334 5.674-9.27 10.852 2.237 2.853 6.33 3.855 9.5 5.286 3.51 1.583 6.997 3.22 10.396 5.03 6.27 3.342 12.623 7.34 16.984 13.07 1.967 2.584 3.45 5.535 4.137 8.72.486 2.264 7.135 4.638 9.29 6.24 5.465 4.064 9.324 9.448 11.365 15.43zm1.657 11.472c24.285 19.924 43.596 45.688 55.787 75.146-7.266 12.2-14.687 20.828-24.443 20.496-10.914-.373-14.943-5.65-21.432-14.93 3.04-1.995 5.807-4.386 8.16-7.26 7.21-8.807 10.147-23.132 8.334-34.24-2.32-14.213-14.547-26.18-28.533-28.842 1.29-3.427 1.987-6.92 2.127-10.37zm-124.644-43.465c-36.526.55-70.58 11.3-99.44 29.527 4.847 4.883 13.64 9.17 28.298 12.346 6.05-8.31 15.484-13.748 26.055-15.7 1.896-.35 3.813-.59 5.738-.71 2.164-.138 1.565-2.59 2.014-4.498.766-3.258 2.234-6.348 4.406-8.906 7.78-9.17 21.646-9.38 32.593-8.06-.045-1.372.074-2.712.337-4zm118.292 131.142c11.667 21.552 14.7 40.546 14.7 40.546s-14.29 15.025-7.578 25.702c8.137 12.942 45.09 61.968 66.75 90.09-12.38-1.597-24.477-.368-35.416 3.952-16.173-18.823-72.42-78.515-96-109.055-24.205-31.348-46.69-47.117-61.944-55.496 1.13.287 2.26.567 3.387.842 20.958 5.11 41.966 7.59 63.548 7.59 14.85 0 29.974.21 44.632-2.42 2.626-.47 5.286-1.042 7.923-1.752zm76.443 69.94c-.97 20.754-5.233 40.647-12.28 59.168-1.27-1.665-2.586-3.39-3.95-5.173-19.088-24.97-25.87-36.96-25.87-36.96s9.273 1.627 42.1-17.037zM301.706 527.956C285.256 532.547 267.914 535 250 535c-93.007 0-170.57-66.132-188.228-153.938 15.927-2.1 28.652-4.624 28.652-4.624s1.356 19.462 17.862 45.397c16.3 25.612 45.9 39.98 78.07 44.735 53.118 7.85 68.19 32.373 115.35 61.387zM61.74 305.097c2.31-11.528 5.65-22.682 9.92-33.363 15.176 8 28.35 11.712 28.35 11.712s-18.073 8.353-38.27 21.65zM233.07 18.584c-12.463 25.205-40.178 59.24-113.414 89.396-18.82 7.75-36.916 17.945-51.76 31.96-32.51 30.696-33.5 56.274-31.385 75.138.53 4.728 2.076 9.084 4.256 13.077-.708-2.417-1.208-4.88-1.452-7.347-3.034-30.773 10.716-73.035 115.08-120.693 9.53-4.35 17.636-7.918 31.2-16.986C149.956 110.31 81.98 145.2 90.29 199.814c3.296 21.655 49.435 40.13 69.173 48.438 4.068-11.742 7.03-22.924 7.362-27.698.56-8.05-1.268-15.747-9.18-19.505-18.11-6.85-25.708-11.947-29.428-21.396-12.54-31.85 49.292-61.356 70.39-86.743 32.966-39.667 37.953-58.56 34.464-74.325zM484.136 206.64c-38.816 16.483-40.453 74.064-67.813 91.894-11.645 7.59-16.807 7.516-33.803 1.048 0 6.094 6.618 12.267 18.423 13.418 55.508 5.414 61.227-47.013 61.227-47.013s2.295 25.458-5.963 55.275c11.24-9.174 20.758-35.093 19.07-57.742-.998-13.384-5.912-34.368 8.858-56.88zM460.455 492c.104 2.148.027 8.68-1.79 13.112-1.577 3.834-4.146 7.207-7.407 9.764-1.86 1.46-3.928 2.646-6.123 3.53-.906.365-1.828.68-2.766.944.114-.033-4.603.917-2.282.564-15.463 2.343-29.15-5.52-38.096-17.848.033.096.06.19.084.288-1.992-3.686-3.732-7.25-4.992-11.25-.68-2.954-3.408-7.996-7.104-4.876-4.496 3.796-3.455 14.47-2.268 19.604 5.557 22.56 27.32 37.003 49.736 38.514 16.963 1.144 34.857-8.13 40.545-24.722 5.83-17.008-2.615-35.735-17.05-45.427-1.212-.814-3.323-2.59-4.894-2.228-1.532.354-2.28 2.277-1.452 3.594.568 1.05 5.564 10.315 5.857 16.436zM250.06 309.394c-5.412 9.206-7.048 15.314-4.924 25.366 3.125 14.794 11.444 25.625 30.165 28.237 11.015 1.537 18.202 1 25.636-3.726-13.258-16.222-31.99-36.83-50.876-49.876zM138.687 294.23c36.545 9.303-1.38 19.72-16 19.72-10.182 10.278-32.58 34.15-59.473 41.342-26.892 7.193-38.774 2.19-38.774 2.19s14.692-21.933 33.534-37.22c18.842-15.285 55.935-32.807 55.935-32.807s11.495 3.395 24.777 6.776zM233 199.6c-12.86-5.655-18.917-16.703-18.917-16.703s-31.955-1.575-33.39 29.015c-1.86 39.738 76.743 54.072 96.42 57.102 19.676 3.03 46.686 1.908 46.686 1.908 56.415.705 60.442-15.894 62.56-27.072 2.115-11.177.904-19.38-8.014-27.915-11.672-11.167-27.527-5.024-43.236-3.335-17.672 1.9-31.75-1.25-31.75-1.25s63.72 5.196 57.8-25.198c-1.972-10.126-8.29-18.947-29.604-14.013-6.357 1.47-14.05.764-14.05.764s21.548-.193 21.61-11.855c.04-7.344-9.418-13.367-24.928-20.368-15.512-7-17.344-13.24-17.182-16.674.16-3.435 3.217-6.81 13.52-12.333 0 0-29.62-5.567-35.666 10.925-5.5 15 .252 20.558 7.25 23.75-11.58-5.128-22.81-6.198-24.75 3.5-1.75 8.75 15.047 16.494 34.24 19.45-23.998-3.12-31.605-5.636-41.58-7.172-9.847-1.516-26.21-2.442-29.47 10.645-5.19 20.827 45.06 34.327 45.06 34.327s-20.627-2.23-32.61-7.5z"/>
    </g>
  </g>
</svg>
