<?xml version="1.0" encoding="utf-8"?>
<!-- Generator: Adobe Illustrator 15.1.0, SVG Export Plug-In . SVG Version: 6.00 Build 0)  -->
<!DOCTYPE svg PUBLIC "-//W3C//DTD SVG 1.1//EN" "http://www.w3.org/Graphics/SVG/1.1/DTD/svg11.dtd">
<svg version="1.1" id="Ebene_1" xmlns="http://www.w3.org/2000/svg" xmlns:xlink="http://www.w3.org/1999/xlink" x="0px" y="0px"
	 width="1121.916px" height="793.915px" viewBox="0 0 1121.916 793.915" enable-background="new 0 0 1121.916 793.915"
	 xml:space="preserve">
<g>
	<path d="M310.483,289.808h14.56v22.084h-14.56v31.573c0,7.524,5.07,9.322,10.632,9.322c1.473,0,2.782,0,4.583-0.163v23.394
		c0,0-3.599,0.98-10.47,0.98c-20.286,0-32.063-9.325-32.063-34.843v-30.264h-8.342v-22.084h8.342v-18.159h27.318V289.808z"/>
	<path d="M362.179,339.865c0.653,7.687,8.014,14.231,18.157,14.231c10.306,0,16.359-6.707,17.992-9.162l17.997,13.907
		c-2.455,5.069-14.234,18.974-36.48,18.974c-28.301,0-45.64-19.467-45.64-44.82c0-25.193,17.011-45.314,42.205-45.314
		c27.318,0,42.205,17.504,42.205,46.784c0,1.638,0,3.438-0.165,5.4H362.179z M362.995,322.526h27.809
		c-0.324-6.872-5.396-12.762-13.904-12.762C367.903,309.765,363.65,316.472,362.995,322.526z"/>
	<path d="M458.368,320.562c7.524,0,13.414,1.8,16.521,3.109v-3.109c0-5.235-4.253-9.325-13.087-9.325
		c-7.524,0-14.887,2.128-21.594,5.4l-10.142-18.322c9.161-6.052,20.775-10.634,35.008-10.634c29.608,0,37.135,15.214,37.135,34.846
		v53.164h-24.376l-1.473-4.745c-4.417,4.418-10.633,6.87-19.466,6.87c-16.85,0-31.9-10.143-31.9-28.791
		C424.995,331.848,438.084,320.562,458.368,320.562z M463.93,356.876c6.542,0,11.451-3.106,11.451-8.831
		c0-5.89-5.071-9.162-11.616-9.162c-6.542,0-11.449,3.6-11.449,9.162C452.315,353.77,457.551,356.876,463.93,356.876z"/>
	<path d="M590.136,375.69h-27.319v-51.202c0-7.689-3.762-12.27-10.306-12.27c-6.379,0-10.469,4.418-10.469,12.27v51.202h-27.32
		v-85.883h26.666v8.835c2.944-5.235,9.814-10.962,21.266-10.962c10.143,0,17.668,4.255,22.247,11.289
		c5.235-6.707,13.252-11.289,24.375-11.289c19.793,0,29.117,12.759,29.117,30.918v57.092h-27.318v-51.202
		c0-7.689-3.928-12.27-10.47-12.27c-6.38,0-10.469,4.907-10.469,12.27V375.69z"/>
	<path d="M309.57,510.138h-25.519V391.864h27.318V430.8c1.8-2.127,9.815-8.672,22.901-8.672c24.866,0,40.57,18.486,40.57,45.149
		c0,26.339-17.341,44.985-42.042,44.985c-12.597,0-20.774-6.052-23.229-8.832V510.138z M329.036,488.382
		c10.96,0,18.485-8.18,18.485-20.939c0-12.597-7.36-21.266-18.485-21.266c-10.794,0-18.483,7.687-18.483,21.266
		C310.553,478.892,317.26,488.382,329.036,488.382z"/>
	<path d="M411.175,475.457c0,8.015,4.743,12.27,11.288,12.27c7.521,0,11.776-5.399,11.776-12.27v-51.202h27.318v85.883h-26.665
		v-8.834c-3.271,5.072-10.795,10.959-21.592,10.959c-26.827,0-29.445-22.901-29.445-40.405v-47.603h27.319V475.457z"/>
	<path d="M474.892,391.864h27.318v118.273h-27.318V391.864z"/>
	<path d="M514.722,391.864h27.32v118.273h-27.32V391.864z"/>
	<path d="M615.806,503.593c-1.8,2.128-9.814,8.67-22.902,8.67c-24.865,0-40.569-18.484-40.569-45.147
		c0-26.339,17.341-44.987,42.042-44.987c12.595,0,20.774,6.055,23.229,8.834v-6.707h25.52v75.576
		c0,31.735-22.084,41.715-47.604,41.715c-12.104,0-24.048-3.435-31.734-7.362l8.016-20.938c2.454,1.145,12.104,5.234,23.719,5.234
		c10.144,0,20.285-2.289,20.285-12.759V503.593z M597.976,446.177c-10.961,0-18.323,8.015-18.323,20.773
		c0,12.597,7.362,21.267,18.484,21.267c10.797,0,18.486-7.688,18.486-21.267C616.623,455.501,609.752,446.177,597.976,446.177z"/>
	<path d="M653.991,404.299c0-8.672,6.544-14.887,15.213-14.887c8.67,0,15.377,6.215,15.377,14.887
		c0,8.505-6.707,14.722-15.377,14.722C660.535,419.021,653.991,412.804,653.991,404.299z M683.108,510.138H655.79v-85.883h27.318
		V510.138z"/>
	<path d="M728.422,424.255h14.56v22.084h-14.56v31.573c0,7.524,5.072,9.322,10.634,9.322c1.472,0,2.78,0,4.579-0.163v23.395
		c0,0-3.6,0.979-10.468,0.979c-20.285,0-32.064-9.324-32.064-34.843v-30.264h-8.342v-22.084h8.342v-18.158h27.319V424.255z"/>
	<g>
		<path d="M848.643,393.783c0.831-2.325-0.183-4.291-16.026-25.014c-8.368-10.947-11.337-16.201-11.337-16.201
			s4.839,0.847,22.666-9.948c18.737-11.346,14.921-32.279,14.193-44.414c-0.536-9.095,6.75-22.158,6.75-22.158
			s-6.49,0.329-11.763,4.137c-14.869,10.729-19.001,38.133-30.38,37.746c-4.708-0.159-6.492-2.402-9.257-6.351
			c1.447-0.915,2.772-2.021,3.88-3.376c3.159-3.86,4.444-10.141,3.649-15.009c-1.013-6.229-6.374-11.477-12.505-12.644
			c2.264-6.019,0.367-12.515-4.775-16.338c-0.945-0.703-3.86-1.743-4.071-2.735c-0.302-1.396-0.954-2.691-1.813-3.824
			c-1.914-2.51-4.699-4.263-7.447-5.728c-1.49-0.794-3.019-1.514-4.558-2.206c-1.39-0.627-3.183-1.066-4.164-2.317
			c-1.785-2.271,2.551-4.078,4.066-4.757c2.188-0.983,4.567-1.849,5.938-3.959c1.135-1.747,1.26-3.901,1.559-5.91
			c-1.982,2.402-3.601,3.79-7.369,3.819c-3.934,0.031-7.74-0.592-11.686-0.049c-3.234,0.447-6.584,1.49-8.954,3.849
			c-2.719,2.709-3.81,7.053-3.314,10.784c-4.155-0.1-7.403,3.383-7.268,7.524c-4.796-0.579-10.876-0.486-14.287,3.533
			c-0.952,1.121-1.595,2.477-1.932,3.903c-0.197,0.837,0.069,1.913-0.883,1.973c-0.844,0.054-1.683,0.159-2.516,0.312
			c-4.663,0.86-8.817,3.275-11.467,6.963c-11.66-2.452-15.07-6.472-15.01-10.779c0.076-5.654,13.065-16.049,21.584-24.07
			c29.417-27.699,22.437-44.1,18.721-49.475c-3.056,6.112-7.402,14.45-17.956,23.494c-13.371,11.462-28.837,16.114-49.085,27.358
			c-16.688,9.268-27.298,26.776-23.693,46.379c3.438,18.721,31.777,26.705,31.777,26.705s-23.871,11.032-35.044,25.28
			c-7.276,9.274-13.573,17.195-2.199,18.485c11.374,1.296,33.041-3.002,33.041-3.002s0.593,8.531,7.829,19.9
			c7.151,11.227,20.121,17.524,34.222,19.608c23.644,3.496,30.093,14.524,51.528,27.497c17.56,10.63,28.881,10.373,39.089,4.726
			C858.543,452.688,871.679,407.879,848.643,393.783z M700.288,328.375c-4.465,4.505-14.284,14.969-26.072,18.12
			c-11.787,3.155-16.995,0.96-16.995,0.96s6.438-9.613,14.7-16.314c8.254-6.7,24.515-14.382,24.515-14.382s5.043,1.489,10.864,2.971
			C723.321,323.807,706.698,328.375,700.288,328.375z M719.638,287.432c-0.148,2.093-1.446,6.995-3.227,12.144
			c-8.655-3.643-28.879-11.741-30.324-21.232c-3.645-23.94,26.152-39.237,41.777-51.153c-5.947,3.978-9.5,5.54-13.678,7.448
			c-45.75,20.89-51.776,39.417-50.447,52.905c0.107,1.08,0.327,2.161,0.635,3.222c-0.955-1.752-1.629-3.66-1.863-5.733
			c-0.928-8.267-0.492-19.479,13.758-32.937c6.508-6.145,14.439-10.613,22.689-14.01c32.102-13.221,44.253-28.14,49.718-39.188
			c1.527,6.91-0.658,15.192-15.109,32.582c-9.25,11.128-36.353,24.062-30.856,38.024c1.63,4.141,4.961,6.378,12.9,9.38
			C719.081,280.529,719.881,283.903,719.638,287.432z M829.006,321.615c11.998-7.816,12.71-33.059,29.727-40.284
			c-6.475,9.871-4.32,19.07-3.882,24.935c0.739,9.93-3.435,21.291-8.36,25.314c3.62-13.072,2.613-24.234,2.613-24.234
			s-2.508,22.984-26.84,20.611c-5.173-0.506-8.076-3.211-8.076-5.882C821.639,324.909,823.903,324.94,829.006,321.615z
			 M725.716,283.643c0.63-13.409,14.637-12.719,14.637-12.719s2.655,4.844,8.291,7.322c5.252,2.312,14.296,3.287,14.296,3.287
			s-22.03-5.918-19.753-15.046c1.431-5.737,8.603-5.334,12.919-4.666c4.373,0.673,7.707,1.773,18.228,3.145
			c-8.415-1.298-15.776-4.69-15.01-8.526c0.849-4.253,5.773-3.783,10.848-1.534c-3.067-1.4-5.589-3.839-3.179-10.414
			c2.653-7.229,15.634-4.786,15.634-4.786c-4.513,2.42-5.854,3.901-5.925,5.403c-0.071,1.508,0.735,4.242,7.533,7.311
			c6.798,3.067,10.945,5.711,10.923,8.928c-0.024,5.111-9.47,5.196-9.47,5.196s3.375,0.312,6.16-0.334
			c9.342-2.164,12.113,1.703,12.979,6.142c2.594,13.325-25.338,11.047-25.338,11.047s6.171,1.379,13.917,0.548
			c6.888-0.739,13.836-3.433,18.953,1.463c3.913,3.742,4.443,7.338,3.512,12.235c-0.924,4.9-2.691,12.177-27.424,11.868
			c0,0-11.841,0.49-20.462-0.836C759.358,307.346,724.902,301.062,725.716,283.643z M767.186,349.874
			c-8.204-1.145-11.851-5.894-13.221-12.378c-0.93-4.406-0.214-7.086,2.159-11.12c8.279,5.719,16.489,14.752,22.3,21.865
			C775.164,350.312,772.017,350.547,767.186,349.874z M781.433,336.898c-10.613-13.745-20.471-20.655-27.161-24.328
			c0.501,0.127,0.995,0.25,1.492,0.371c9.188,2.24,18.397,3.329,27.86,3.329c6.508,0,13.137,0.09,19.561-1.061
			c1.153-0.208,2.319-0.463,3.475-0.774c5.112,9.449,6.443,17.776,6.443,17.776s-6.265,6.589-3.323,11.268
			c3.567,5.676,19.765,27.165,29.261,39.493c-5.426-0.7-10.728-0.16-15.523,1.732C816.427,376.453,791.771,350.285,781.433,336.898z
			 M812.817,401.321c-0.534,0.891-0.806,1.896-0.963,2.914c-0.04,0.277-0.365,2.952-0.079,3.026
			c-4.162-1.089-5.159-17.862,20.813-21.589c11.395-1.636,12.849,6.588,13.144,6.934c-1.604,0.261-2.909,0.897-4.111,2.825
			c-0.718,1.158-0.192,3.137-0.31,4.431c-0.338,3.713-3.783,5.757-7.035,6.75c-3.109,0.949-7.111,0.606-9.893-1.144
			c-2.088-1.312-1.475-3.728-2.18-5.729c-0.864-2.465-3.444-2.042-5.442-1.402C815.129,398.863,813.708,399.83,812.817,401.321z
			 M856.039,418.536c-2.491,7.271-10.334,11.336-17.772,10.837c-9.826-0.663-19.366-6.998-21.801-16.882
			c-0.521-2.254-0.976-6.932,0.995-8.596c1.62-1.369,2.812,0.843,3.115,2.136c0.551,1.755,1.312,3.315,2.186,4.933
			c-0.01-0.043-0.024-0.083-0.039-0.124c3.875,5.334,9.775,8.76,16.45,7.854c-0.248,0.017,1.297-0.292,1.252-0.281
			c0.412-0.114,0.816-0.254,1.214-0.413c0.96-0.387,1.866-0.906,2.682-1.55c1.429-1.115,2.555-2.598,3.247-4.276
			c0.798-1.944,0.83-4.807,0.786-5.749c-0.129-2.683-2.32-6.745-2.568-7.205c-0.364-0.577-0.036-1.42,0.635-1.574
			c0.689-0.158,1.615,0.619,2.148,0.977C854.894,402.869,858.595,411.078,856.039,418.536z"/>
	</g>
</g>
<g>
	<path d="M425.478-102.002c11.25,0,18.451,6.551,18.451,17.501S436.729-67,425.478-67h-10.301v-35.002H425.478z M423.728-94.602
		V-74.4h1.75c5.75,0,9.55-3.4,9.55-10.101s-3.8-10.101-9.55-10.101H423.728z"/>
	<path d="M456.477-83.852c2.3,0,4.1,0.551,5.05,0.951v-0.951c0-1.6-1.3-2.85-4-2.85c-2.3,0-4.55,0.65-6.601,1.65l-3.1-5.601
		c2.8-1.851,6.35-3.251,10.701-3.251c9.05,0,11.351,4.65,11.351,10.651V-67h-7.451l-0.45-1.45c-1.35,1.351-3.25,2.101-5.951,2.101
		c-5.15,0-9.75-3.101-9.75-8.801C446.276-80.4,450.277-83.852,456.477-83.852z M458.177-72.75c2,0,3.5-0.95,3.5-2.701
		c0-1.799-1.55-2.799-3.55-2.799c-2,0-3.5,1.1-3.5,2.799C454.627-73.7,456.227-72.75,458.177-72.75z"/>
	<path d="M489.477-85.401c-0.35-0.05-0.75-0.1-1.35-0.1c-4.05,0-5.4,2.95-5.4,6.9V-67h-8.351v-26.252h8.151v3.5
		c1.25-2.55,3.7-4.15,6.95-4.15V-85.401z"/>
	<path d="M509.176-81.251L518.327-67h-9.801l-7.351-12.251V-67h-8.351v-36.152h8.351v20.451l7.101-10.551h9.351L509.176-81.251z"/>
	<path d="M543.476-93.902c8.451,0,14.401,5.801,14.401,13.752c0,7.9-6.1,13.801-14.401,13.801c-8.351,0-14.25-5.801-14.25-13.701
		C529.225-88.002,535.375-93.902,543.476-93.902z M543.476-73.7c3.45,0,6.05-2.7,6.05-6.45c0-3.851-2.65-6.4-6.05-6.4
		c-3.45,0-5.9,2.65-5.9,6.5C537.575-76.25,540.076-73.7,543.476-73.7z"/>
	<path d="M576.726-82.65c0-2.451-1.45-3.751-3.45-3.751c-2.3,0-3.601,1.65-3.601,3.751V-67h-8.351v-26.252h8.151v2.701
		c1-1.551,3.3-3.352,6.6-3.352c8.201,0,9,7.001,9,12.352V-67h-8.35V-82.65z"/>
	<path d="M600.173-67v-35.002h8.551v27.352h10.5V-67H600.173z"/>
	<path d="M621.823-99.352c0-2.65,2-4.551,4.65-4.551c2.65,0,4.7,1.9,4.7,4.551c0,2.6-2.05,4.5-4.7,4.5
		C623.823-94.852,621.823-96.752,621.823-99.352z M630.723-67h-8.35v-26.252h8.35V-67z"/>
	<path d="M653.573-69c-0.55,0.65-3,2.65-7,2.65c-7.6,0-12.4-5.65-12.4-13.801c0-8.051,5.3-13.752,12.851-13.752
		c3.85,0,6.351,1.851,7.101,2.701v-2.051h7.8v23.102c0,9.701-6.75,12.751-14.551,12.751c-3.7,0-7.351-1.05-9.701-2.25l2.45-6.4
		c0.75,0.351,3.7,1.601,7.25,1.601c3.1,0,6.2-0.701,6.2-3.9V-69z M648.123-86.551c-3.35,0-5.601,2.449-5.601,6.35
		c0,3.851,2.25,6.501,5.65,6.501c3.3,0,5.65-2.351,5.65-6.501C653.823-83.701,651.723-86.551,648.123-86.551z"/>
	<path d="M682.023-82.65c0-2.451-1.45-3.751-3.45-3.751c-2.3,0-3.7,1.65-3.7,3.751V-67h-8.35v-36.152h8.35v12.602
		c1-1.551,3.2-3.352,6.5-3.352c8.201,0,9,7.001,9,12.352V-67h-8.351V-82.65z"/>
	<path d="M704.022-93.252h4.45v6.751h-4.45v9.65c0,2.3,1.55,2.851,3.25,2.851c0.45,0,0.85,0,1.399-0.051v7.15
		c0,0-1.1,0.301-3.2,0.301c-6.2,0-9.8-2.851-9.8-10.65v-9.251h-2.55v-6.751h2.55v-5.55h8.351V-93.252z"/>
</g>
</svg>
