<?xml version="1.0" encoding="utf-8"?>
<!-- Generator: Adobe Illustrator 15.1.0, SVG Export Plug-In . SVG Version: 6.00 Build 0)  -->
<!DOCTYPE svg PUBLIC "-//W3C//DTD SVG 1.1//EN" "http://www.w3.org/Graphics/SVG/1.1/DTD/svg11.dtd">
<svg version="1.1" id="Ebene_1" xmlns="http://www.w3.org/2000/svg" xmlns:xlink="http://www.w3.org/1999/xlink" x="0px" y="0px"
	 width="1121.916px" height="793.915px" viewBox="0 0 1121.916 793.915" enable-background="new 0 0 1121.916 793.915"
	 xml:space="preserve">
<g>
	<path fill="#E2007A" d="M331.412,300.808h14.56v22.084h-14.56v31.573c0,7.524,5.07,9.322,10.632,9.322c1.473,0,2.782,0,4.583-0.163
		v23.394c0,0-3.599,0.98-10.47,0.98c-20.286,0-32.063-9.325-32.063-34.843v-30.264h-8.342v-22.084h8.342v-18.159h27.318V300.808z"/>
	<path fill="#E2007A" d="M383.107,350.865c0.653,7.687,8.014,14.231,18.157,14.231c10.306,0,16.359-6.707,17.992-9.162
		l17.997,13.907c-2.455,5.069-14.234,18.974-36.48,18.974c-28.301,0-45.64-19.467-45.64-44.82c0-25.193,17.011-45.314,42.205-45.314
		c27.318,0,42.205,17.504,42.205,46.784c0,1.638,0,3.438-0.165,5.4H383.107z M383.924,333.526h27.809
		c-0.324-6.872-5.396-12.762-13.904-12.762C388.832,320.765,384.579,327.472,383.924,333.526z"/>
	<path fill="#E2007A" d="M479.297,331.562c7.524,0,13.414,1.8,16.521,3.109v-3.109c0-5.235-4.253-9.325-13.087-9.325
		c-7.524,0-14.887,2.128-21.594,5.4l-10.142-18.322c9.161-6.052,20.775-10.634,35.008-10.634c29.608,0,37.135,15.214,37.135,34.846
		v53.164h-24.376l-1.473-4.745c-4.417,4.418-10.633,6.87-19.466,6.87c-16.85,0-31.9-10.143-31.9-28.791
		C445.924,342.848,459.013,331.562,479.297,331.562z M484.858,367.876c6.542,0,11.451-3.106,11.451-8.831
		c0-5.89-5.071-9.162-11.616-9.162c-6.542,0-11.449,3.6-11.449,9.162C473.244,364.77,478.479,367.876,484.858,367.876z"/>
	<path fill="#E2007A" d="M611.064,386.69h-27.319v-51.202c0-7.689-3.762-12.27-10.306-12.27c-6.379,0-10.469,4.418-10.469,12.27
		v51.202h-27.32v-85.883h26.666v8.835c2.944-5.235,9.814-10.962,21.266-10.962c10.143,0,17.668,4.255,22.247,11.289
		c5.235-6.707,13.252-11.289,24.375-11.289c19.793,0,29.117,12.759,29.117,30.918v57.092h-27.318v-51.202
		c0-7.689-3.928-12.27-10.47-12.27c-6.38,0-10.469,4.907-10.469,12.27V386.69z"/>
	<path fill="#E2007A" d="M330.499,521.138H304.98V402.864h27.318V441.8c1.8-2.127,9.815-8.672,22.901-8.672
		c24.866,0,40.57,18.486,40.57,45.149c0,26.339-17.341,44.985-42.042,44.985c-12.597,0-20.774-6.052-23.229-8.832V521.138z
		 M349.965,499.382c10.96,0,18.485-8.18,18.485-20.939c0-12.597-7.36-21.266-18.485-21.266c-10.794,0-18.483,7.687-18.483,21.266
		C331.481,489.892,338.188,499.382,349.965,499.382z"/>
	<path fill="#E2007A" d="M432.104,486.457c0,8.015,4.743,12.27,11.288,12.27c7.521,0,11.776-5.399,11.776-12.27v-51.202h27.318
		v85.883h-26.665v-8.834c-3.271,5.072-10.795,10.959-21.592,10.959c-26.827,0-29.445-22.901-29.445-40.405v-47.603h27.319V486.457z"
		/>
	<path fill="#E2007A" d="M495.82,402.864h27.318v118.273H495.82V402.864z"/>
	<path fill="#E2007A" d="M535.65,402.864h27.32v118.273h-27.32V402.864z"/>
	<path fill="#E2007A" d="M636.734,514.593c-1.8,2.128-9.814,8.67-22.902,8.67c-24.865,0-40.569-18.484-40.569-45.147
		c0-26.339,17.341-44.987,42.042-44.987c12.595,0,20.774,6.055,23.229,8.834v-6.707h25.52v75.576
		c0,31.735-22.084,41.715-47.604,41.715c-12.104,0-24.048-3.435-31.734-7.362l8.016-20.938c2.454,1.145,12.104,5.234,23.719,5.234
		c10.144,0,20.285-2.289,20.285-12.759V514.593z M618.904,457.177c-10.961,0-18.323,8.015-18.323,20.773
		c0,12.597,7.362,21.267,18.484,21.267c10.797,0,18.486-7.688,18.486-21.267C637.552,466.501,630.681,457.177,618.904,457.177z"/>
	<path fill="#E2007A" d="M674.92,415.299c0-8.672,6.544-14.887,15.213-14.887c8.67,0,15.377,6.215,15.377,14.887
		c0,8.505-6.707,14.722-15.377,14.722C681.464,430.021,674.92,423.804,674.92,415.299z M704.037,521.138h-27.318v-85.883h27.318
		V521.138z"/>
	<path fill="#E2007A" d="M749.351,435.255h14.56v22.084h-14.56v31.573c0,7.524,5.072,9.322,10.634,9.322c1.472,0,2.78,0,4.579-0.163
		v23.395c0,0-3.6,0.979-10.468,0.979c-20.285,0-32.064-9.324-32.064-34.843v-30.264h-8.342v-22.084h8.342v-18.158h27.319V435.255z"
		/>
	<g>
		<path fill="#E2007A" d="M806.396,320.674c23.155,0.289,24.811-6.521,25.675-11.111c0.871-4.584,0.372-7.952-3.288-11.455
			c-4.791-4.584-11.296-2.061-17.744-1.369c-7.251,0.778-13.029-0.513-13.029-0.513s26.149,2.133,23.721-10.343
			c-0.808-4.155-3.405-7.775-12.149-5.749c-2.606,0.604-5.766,0.312-5.766,0.312s8.844-0.08,8.867-4.865
			c0.019-3.011-3.862-5.484-10.229-8.357c-6.363-2.873-7.117-5.434-7.053-6.845c0.066-1.406,1.324-2.793,5.55-5.059
			c0,0-12.153-2.287-14.637,4.479c-2.259,6.157,0.104,8.439,2.976,9.751c-4.752-2.106-9.361-2.546-10.157,1.436
			c-0.718,3.591,6.177,6.771,14.055,7.983c-9.854-1.282-12.975-2.314-17.068-2.944c-4.04-0.624-10.756-1.002-12.094,4.37
			c-2.131,8.546,18.493,14.087,18.493,14.087s-8.468-0.914-13.384-3.078c-5.276-2.32-7.762-6.854-7.762-6.854
			s-13.114-0.647-13.704,11.903c-0.763,16.311,31.496,22.193,39.571,23.438C795.309,321.133,806.396,320.674,806.396,320.674z"/>
		<path fill="#E2007A" d="M776.135,336.463c-2.22,3.775-2.892,6.285-2.021,10.41c1.281,6.071,4.697,10.518,12.378,11.588
			c4.523,0.633,7.472,0.41,10.521-1.528C791.572,350.273,783.886,341.816,776.135,336.463z"/>
		<path fill="#E2007A" d="M738.208,291.998c-7.436-2.809-10.552-4.904-12.079-8.781c-5.146-13.071,20.23-25.181,28.889-35.6
			c13.529-16.279,15.576-24.033,14.144-30.504c-5.114,10.345-16.49,24.311-46.546,36.688c-7.721,3.181-15.149,7.363-21.238,13.116
			c-13.344,12.6-13.752,23.098-12.884,30.836c0.221,1.941,0.851,3.729,1.746,5.368c-0.29-0.991-0.493-2.004-0.596-3.015
			c-1.246-12.631,4.399-29.974,47.229-49.533c3.913-1.784,7.239-3.25,12.807-6.974c-14.627,11.157-42.526,25.478-39.114,47.892
			c1.353,8.886,20.288,16.468,28.39,19.879c1.669-4.819,2.884-9.409,3.025-11.368C742.203,296.699,741.455,293.541,738.208,291.998z
			"/>
		<path fill="#E2007A" d="M860.077,404.662c0.235,0.429,2.285,4.232,2.405,6.745c0.041,0.883,0.013,3.56-0.733,5.381
			c-0.649,1.572-1.704,2.958-3.04,4.005c-0.765,0.602-1.615,1.089-2.512,1.45c-0.374,0.148-0.751,0.278-1.136,0.388
			c0.039-0.011-1.406,0.278-1.177,0.263c-6.246,0.847-11.772-2.361-15.396-7.355c0.013,0.041,0.024,0.077,0.034,0.118
			c-0.817-1.513-1.53-2.976-2.044-4.617c-0.284-1.211-1.4-3.281-2.919-1.999c-1.843,1.557-1.417,5.936-0.931,8.046
			c2.281,9.255,11.213,15.184,20.411,15.805c6.962,0.469,14.306-3.338,16.637-10.146c2.396-6.979-1.068-14.666-6.995-18.644
			c-0.496-0.334-1.362-1.062-2.008-0.913C860.045,403.332,859.736,404.12,860.077,404.662z"/>
		<path fill="#E2007A" d="M730.428,330.241c-5.452-1.389-10.171-2.782-10.171-2.782s-15.228,7.192-22.954,13.465
			c-7.735,6.273-13.761,15.273-13.761,15.273s4.874,2.055,15.909-0.898c11.036-2.951,20.23-12.747,24.409-16.964
			C729.86,338.335,745.425,334.059,730.428,330.241z"/>
		<path fill="#E2007A" d="M847.724,391.978c-24.314,3.489-23.382,19.192-19.486,20.214c-0.267-0.072,0.035-2.575,0.072-2.836
			c0.15-0.953,0.403-1.894,0.903-2.728c0.836-1.395,2.164-2.301,3.693-2.794c1.869-0.599,4.287-0.995,5.095,1.312
			c0.657,1.876,0.085,4.138,2.038,5.365c2.605,1.64,6.353,1.96,9.265,1.071c3.046-0.931,6.271-2.843,6.587-6.319
			c0.11-1.212-0.383-3.065,0.289-4.148c1.127-1.807,2.348-2.4,3.85-2.646C859.755,398.146,858.393,390.447,847.724,391.978z"/>
		<path fill="#E2007A" d="M844.371,332.006c-4.777,3.112-6.898,3.084-13.872,0.43c0,2.503,2.716,5.033,7.56,5.508
			c22.779,2.221,25.127-19.297,25.127-19.297s0.944,10.45-2.445,22.688c4.612-3.766,8.517-14.402,7.827-23.698
			c-0.411-5.491-2.427-14.103,3.634-23.345C856.271,301.056,855.603,324.688,844.371,332.006z"/>
		<path fill="#E2007A" d="M886.239,284.199l-8.516,0.429c-0.761,0.04-7.639,0.502-13.538,4.761
			c-7.457,5.382-12.079,14.145-16.159,21.875c-2.956,5.604-6.635,12.574-9.297,12.574l-0.063-0.002
			c-0.953-0.032-1.557-0.113-2.22-0.611c0.234-0.256,0.461-0.518,0.682-0.784c3.652-4.465,5.43-11.62,4.424-17.802
			c-0.984-6.044-5.271-11.446-10.85-14.162c0.574-6.126-2.023-12.171-7.173-16.001c-0.616-0.459-1.295-0.803-2.018-1.17
			c-0.134-0.068-0.3-0.153-0.469-0.241c-0.475-1.33-1.172-2.602-2.08-3.795c-2.434-3.196-5.828-5.245-8.513-6.676
			c-0.758-0.403-1.544-0.797-2.421-1.219c9.125-3.797,6.734-18.098,5.225-25.991c-1.636,5.713-4.431,12.861-16.748,12.043
			c-13.868-0.921-19.907,9.103-19.654,14.867c-1.315,0.579-2.52,1.418-3.556,2.487c-0.948,0.98-1.709,2.124-2.257,3.363h-0.002
			c-5.854-0.002-10.312,1.754-13.252,5.218c-1.036,1.222-1.853,2.665-2.4,4.231c-4.472,0.856-8.425,2.903-11.424,5.875
			c-4.785-1.299-7.582-2.994-7.634-4.697c0.59-2.785,9.084-10.461,13.658-14.595c1.792-1.619,3.483-3.149,5.066-4.638
			c29.751-28.017,22.622-46.009,18.173-52.441l-4.538-6.565l-3.569,7.138c-2.473,4.947-6.212,12.426-15.658,20.523
			c-7.608,6.52-16.283,10.685-26.325,15.503c-5.627,2.703-12.001,5.763-18.851,9.567c-18.429,10.234-28.058,29.232-24.535,48.403
			c2.316,12.611,14.194,20.529,23.074,24.78c-7.762,4.477-18.565,11.657-25.203,20.119l-0.136,0.173
			c-5.887,7.504-10.536,13.432-8.158,19.118c1.327,3.174,4.496,5.065,9.417,5.624c1.501,0.17,3.232,0.257,5.139,0.257
			c7.643,0,17.068-1.363,22.598-2.292c1.01,3.78,3.035,9.347,7.078,15.697c6.924,10.872,19.471,18.151,35.332,20.495
			c14.098,2.083,21.018,7.184,30.591,14.24c4.443,3.276,9.481,6.988,15.897,10.872c9.692,5.865,18.119,8.716,25.76,8.716
			c4.496,0,8.797-0.965,13.083-2.94c7.372,4.241,14.306,6.39,20.65,6.39c10.778,0,19.287-6.428,22.202-16.774
			c3.04-10.806-0.861-22.339-9.538-29.006c-0.325-1.682-1.198-3.377-2.437-5.336c-1.958-3.099-5.517-7.943-13.596-18.517
			c-2.96-3.873-5.184-6.968-6.789-9.295c3.791-1.441,8.984-3.978,16.09-8.277c18.3-11.082,16.745-30.689,15.812-42.405
			c-0.099-1.232-0.191-2.406-0.256-3.499c-0.346-5.824,4.131-15.302,5.726-18.162L886.239,284.199z M871.646,310.09
			c0.682,11.361,4.25,30.961-13.29,41.581c-16.69,10.106-21.222,9.313-21.222,9.313s2.781,4.919,10.616,15.168
			c14.831,19.401,15.782,21.242,15.004,23.42c21.566,13.195,9.268,55.146-28.34,31.562c-9.556,5.286-20.153,5.528-36.593-4.423
			c-20.07-12.146-26.107-22.472-48.243-25.744c-13.202-1.951-25.346-7.849-32.04-18.358c-6.774-10.646-7.33-18.631-7.33-18.631
			s-20.285,4.023-30.934,2.812c-10.65-1.211-4.753-8.626,2.059-17.31c10.46-13.338,32.809-23.669,32.809-23.669
			s-26.532-7.475-29.75-24.999c-3.375-18.353,6.56-34.747,22.182-43.422c18.958-10.529,33.439-14.882,45.955-25.614
			c9.882-8.468,13.951-16.272,16.811-21.995c3.48,5.031,10.017,20.387-17.525,46.319c-7.977,7.511-20.135,17.241-20.21,22.535
			c-0.055,4.033,3.139,7.794,14.056,10.091c2.48-3.451,6.369-5.713,10.734-6.518c0.781-0.145,1.566-0.242,2.355-0.295
			c0.891-0.055,0.644-1.061,0.826-1.844c0.314-1.336,0.921-2.606,1.811-3.655c3.193-3.763,8.885-3.851,13.375-3.309
			c-0.127-3.877,2.916-7.138,6.805-7.043c-0.465-3.495,0.556-7.562,3.102-10.097c2.221-2.21,5.355-3.186,8.385-3.604
			c5.04-0.698,13.951,1.65,17.841-3.529c-0.28,1.881-0.398,3.896-1.459,5.531c-1.286,1.977-3.513,2.787-5.563,3.708
			c-1.418,0.635-5.477,2.328-3.805,4.454c0.918,1.17,2.594,1.583,3.897,2.168c1.44,0.649,2.873,1.323,4.266,2.066
			c2.574,1.369,5.182,3.012,6.974,5.363c0.804,1.059,1.414,2.272,1.696,3.578c0.198,0.93,2.93,1.904,3.812,2.562
			c4.815,3.58,6.593,9.661,4.471,15.296c5.743,1.093,10.759,6.004,11.709,11.837c0.743,4.561-0.46,10.438-3.418,14.053
			c-1.038,1.269-2.275,2.303-3.634,3.161c2.591,3.696,4.26,5.795,8.67,5.945c10.652,0.361,14.521-25.294,28.44-35.339
			c4.936-3.564,11.014-3.873,11.014-3.873S871.143,301.573,871.646,310.09z"/>
		<path fill="#E2007A" d="M829.48,341.927c0,0-1.246-7.797-6.031-16.643c-1.083,0.292-2.175,0.528-3.253,0.725
			c-6.016,1.078-12.222,0.992-18.313,0.992c-8.86,0-17.48-1.019-26.082-3.115c-0.465-0.114-0.931-0.229-1.398-0.348
			c6.264,3.437,15.493,9.906,25.428,22.776c9.679,12.533,32.764,37.031,39.4,44.757c4.492-1.773,9.454-2.275,14.535-1.622
			c-8.891-11.54-24.055-31.66-27.396-36.974C823.616,348.096,829.48,341.927,829.48,341.927z"/>
	</g>
</g>
<g>
	<path fill="#E2007A" d="M412.868-83v-35.002h8.551v27.352h10.501V-83H412.868z"/>
	<path fill="#E2007A" d="M434.518-115.352c0-2.65,2-4.551,4.65-4.551s4.7,1.9,4.7,4.551c0,2.6-2.05,4.5-4.7,4.5
		S434.518-112.752,434.518-115.352z M443.418-83h-8.35v-26.252h8.35V-83z"/>
	<path fill="#E2007A" d="M466.268-85c-0.549,0.65-3,2.65-7,2.65c-7.6,0-12.4-5.65-12.4-13.801c0-8.051,5.301-13.752,12.851-13.752
		c3.851,0,6.351,1.851,7.101,2.701v-2.051h7.801v23.102c0,9.701-6.751,12.751-14.551,12.751c-3.701,0-7.352-1.05-9.701-2.25
		l2.45-6.4c0.75,0.351,3.7,1.601,7.251,1.601c3.1,0,6.199-0.701,6.199-3.9V-85z M460.818-102.551c-3.351,0-5.602,2.449-5.602,6.35
		c0,3.851,2.251,6.501,5.65,6.501c3.301,0,5.65-2.351,5.65-6.501C466.518-99.701,464.418-102.551,460.818-102.551z"/>
	<path fill="#E2007A" d="M494.718-98.65c0-2.451-1.45-3.751-3.45-3.751c-2.3,0-3.7,1.65-3.7,3.751V-83h-8.351v-36.152h8.351v12.602
		c1-1.551,3.2-3.352,6.501-3.352c8.2,0,9,7.001,9,12.352V-83h-8.351V-98.65z"/>
	<path fill="#E2007A" d="M516.717-109.252h4.45v6.751h-4.45v9.65c0,2.3,1.551,2.851,3.25,2.851c0.45,0,0.85,0,1.4-0.051v7.15
		c0,0-1.1,0.301-3.2,0.301c-6.2,0-9.801-2.851-9.801-10.65v-9.251h-2.55v-6.751h2.55v-5.55h8.351V-109.252z"/>
	<path fill="#E2007A" d="M547.967-109.902c8.45,0,14.4,5.801,14.4,13.752c0,7.9-6.1,13.801-14.4,13.801
		c-8.352,0-14.251-5.801-14.251-13.701C533.716-104.002,539.865-109.902,547.967-109.902z M547.967-89.7c3.449,0,6.05-2.7,6.05-6.45
		c0-3.851-2.649-6.4-6.05-6.4c-3.451,0-5.9,2.65-5.9,6.5C542.066-92.25,544.566-89.7,547.967-89.7z"/>
	<path fill="#E2007A" d="M581.217-98.65c0-2.451-1.451-3.751-3.451-3.751c-2.3,0-3.6,1.65-3.6,3.751V-83h-8.352v-26.252h8.151v2.701
		c1-1.551,3.3-3.352,6.601-3.352c8.2,0,9,7.001,9,12.352V-83h-8.35V-98.65z"/>
	<path fill="#E2007A" d="M614.965-118.002c11.25,0,18.451,6.551,18.451,17.501S626.215-83,614.965-83h-10.301v-35.002H614.965z
		 M613.215-110.602V-90.4h1.75c5.75,0,9.551-3.4,9.551-10.101s-3.801-10.101-9.551-10.101H613.215z"/>
	<path fill="#E2007A" d="M645.964-99.852c2.3,0,4.101,0.551,5.05,0.951v-0.951c0-1.6-1.3-2.85-4-2.85c-2.3,0-4.55,0.65-6.6,1.65
		l-3.101-5.601c2.8-1.851,6.351-3.251,10.7-3.251c9.051,0,11.352,4.65,11.352,10.651V-83h-7.451l-0.449-1.45
		c-1.351,1.351-3.251,2.101-5.951,2.101c-5.15,0-9.75-3.101-9.75-8.801C635.764-96.4,639.764-99.852,645.964-99.852z M647.664-88.75
		c2,0,3.5-0.95,3.5-2.701c0-1.799-1.55-2.799-3.551-2.799c-2,0-3.5,1.1-3.5,2.799C644.113-89.7,645.714-88.75,647.664-88.75z"/>
	<path fill="#E2007A" d="M678.964-101.401c-0.351-0.05-0.75-0.1-1.351-0.1c-4.05,0-5.4,2.95-5.4,6.9V-83h-8.35v-26.252h8.15v3.5
		c1.25-2.55,3.7-4.15,6.95-4.15V-101.401z"/>
	<path fill="#E2007A" d="M698.664-97.251L707.814-83h-9.801l-7.352-12.251V-83h-8.35v-36.152h8.35v20.451l7.102-10.551h9.35
		L698.664-97.251z"/>
</g>
</svg>
