<?xml version="1.0" encoding="utf-8"?>
<!-- Generator: Adobe Illustrator 16.0.0, SVG Export Plug-In . SVG Version: 6.00 Build 0)  -->
<!DOCTYPE svg PUBLIC "-//W3C//DTD SVG 1.1//EN" "http://www.w3.org/Graphics/SVG/1.1/DTD/svg11.dtd">
<svg version="1.1" xmlns="http://www.w3.org/2000/svg" xmlns:xlink="http://www.w3.org/1999/xlink" x="0px" y="0px" width="900px"
	 height="900px" viewBox="0 0 900 900" enable-background="new 0 0 900 900" xml:space="preserve">
<symbol  id="bullgit" viewBox="-249.175 -278.28 498.351 556.56">
	<path d="M66.342,62.595c73.723-44.233,60.748-72.84,86.699-73.724c25.949-0.884,35.385,61.633,69.297,86.109
		c12.035,8.686,26.838,9.435,26.838,9.435s-16.627-29.803-15.389-50.548c1.652-27.682,10.357-75.438-32.385-101.32
		c-40.666-24.625-51.715-22.688-51.715-22.688s6.783-11.99,25.871-36.958c36.139-47.273,38.453-51.76,36.557-57.069
		c52.553-32.149,22.588-134.368-69.051-76.908c-23.281-12.879-49.109-13.464-89.168,10.782C5-220.698-9.713-195.54-63.645-187.57
		c-32.169,4.754-61.768,19.123-78.068,44.735c-16.507,25.935-17.863,45.397-17.863,45.397s-49.424-9.801-75.374-6.852
		s-11.578,21.016,5.013,42.17c25.494,32.507,79.947,57.674,79.947,57.674s-64.651,18.215-72.495,60.92
		c-8.213,44.717,15.991,84.657,54.054,105.798c46.186,25.653,81.47,36.262,111.974,62.408c24.073,20.634,33.99,39.655,40.962,53.599
		c8.469-12.263,24.402-49.678-42.705-112.864c-19.436-18.299-49.069-42.006-49.242-54.907c-0.137-10.247,8.308-19.773,37.72-25.284
		c16.729,4.664,27.743,5.783,44.353,5.383C9.225,89.775,46.393,74.565,66.342,62.595z"/>
	<path fill="#FFFFFF" d="M-110.313-15.231c36.545-9.302-1.38-19.718-16.001-19.718c-10.182-10.279-32.581-34.15-59.473-41.343
		s-38.774-2.189-38.774-2.189s14.692,21.932,33.534,37.218s55.934,32.808,55.934,32.808S-123.596-11.85-110.313-15.231z"/>
	<path fill="#FFFFFF" d="M1.06-30.394C-4.352-39.6-5.988-45.708-3.864-55.76C-0.739-70.554,7.58-81.385,26.301-83.997
		c11.014-1.537,18.201-0.999,25.635,3.726C38.678-64.048,19.945-43.439,1.06-30.394z"/>
	<path fill="#FFFFFF" d="M211.455-213.002c0.104-2.148,0.027-8.68-1.791-13.112c-1.576-3.834-4.145-7.207-7.406-9.764
		c-1.861-1.459-3.928-2.646-6.123-3.531c-0.906-0.364-1.828-0.679-2.766-0.943c0.115,0.033-4.602-0.917-2.281-0.564
		c-15.463-2.343-29.15,5.52-38.096,17.848c0.033-0.096,0.061-0.19,0.084-0.288c-1.992,3.686-3.732,7.249-4.992,11.25
		c-0.68,2.954-3.408,7.996-7.104,4.876c-4.496-3.796-3.455-14.47-2.268-19.604c5.557-22.56,27.32-37.003,49.736-38.514
		c16.963-1.144,34.857,8.129,40.545,24.722c5.83,17.008-2.615,35.735-17.051,45.427c-1.211,0.813-3.322,2.588-4.893,2.227
		c-1.531-0.354-2.279-2.277-1.451-3.594C206.166-197.617,211.162-206.881,211.455-213.002z"/>
	<path fill="#FFFFFF" d="M-15.93,260.415c-12.464-25.205-40.178-59.24-113.414-89.396c-18.82-7.75-36.916-17.944-51.759-31.958
		c-32.511-30.697-33.5-56.275-31.386-75.139c0.53-4.728,2.075-9.084,4.255-13.077c-0.708,2.417-1.208,4.881-1.452,7.347
		c-3.034,30.773,10.716,73.035,115.081,120.693c9.528,4.351,17.636,7.918,31.198,16.986
		C-99.043,168.688-167.02,133.8-158.709,79.185c3.295-21.655,49.434-40.131,69.172-48.438c4.067,11.742,7.031,22.924,7.361,27.698
		c0.559,8.05-1.268,15.747-9.18,19.505c-18.108,6.849-25.707,11.947-29.428,21.396c-12.539,31.85,49.293,61.356,70.391,86.743
		C-17.427,225.757-12.44,244.651-15.93,260.415z"/>
	<path fill="#FFFFFF" d="M235.135,72.361c-38.816-16.484-40.453-74.065-67.813-91.895c-11.645-7.589-16.807-7.516-33.803-1.048
		c0-6.094,6.619-12.267,18.424-13.418c55.508-5.414,61.227,47.013,61.227,47.013s2.295-25.458-5.963-55.275
		c11.24,9.174,20.758,35.093,19.07,57.742C225.279,28.864,220.365,49.848,235.135,72.361z"/>
	<path fill="#FFFFFF" d="M123.467-69.412c-6.711,10.677,7.578,25.702,7.578,25.702s-8.629,54.032-52.756,83.239
		C17.279,79.912-37.336,77.297-37.336,77.297s16.301-21.783,20.432-35.993c2.769-9.527,0.97-22.535-1.978-32.622
		c11.03-4.898,42.544-17.574,77.681-63.082c23.58-30.54,79.828-90.232,96.002-109.055c10.939,4.32,23.035,5.549,35.416,3.951
		C168.557-131.38,131.604-82.354,123.467-69.412z"/>
	<path fill="#FFFFFF" d="M175.496-165.659c-59.25-8.502-56.982-46.767-47.482-49.253c-0.648,0.17,0.086,6.268,0.184,6.904
		c0.355,2.327,0.973,4.616,2.191,6.648c2.039,3.397,5.277,5.609,9.002,6.805c4.549,1.461,10.441,2.426,12.412-3.194
		c1.604-4.568,0.209-10.084,4.969-13.074c6.354-3.992,15.48-4.771,22.574-2.604c7.416,2.267,15.273,6.924,16.047,15.392
		c0.27,2.956-0.938,7.473,0.707,10.112c2.742,4.396,5.717,5.846,9.375,6.444C204.809-180.691,201.486-161.93,175.496-165.659z"/>
	<path d="M63.791-7.337c-21.582,0-42.59,2.48-63.548,7.591C-20.344,5.274-41.693,12.188-58.83,25.079
		C-74.385,36.78-83.855,54.091-78.851,73.791c3.882,15.281,16.683,25.219,31.815,28.012c1.896,0.35,3.814,0.591,5.738,0.712
		c2.164,0.137,1.565,2.589,2.014,4.497c0.766,3.258,2.234,6.348,4.406,8.906c7.779,9.169,21.645,9.38,32.593,8.06
		c-0.307,9.45,7.105,17.394,16.577,17.164c-1.133,8.519,1.355,18.421,7.564,24.602c5.402,5.377,13.043,7.76,20.422,8.778
		c9.006,1.243,17.688-0.112,26.66-0.112c7.648,0,11.771,3.674,16.811,8.713c-0.682-4.581-0.967-9.492-3.559-13.48
		c-3.127-4.816-8.551-6.787-13.553-9.031c-3.447-1.547-13.334-5.673-9.271-10.851c2.238-2.854,6.332-3.856,9.502-5.287
		c3.51-1.583,6.996-3.221,10.395-5.031c6.271-3.341,12.623-7.339,16.984-13.069c1.967-2.584,3.451-5.535,4.137-8.721
		c0.486-2.263,7.135-4.637,9.289-6.239c11.736-8.725,16.063-23.54,10.895-37.272c13.986-2.663,26.213-14.629,28.533-28.843
		c1.813-11.107-1.125-25.432-8.334-34.238c-7.902-9.654-20.473-13.848-32.346-15.978C93.764-7.547,78.639-7.337,63.791-7.337z"/>
	<path fill="#FFFFFF" d="M-16,79.399c-12.861,5.656-18.917,16.704-18.917,16.704s-31.954,1.575-33.389-29.015
		C-70.168,27.35,8.436,13.016,28.113,9.986c19.676-3.03,46.686-1.908,46.686-1.908c56.416-0.705,60.443,15.894,62.561,27.072
		c2.115,11.177,0.904,19.381-8.014,27.915c-11.672,11.167-27.527,5.024-43.236,3.335c-17.672-1.899-31.75,1.25-31.75,1.25
		s63.721-5.196,57.801,25.198c-1.973,10.126-8.291,18.947-29.605,14.013c-6.357-1.472-14.049-0.765-14.049-0.765
		s21.547,0.193,21.609,11.855c0.039,7.343-9.418,13.366-24.928,20.367c-15.512,7-17.344,13.24-17.182,16.674
		c0.16,3.435,3.217,6.809,13.52,12.333c0,0-29.619,5.567-35.666-10.925c-5.5-15,0.252-20.558,7.25-23.75
		c-11.58,5.128-22.811,6.198-24.75-3.5c-1.75-8.75,15.047-16.494,34.24-19.449c-23.998,3.119-31.605,5.635-41.578,7.171
		c-9.849,1.516-26.211,2.442-29.473-10.645C-33.641,85.4,16.609,71.9,16.609,71.9S-4.017,74.129-16,79.399z"/>
</symbol>
<g id="Layer_2">
	<rect x="-259.499" y="-53.595" display="none" fill="#EC008C" width="1020" height="1017"/>
	<g display="none">
		<path display="inline" fill="#FFFFFF" d="M420.931,616.978c0,0-0.208,0.683-0.644,1.926c-0.498,1.252-0.966,3.053-1.468,5.207
			c-0.181,1.14-0.524,2.29-0.624,3.626c-0.076,0.643-0.155,1.311-0.238,2.004c-0.027,0.688-0.057,1.401-0.086,2.138
			c-0.051,0.716-0.002,1.471,0.018,2.224c0.038,0.758,0.004,1.508,0.146,2.297c0.121,0.783,0.168,1.561,0.278,2.351
			c0.158,0.78,0.32,1.578,0.485,2.394l0.06,0.3c0.011,0.342-0.007-0.426,0-0.328l0.012,0.046l0.023,0.092l0.048,0.186l0.183,0.746
			c0.119,0.499,0.239,1.004,0.36,1.514l0.184,0.768c0.031,0.123,0.059,0.27,0.093,0.375l0.119,0.255
			c0.151,0.334,0.304,0.671,0.457,1.01c0.146,0.335,0.294,0.665,0.419,0.998c0.188,0.377,0.377,0.758,0.567,1.142
			c0.383,0.763,0.709,1.54,1.201,2.262c1.723,2.962,3.963,5.687,6.615,7.964c2.65,2.278,5.699,4.101,8.944,5.342
			c3.249,1.241,6.696,1.885,10.217,1.886c-1.243,0.031-0.31,0.007-0.571,0.013l0.063-0.004l0.123-0.007l0.247-0.012l0.495-0.021
			l0.989-0.042l0.988-0.043l0.494-0.021c0.171-0.007,0.347-0.013,0.392-0.036c0.316-0.073,0.631-0.142,0.951-0.176l0.481-0.048
			l0.244-0.017l0.311-0.073l1.268-0.29c0.425-0.09,0.86-0.146,1.265-0.307c0.813-0.292,1.686-0.442,2.468-0.821
			c3.238-1.246,6.288-3.062,8.93-5.343c2.646-2.276,4.883-4.997,6.604-7.955c0.495-0.72,0.816-1.497,1.199-2.259
			c0.192-0.386,0.383-0.768,0.571-1.147c0.139-0.394,0.289-0.786,0.443-1.179c0.306-0.784,0.645-1.567,0.835-2.371
			c0.116-0.403,0.231-0.803,0.346-1.198l0.178-0.599l0.048-0.149l0.023-0.075l0.013-0.037c0.003-0.086,0.021,0.624,0.017,0.301
			l0.06-0.375c0.158-0.999,0.313-1.977,0.463-2.933c0.106-0.792,0.154-1.409,0.287-2.138c0.159-0.681,0.119-1.483,0.16-2.227
			c0.023-0.754,0.068-1.507,0.02-2.223c-0.028-0.736-0.056-1.449-0.082-2.138c-0.081-0.68-0.172-1.344-0.236-2.003
			c-0.096-1.337-0.439-2.487-0.618-3.628c-0.517-2.189-1.014-4.019-1.462-5.215c-0.415-1.256-0.637-1.925-0.637-1.925
			s0.617,0.321,1.768,1.012c0.571,0.35,1.313,0.768,2.055,1.388c0.756,0.607,1.716,1.276,2.603,2.187
			c0.901,0.898,1.966,1.902,2.902,3.159c0.492,0.616,1.013,1.268,1.508,1.975c0.455,0.735,0.927,1.497,1.415,2.285
			c0.527,0.79,0.914,1.665,1.334,2.574c0.409,0.924,0.892,1.811,1.229,2.931c0.371,1.06,0.728,2.271,1.031,3.361
			c0.24,0.938,0.485,1.896,0.735,2.876l0.095,0.367c-0.004-0.292,0.019,0.449,0.019,0.395l0.007,0.056l0.015,0.112l0.029,0.225
			l0.101,0.907c0.063,0.613,0.128,1.233,0.192,1.858c0.176,1.263,0.123,2.547,0.112,3.873c-0.015,0.665-0.029,1.337-0.044,2.013
			c-0.063,0.671-0.152,1.348-0.234,2.034c-0.16,1.374-0.347,2.78-0.719,4.164c-1.258,5.602-3.84,11.354-7.779,16.47
			c-3.924,5.115-9.198,9.6-15.407,12.69c-3.093,1.563-6.419,2.738-9.844,3.57l-0.646,0.166l-0.731,0.132l-1.471,0.25
			c-0.981,0.165-1.971,0.296-2.957,0.421c-0.28,0.04-0.435,0.046-0.593,0.055l-0.494,0.028l-0.988,0.057l-0.988,0.057l-0.494,0.028
			l-0.247,0.015l-0.88,0.026c-7.047-0.004-14.141-1.709-20.323-4.824c-6.203-3.097-11.478-7.573-15.394-12.691
			c-3.935-5.115-6.512-10.863-7.769-16.462c-0.376-1.381-0.556-2.787-0.718-4.161c-0.079-0.685-0.158-1.363-0.237-2.038
			c-0.038-0.739-0.053-1.474-0.068-2.194c-0.008-0.716-0.015-1.425-0.021-2.129v-0.521c0.007-0.154,0.032-0.269,0.047-0.405
			l0.104-0.782c0.069-0.519,0.139-1.033,0.206-1.543l0.106-0.76l0.029-0.189l0.015-0.094l0.007-0.048
			c0.004,0.066-0.012-0.732,0.001-0.421l0.094-0.444c0.803-4.729,2.505-8.768,4.328-11.996c0.485-0.788,0.956-1.55,1.41-2.285
			c0.493-0.707,1.017-1.357,1.506-1.975c0.932-1.258,1.997-2.26,2.896-3.16c0.88-0.906,1.871-1.622,2.626-2.228
			c0.756-0.639,1.46-1.009,2.025-1.354C420.302,617.316,420.931,616.978,420.931,616.978z"/>
	</g>
	
		<image display="none" overflow="visible" width="400" height="400" xlink:href="1FFCB85C.jpg"  transform="matrix(1 0 0 1 689 62.8901)">
	</image>
	<g>
		<g>
			<path fill="#1E93D1" d="M650,432.557c0,110.457-89.543,200-200.002,200c-110.455,0-199.999-89.543-199.999-200
				c0-110.46,89.544-200.002,199.999-200.002C560.457,232.555,650,322.097,650,432.557z"/>
			<path fill="none" stroke="#000000" stroke-miterlimit="10" d="M480.906,238.266"/>
			
				<use xlink:href="#bullgit"  width="498.351" height="556.56" id="XMLID_1_" x="-249.175" y="-278.28" transform="matrix(1 0 0 -1 450 368.9023)" overflow="visible"/>
			<g>
				<g>
					<path fill="#1E93D1" d="M190.644,810.314c-5.047,0-9.531-0.407-13.327-1.209c-3.831-0.812-7.285-2.091-10.267-3.801
						c-6.592-3.811-9.934-9.369-9.934-16.521c0-6.068,3.042-11.555,9.041-16.31c1.433-1.119,2.952-2.15,4.532-3.078
						c-1.855-1.993-2.794-4.528-2.794-7.558c0-4.898,2.203-9.125,6.554-12.586c-6.744-3.032-11.282-8.1-13.5-15.084
						c-0.756-2.489-1.138-5.285-1.138-8.322c0-3.054,0.483-5.973,1.437-8.675c0.951-2.698,2.276-5.146,3.94-7.274
						c1.656-2.119,3.613-3.999,5.817-5.587c2.189-1.575,4.564-2.907,7.061-3.96c4.886-2.094,10.091-3.156,15.465-3.156
						c8.197,0,14.971,1.942,20.162,5.776c0.305-1.579,0.459-3.201,0.459-4.841c0-2.047-0.436-3.711-1.296-4.946
						c-0.259-0.372-0.235-0.872,0.058-1.218c1.859-2.193,4.62-3.305,8.205-3.305c2.131,0,3.87,0.606,5.168,1.804
						c2.334,2.008,3.53,4.108,3.53,6.222c0,1.938-0.306,3.664-0.909,5.129c-0.588,1.423-1.364,2.78-2.306,4.035
						c-1.478,2.077-3.391,4.009-5.684,5.737c1.521,3.163,2.291,6.8,2.291,10.825c0,4.354-0.976,8.459-2.901,12.198
						c-1.915,3.721-4.518,6.926-7.735,9.526c-6.569,5.3-14.767,7.986-24.367,7.986c-1.194,0-2.641-0.092-4.306-0.271
						c-1.205,1.298-1.815,2.54-1.815,3.697c0,1.252,0.33,2.15,1.008,2.747c0.784,0.69,1.844,1.235,3.15,1.62
						c2.104,0.566,4.499,0.857,7.096,0.857h5.518c14.235,0,23.776,3.519,28.358,10.457c1.728,2.638,2.604,5.877,2.604,9.629
						c0,3.693-0.633,6.993-1.882,9.807c-1.241,2.79-2.926,5.294-5.008,7.442c-2.067,2.132-4.497,3.993-7.22,5.532
						c-2.701,1.523-5.591,2.78-8.592,3.738C201.278,809.325,195.732,810.314,190.644,810.314z M180.643,774.462
						c-5.046,3.529-7.604,7.526-7.604,11.884c0,3.794,2.199,6.622,6.722,8.646c3.752,1.732,8.446,2.608,13.963,2.608
						c5.027,0,9.74-0.841,14.01-2.499c5.397-2.119,8.023-5.445,8.023-10.167c0-6.278-5.15-9.33-15.745-9.33l-5.699,0.064
						C188.667,775.668,184.075,775.263,180.643,774.462z M190.644,708.047c-6.824,0-11.113,2.681-13.11,8.194
						c-0.685,1.89-1.031,4.279-1.031,7.101s0.421,5.381,1.252,7.607c0.821,2.206,1.953,4.038,3.363,5.447
						c1.408,1.409,3.046,2.465,4.868,3.138c1.842,0.683,3.851,1.028,5.973,1.028c2.131,0,4.165-0.307,6.045-0.913
						c1.855-0.6,3.478-1.485,4.822-2.633c2.917-2.476,4.333-5.92,4.333-10.53c0-5.138-1.333-9.464-3.961-12.86
						C200.213,709.875,196.104,708.047,190.644,708.047z"/>
					<path fill="#1E93D1" d="M274.562,777.721c-0.077,0-0.154-0.009-0.23-0.027c-0.822-0.194-2.125-0.293-3.876-0.293h-20.466
						c-7.219,0-10.88-1.848-10.88-5.49c0-1.764,0.419-3.183,1.245-4.218c0.193-0.242,0.483-0.376,0.781-0.376
						c0.106,0,0.213,0.017,0.317,0.052c0.916,0.307,1.758,0.462,2.505,0.462c1.487,0,2.587-0.383,3.362-1.172
						c1.022-1.039,1.519-2.851,1.476-5.382v-43.003c0-3.448-0.58-4.989-1.066-5.676c-0.633-0.892-1.859-1.344-3.644-1.344
						c-1.476,0-2.825,0.181-4.011,0.536c-0.058,0.018-0.117,0.029-0.176,0.036c-0.086,0.009-0.17,0.014-0.253,0.014
						c-0.827,0-1.931-0.441-2.493-2.547c-0.378-1.46-0.151-2.769,0.673-3.896c0.712-0.973,1.761-1.948,3.208-2.982
						c1.403-1,2.961-1.886,4.632-2.633c3.604-1.715,6.706-2.589,9.198-2.589c2.562,0,4.44,0.383,5.745,1.169
						c1.289,0.779,2.287,1.841,2.97,3.155c1.028,2.059,1.524,5.184,1.524,9.57v51.262c0.111,2.899,1.079,4.615,2.958,5.206
						c0.603,0.202,1.355,0.385,2.253,0.549c0.977,0.176,1.871,0.392,2.656,0.64c0.85,0.266,1.517,0.572,2.036,0.934
						c1.02,0.78,1.519,1.954,1.519,3.516c0,1.765-0.396,3.16-1.178,4.148C275.154,777.584,274.863,777.721,274.562,777.721z
						 M253.903,687.26c-1.566,0-3.031-0.247-4.356-0.735c-1.342-0.495-2.526-1.226-3.52-2.171c-2.08-1.985-3.133-4.668-3.133-7.975
						c0-3.189,1.233-5.921,3.666-8.119c2.306-2.168,5.126-3.273,8.369-3.273c3.254,0,5.909,1.005,7.893,2.986
						c1.982,1.983,2.988,4.682,2.988,8.021c0,3.183-1.186,5.91-3.523,8.107C260.001,686.2,257.183,687.26,253.903,687.26z"/>
					<path fill="#1E93D1" d="M310.907,778.619c-3.448,0-6.304-0.199-8.485-0.592c-2.286-0.411-4.267-1.253-5.887-2.503
						c-3.325-2.585-5.009-7.276-5.009-13.944v-49.492h-5.352c-1.667,0-2.915-0.575-3.707-1.711c-1.147-1.479-1.72-2.77-1.72-3.908
						c0-2.015,0.626-3.184,1.861-3.476c6.521-1.108,10.986-5.837,13.711-14.468c0.789-2.619,1.425-5.781,1.887-9.387
						c0.056-0.438,0.392-0.787,0.828-0.859c2.124-0.354,3.699-0.525,4.815-0.525c1.383,0,2.573,0.68,3.538,2.02
						c0.895,1.242,1.336,2.695,1.312,4.32c-0.021,1.418-0.055,2.75-0.097,3.996c-0.043,1.24-0.086,2.586-0.128,4.037l-0.227,7.953
						h21.168c0.36,0,0.693,0.194,0.871,0.509c0.639,1.132,0.963,2.355,0.963,3.636v1.988c0,2.168-1.137,3.937-3.38,5.257
						c-2.07,1.219-4.389,1.837-6.89,1.837c-2.386,0-4.043-0.032-5.069-0.098c-1.014-0.065-1.997-0.14-2.945-0.227l-2.867-0.39
						c-0.625-0.054-1.3-0.109-2.01-0.166l-0.063,20.221l-0.064,16.876c0,9.001,0.616,11.556,0.983,12.277
						c0.592,1.168,1.246,1.86,1.945,2.057c0.89,0.253,2.071,0.381,3.515,0.381c1.474,0,2.825-0.113,4.017-0.336
						c1.206-0.225,2.355-0.524,3.418-0.893c1.076-0.372,2.125-0.791,3.119-1.247l3.167-1.357c0.26-0.095,0.467-0.131,0.677-0.131
						c1.427,0,2.421,1.621,3.045,2.841c0.324,0.594,0.495,1.305,0.495,2.09c0,0.788-0.289,1.727-0.884,2.868
						c-0.577,1.108-1.631,2.308-3.221,3.667c-1.531,1.311-3.337,2.488-5.366,3.502C318.48,777.481,314.452,778.619,310.907,778.619z
						"/>
					<path fill="#1E93D1" d="M375.482,778.619c-4.812,0-9.371-0.832-13.551-2.474c-4.206-1.653-7.878-4.12-10.915-7.334
						c-6.48-6.785-9.769-16.213-9.769-28.019c0-13.389,4.157-24.313,12.356-32.467c7.477-7.388,16.239-11.133,26.048-11.133
						c6.45,0,11.921,1.413,16.259,4.199c4.689,3.007,7.067,7.047,7.067,12.006c0,2.758-0.644,4.898-1.912,6.363
						c-2.106,2.483-4.619,3.746-7.461,3.746c-2.723,0-4.722-0.325-6.112-0.996c-0.354-0.171-0.576-0.534-0.565-0.929l0.064-2.311
						c0-0.487-0.097-1.589-0.559-3.916c-0.331-1.672-1.384-3.018-3.221-4.115c-1.909-1.141-4.393-1.72-7.379-1.72
						c-2.974,0-5.64,0.755-7.923,2.244c-2.313,1.509-4.223,3.563-5.676,6.107c-2.808,4.951-4.231,11.714-4.231,20.098
						c0,7.862,1.916,14.326,5.693,19.213c3.857,5.006,8.803,7.439,15.121,7.439c5.776,0,11.388-1.614,16.678-4.798
						c1.264-0.772,2.261-1.457,2.96-2.033c0.18-0.147,0.404-0.228,0.636-0.228c0.752,0,1.488,0.457,2.251,1.397
						c1.242,1.438,1.829,2.593,1.829,3.612c0,0.947-0.343,1.959-1.049,3.095c-0.642,1.029-1.568,2.13-2.756,3.272
						c-1.168,1.124-2.579,2.269-4.192,3.402c-1.627,1.143-3.472,2.188-5.484,3.106C385.092,777.553,380.312,778.619,375.482,778.619
						z"/>
					<path fill="#1E93D1" d="M498.664,777.721c-0.076,0-0.154-0.009-0.23-0.027c-0.821-0.194-2.126-0.293-3.876-0.293h-20.466
						c-4.471,0-7.309-0.838-8.675-2.561c-0.605-0.71-0.923-1.575-0.923-2.545c0-2.088,0.385-3.592,1.178-4.598
						c0.192-0.245,0.484-0.381,0.785-0.381c0.103,0,0.205,0.016,0.307,0.048c0.96,0.31,2.022,0.466,3.157,0.466
						c0.925,0,1.576-0.3,2.052-0.942c0.368-0.5,0.829-1.667,0.928-4.381l-0.001-39.101c0-6.786-1.856-10.452-5.675-11.209
						c-1.256-0.242-2.865-0.365-4.777-0.365c-1.9,0-4.02,0.292-6.299,0.868c-2.308,0.583-4.509,1.34-6.541,2.251
						c-3.861,1.752-7.071,3.852-9.546,6.243V761.9c0,3.102,0.953,4.933,2.914,5.598c0.657,0.246,1.42,0.446,2.297,0.606
						c0.978,0.177,1.871,0.392,2.655,0.639c0.852,0.268,1.518,0.573,2.035,0.936c1.02,0.779,1.519,1.953,1.519,3.515
						c0,1.724-0.419,3.12-1.246,4.152c-0.192,0.24-0.481,0.375-0.78,0.375c-0.08,0-0.161-0.01-0.241-0.029
						c-0.776-0.193-2.077-0.291-3.865-0.291h-20.466c-4.47,0-7.308-0.837-8.675-2.56c-0.605-0.713-0.923-1.578-0.923-2.546
						c0-2.049,0.407-3.554,1.246-4.603c0.193-0.242,0.483-0.376,0.781-0.376c0.106,0,0.213,0.017,0.317,0.052
						c0.915,0.307,1.995,0.462,3.211,0.462c0.971,0,1.637-0.355,2.094-1.117c0.372-0.62,0.805-2.065,0.756-5.438V681.77
						c0-3.578-0.449-4.755-0.718-5.138c-0.724-1.103-2.004-1.626-3.929-1.626h-1.283c-0.307,0-0.679,0.046-1.104,0.138
						c-0.241,0.053-0.481,0.08-0.709,0.08c-0.455,0-0.874-0.106-1.244-0.316c-0.457-0.255-0.864-0.616-1.206-1.07
						c-1.272-1.877-0.163-4.146,3.27-6.784c4.481-3.416,9.132-5.146,13.826-5.146c5.367,0,8.551,3.035,9.205,8.777
						c0.176,1.621,0.264,3.342,0.264,5.119v32.86c6.075-4.792,12.606-8.224,19.443-10.211c2.766-0.834,5.615-1.259,8.46-1.259
						c2.84,0,5.589,0.38,8.17,1.13c2.638,0.768,4.938,2.028,6.84,3.748c4.133,3.685,6.231,9.332,6.231,16.78V761.9
						c0,3.102,0.953,4.933,2.914,5.598c0.657,0.246,1.42,0.446,2.297,0.606c0.977,0.177,1.871,0.392,2.655,0.639
						c0.852,0.268,1.518,0.573,2.035,0.936c1.02,0.778,1.519,1.952,1.519,3.515c0,1.765-0.396,3.16-1.178,4.148
						C499.256,777.584,498.966,777.721,498.664,777.721z"/>
					<path d="M541.393,778.619c-7,0-14.068-1.606-21.009-4.773c-2.283-1.009-4.28-2.199-5.925-3.534
						c-0.234-0.189-0.37-0.475-0.37-0.776V681.77c0-3.578-0.449-4.755-0.718-5.138c-0.724-1.103-2.004-1.626-3.929-1.626
						c-0.954,0-1.854,0.09-2.677,0.267c-0.524,0.112-0.965,0.166-1.349,0.166c-0.489,0-0.885-0.089-1.21-0.271
						c-0.466-0.262-0.873-0.623-1.211-1.076c-1.275-1.939-0.113-4.208,3.418-6.794c4.855-3.576,9.739-5.391,14.513-5.391
						c5.367,0,8.551,3.035,9.205,8.777c0.176,1.621,0.264,3.342,0.264,5.119v29.154c6.158-5.154,13.042-7.764,20.493-7.764
						c8.977,0,16.392,3.153,22.04,9.373c6.131,6.657,9.242,16.038,9.242,27.875c0,13.306-4.244,24.251-12.615,32.533
						C561.652,774.703,552.178,778.619,541.393,778.619z M530.396,761.874c3.746,2.974,8.264,4.481,13.436,4.481
						c6.379,0,11.418-2.298,15.403-7.023c4.229-5.01,6.372-12.024,6.372-20.848c0-9.301-1.89-16.364-5.617-20.994
						c-3.302-4.199-7.798-6.236-13.752-6.236c-5.802,0-11.129,2.205-15.842,6.557V761.874z"/>
					<path d="M625.567,778.619c-10.183,0-18.468-3.636-24.625-10.806c-5.949-6.867-8.967-15.894-8.967-26.827
						c0-5.274,0.528-10.082,1.569-14.291c1.043-4.218,2.502-7.994,4.335-11.224c1.838-3.24,4.04-6.053,6.544-8.359
						c2.495-2.297,5.204-4.194,8.052-5.641c5.548-2.839,11.723-4.278,18.353-4.278c8.584,0,15.972,3.169,21.958,9.418
						c6.612,6.833,9.967,15.96,9.967,27.125c0,14.575-4.046,26.1-12.026,34.254C643.761,775.044,635.297,778.619,625.567,778.619z
						 M626.338,709.459c-5.416,0-9.628,2.015-12.879,6.16c-3.478,4.418-5.24,10.729-5.24,18.758c0,10.123,2.241,18.208,6.661,24.032
						c3.942,5.218,8.677,7.753,14.473,7.753c2.67,0,5.088-0.633,7.188-1.881c2.13-1.267,3.965-3.032,5.455-5.248
						c3.034-4.675,4.577-10.881,4.577-18.432c0-8.343-1.641-15.518-4.878-21.328C638.083,712.667,633.061,709.459,626.338,709.459z"
						/>
					<path d="M687.429,778.641c-1.451,0-2.954-0.119-4.466-0.354c-7.116-1.117-8.609-4.923-8.609-7.918
						c0-1.788,0.762-3.899,2.328-6.456c1.476-2.408,3.481-5.105,5.963-8.017c2.457-2.887,5.399-6.048,8.747-9.395l9.939-10.122
						l-12.688-18.567c-2.961-4.439-5.659-6.686-8.028-6.686c-1.012,0-1.881,0.155-2.584,0.462c-0.971,0.423-1.752,0.628-2.389,0.628
						c-0.705,0-1.301-0.171-1.771-0.509c-0.405-0.29-0.754-0.666-1.034-1.117c-0.741-1.108-1.293-2.971,0.378-5.395
						c1.142-1.656,2.406-3.044,3.759-4.127c3.297-2.574,7.001-3.876,11.019-3.876c2.734,0,4.73,0.404,6.101,1.234
						c2.272,1.32,4.297,3.564,6.003,6.66l12.959,24.146c5.14-5.364,9.105-10.425,11.798-15.056c0.88-1.728,1.34-3.215,1.34-4.374
						c0-1.666-1.904-2.734-5.661-3.177c-0.308-0.036-0.581-0.213-0.74-0.479c-0.478-0.795-0.72-1.659-0.72-2.567
						c0-1.032,0.54-2.012,1.605-2.912c0.911-0.772,2.056-1.424,3.401-1.937c2.575-1.021,5.506-1.54,8.696-1.54
						c3.288,0,5.964,0.771,7.953,2.289c2.069,1.584,3.119,3.428,3.119,5.479c0,1.867-0.418,3.743-1.242,5.576
						c-0.79,1.754-1.877,3.642-3.231,5.609c-1.339,1.941-2.89,3.974-4.611,6.04c-1.71,2.052-3.536,4.117-5.427,6.138
						c-4.639,4.793-8.164,8.297-10.507,10.44l13.163,18.974c1.663,2.328,3.199,4.247,4.559,5.691c1.187,1.26,2.334,1.898,3.41,1.898
						c1.237,0,2.234-0.148,2.963-0.441c1.094-0.447,1.99-0.666,2.734-0.666c1.138,0,1.742,0.519,2.049,0.953
						c0.786,1.16,1.41,3.037-0.018,5.478c-0.99,1.687-2.115,3.096-3.344,4.188c-2.924,2.513-6.144,3.78-9.582,3.78
						c-6.755,0-11.632-2.928-14.496-8.702l-13.295-23.904c-6.827,7.415-11.213,13.569-13.042,18.303
						c-0.344,0.801-0.511,1.606-0.511,2.431c0,0.208,0,0.84,1.357,1.552c1.146,0.604,2.593,1.009,4.302,1.207
						c0.224,0.025,0.433,0.127,0.592,0.286c0.62,0.62,0.935,1.506,0.935,2.633c0,1.162-0.51,2.176-1.515,3.013
						c-0.856,0.714-1.951,1.313-3.254,1.778C693.172,778.161,690.344,778.641,687.429,778.641z"/>
				</g>
			</g>
		</g>
		<g>
			<path fill="none" stroke="#000000" stroke-width="39" stroke-miterlimit="10" d="M320.496,352.181
				c1.414-43.842,87.682-89.804,181.729-70.712s87.682,70.004,85.561,94.753"/>
			<path fill="none" stroke="#FFFFFF" stroke-width="20" stroke-miterlimit="10" d="M320.496,352.181
				c1.414-43.842,87.682-89.804,181.729-70.712s87.682,70.004,85.561,94.753"/>
		</g>
		<g>
			<g>
				<path fill="#FFFFFF" d="M609.128,477.493c-16.044-21.464-26.833-36.41-30.581-42.372c-3.512-5.586,4.507-15.914,6.846-18.374
					l2.046-2.151l-0.469-2.931c-0.132-0.825-3.176-19.265-14.418-40.703c2.73-1.914,5.506-2.88,8.287-2.88
					c6.783,0,18.561,5.59,29.582,18.079c6.735,7.632,18.034,23.599,18.034,44.787C628.455,447.271,621.324,464.254,609.128,477.493z
					"/>
				<path d="M580.839,374.082c4.39,0,14.691,4.274,25.083,16.049c6.175,6.996,16.533,21.603,16.533,40.816
					c0,12.636-4.744,25.749-13.063,36.86c-13.247-17.813-22.424-30.582-25.718-35.805c-0.26-1.777,2.502-7.29,6.081-11.136
					l4.088-4.219l-0.948-5.931c-0.126-0.789-2.786-16.907-12.092-36.636C580.814,374.082,580.827,374.082,580.839,374.082
					 M580.839,362.082c-5.718,0-11.112,2.71-15.883,7.487c12.813,22.56,16.089,43.043,16.089,43.043s-14.289,15.025-7.578,25.702
					c4.756,7.565,19.359,27.46,34.997,48.301c13.889-12.694,25.991-32.954,25.991-55.668
					C634.455,392.749,600.231,362.082,580.839,362.082L580.839,362.082z"/>
			</g>
			<path fill="#FFFFFF" stroke="#000000" stroke-width="12" stroke-miterlimit="10" d="M575.258,499.527"/>
		</g>
		<g>
			<path fill="#FFFFFF" d="M316.253,503.865c-13.176,0-31.968-9.001-46.761-22.398c-10.137-9.18-27.142-28.354-27.142-53.626
				c0-25.324,17.022-44.705,27.168-54.004c14.834-13.595,33.616-22.729,46.735-22.729c11.851,0,23.192,7.581,31.937,21.346
				c9.28,14.609,14.391,34.154,14.391,55.033s-5.11,40.424-14.391,55.033C339.446,496.285,328.104,503.865,316.253,503.865z"/>
			<path d="M316.253,357.108c13.121,0,22.468,11.63,26.871,18.563c8.678,13.66,13.456,32.063,13.456,51.816
				s-4.778,38.156-13.455,51.816c-4.404,6.932-13.75,18.562-26.872,18.562c-9.813,0-26.833-6.445-42.733-20.846
				c-9.4-8.513-25.17-26.222-25.17-49.179c0-23.027,15.803-40.948,25.222-49.581C289.43,363.728,306.813,357.108,316.253,357.108
				 M316.253,345.108c-28.898,0-79.903,37.236-79.903,82.732c0,45.497,51.005,82.024,79.903,82.024
				c28.899,0,52.327-36.881,52.327-82.378C368.58,381.991,345.152,345.108,316.253,345.108L316.253,345.108z"/>
		</g>
		<g>
			<path fill="#FFFFFF" d="M309.403,375.476c13.312,7.766,28.104,21.447,27.733,51.03c-0.347,27.719-17.75,49.181-25.146,56.576"/>
			<path d="M309.403,375.476c0,0,0.495,0.123,1.424,0.353c0.929,0.222,2.249,0.623,3.951,1.263c1.688,0.643,3.688,1.52,5.914,2.761
				c1.134,0.59,2.23,1.382,3.464,2.149c0.603,0.402,1.169,0.876,1.78,1.334c0.594,0.477,1.253,0.921,1.837,1.469
				c2.414,2.112,4.861,4.677,7.059,7.732c0.594,0.739,1.052,1.568,1.581,2.378c0.494,0.826,1.063,1.643,1.498,2.525
				c0.89,1.758,1.85,3.563,2.539,5.49c1.585,3.811,2.538,7.925,3.284,12.114c0.264,2.09,0.525,4.213,0.658,6.332
				c0.029,1.057,0.059,2.115,0.087,3.175l0.035,1.591l0.005,0.397l-0.011,0.375l-0.005,0.091l-0.011,0.183l-0.04,0.729l-0.172,2.916
				c-0.043,0.505-0.041,0.926-0.122,1.5l-0.221,1.676c-0.164,1.112-0.329,2.223-0.493,3.329c-0.18,1.087-0.458,2.082-0.684,3.119
				c-0.426,2.067-1.061,4.051-1.699,5.999l-0.476,1.456l-0.557,1.412c-0.378,0.933-0.753,1.857-1.125,2.775
				c-0.806,1.804-1.672,3.538-2.553,5.207c-0.955,1.63-1.79,3.269-2.814,4.738c-0.998,1.483-1.912,2.947-2.968,4.251
				c-0.506,0.661-1.004,1.311-1.493,1.949c-0.506,0.623-1.023,1.22-1.53,1.8c-1.998,2.343-4.007,4.323-5.846,5.993
				c-1.844,1.667-3.54,3.013-4.986,4.052c-0.703,0.536-1.384,0.965-1.959,1.346c-0.568,0.386-1.074,0.69-1.49,0.928
				c-0.831,0.468-1.274,0.718-1.274,0.718s0.923-1.775,2.537-4.882c0.781-1.539,1.714-3.394,2.729-5.517
				c1.004-2.129,2.123-4.505,3.217-7.12c0.271-0.656,0.554-1.318,0.851-1.984c0.268-0.68,0.54-1.373,0.817-2.078
				c0.566-1.398,1.096-2.855,1.637-4.345c0.553-1.485,1.008-3.041,1.552-4.589c0.253-0.781,0.444-1.591,0.683-2.39
				c0.224-0.802,0.503-1.594,0.688-2.418c0.201-0.815,0.403-1.639,0.607-2.468l0.317-1.238l0.243-1.261
				c0.17-0.838,0.342-1.681,0.515-2.528c0.179-0.844,0.253-1.707,0.4-2.56c0.121-0.848,0.282-1.729,0.377-2.553
				c0.075-0.809,0.15-1.62,0.226-2.434l0.139-1.215c0.055-0.388,0.044-0.944,0.068-1.408l0.123-2.919l0.032-0.729l0.009-0.182
				l0.004-0.092c-0.004,0.109,0.011-0.309-0.007,0.233l-0.002-0.041l-0.009-0.333l-0.022-1.328l-0.026-2.653
				c0.014-0.887-0.103-1.741-0.144-2.611c-0.057-0.865-0.08-1.737-0.151-2.593c-0.388-3.388-0.773-6.734-1.573-9.839
				c-0.307-1.593-0.814-3.073-1.236-4.575c-0.19-0.762-0.52-1.445-0.76-2.17c-0.267-0.71-0.477-1.449-0.802-2.113
				c-0.294-0.689-0.583-1.369-0.868-2.039c-0.274-0.683-0.654-1.29-0.965-1.933c-0.589-1.313-1.335-2.481-2.008-3.657
				c-1.395-2.317-2.856-4.407-4.265-6.226c-1.395-1.832-2.741-3.397-3.854-4.696c-0.568-0.649-1.076-1.228-1.519-1.732
				c-0.465-0.507-0.859-0.938-1.181-1.288C309.739,375.859,309.403,375.476,309.403,375.476z"/>
		</g>
		<path fill="none" stroke="#000000" stroke-width="19" stroke-linecap="round" stroke-linejoin="round" stroke-miterlimit="10" d="
			M300.458,482.913c-10.139,13.789-11.752,29.087-10.544,49.071c4.461,73.81,132.609,49.016,139.909,114.31"/>
		<path fill="none" stroke="#000000" stroke-width="19" stroke-linecap="round" stroke-linejoin="round" stroke-miterlimit="10" d="
			M529.608,481.732c10.139,13.789,11.753,29.087,10.545,49.071c-4.461,73.81-102.609,49.016-109.909,114.31"/>
	</g>
</g>
<g id="Layer_3">
	<g id="Shit">
	</g>
	<path d="M513.791,376.239c-21.582,0-42.59-2.48-63.548-7.591c-20.587-5.021-41.937-11.934-59.073-24.825
		c-15.555-11.701-25.025-29.012-20.021-48.712c3.882-15.281,16.683-25.219,31.815-28.012c1.896-0.35,3.814-0.591,5.738-0.712
		c2.164-0.137,1.565-2.589,2.014-4.497c0.766-3.258,2.234-6.348,4.406-8.906c7.779-9.169,21.645-9.38,32.593-8.06
		c-0.307-9.45,7.105-17.394,16.577-17.164c-1.133-8.519,1.355-18.421,7.564-24.602c5.402-5.377,13.043-7.76,20.422-8.778
		c9.006-1.243,17.688,0.112,26.66,0.112c7.648,0,11.771-3.674,16.811-8.713c-0.682,4.581-0.967,9.492-3.559,13.48
		c-3.127,4.816-8.551,6.787-13.553,9.031c-3.447,1.547-13.334,5.673-9.271,10.851c2.238,2.854,6.332,3.856,9.502,5.287
		c3.51,1.583,6.996,3.221,10.395,5.031c6.271,3.341,12.623,7.339,16.984,13.069c1.967,2.584,3.451,5.535,4.137,8.721
		c0.486,2.263,7.135,4.637,9.289,6.239c11.736,8.725,16.063,23.54,10.895,37.272c13.986,2.663,26.213,14.629,28.533,28.843
		c1.813,11.107-1.125,25.432-8.334,34.238c-7.902,9.654-20.473,13.848-32.346,15.978
		C543.764,376.449,528.639,376.239,513.791,376.239z"/>
	<path fill="#FFFFFF" d="M434,289.503c-12.861-5.656-18.917-16.704-18.917-16.704s-31.954-1.575-33.389,29.015
		c-1.862,39.739,76.741,54.073,96.419,57.103c19.676,3.03,46.686,1.908,46.686,1.908c56.416,0.705,60.443-15.894,62.561-27.072
		c2.115-11.177,0.904-19.381-8.014-27.915c-11.672-11.167-27.527-5.024-43.236-3.335c-17.672,1.899-31.75-1.25-31.75-1.25
		s63.721,5.196,57.801-25.198c-1.973-10.126-8.291-18.947-29.605-14.013c-6.357,1.472-14.049,0.765-14.049,0.765
		s21.547-0.193,21.609-11.855c0.039-7.343-9.418-13.366-24.928-20.367c-15.512-7-17.344-13.24-17.182-16.674
		c0.16-3.435,3.217-6.809,13.52-12.333c0,0-29.619-5.567-35.666,10.925c-5.5,15,0.252,20.558,7.25,23.75
		c-11.58-5.128-22.811-6.198-24.75,3.5c-1.75,8.75,15.047,16.494,34.24,19.449c-23.998-3.119-31.605-5.635-41.578-7.171
		c-9.849-1.516-26.211-2.442-29.473,10.645c-5.189,20.828,45.061,34.328,45.061,34.328S445.983,294.773,434,289.503z"/>
</g>
</svg>
